{
.appVersion = "905";
copyright = "Copyright (c) 2011-12 by vernon adams. All rights reserved.";
date = "2011-01-10 22:13:00 +0000";
designer = "vernon adams";
familyName = PacificoTest;
featurePrefixes = (
{
automatic = 1;
code = "languagesystem DFLT dflt;\012";
name = Languagesystems;
}
);
features = (
{
automatic = 1;
code = "feature frac;\012feature ordn;\012feature init;\012feature fina;\012";
name = aalt;
},
{
automatic = 1;
code = "sub one slash four by onequarter;\012sub one slash two by onehalf;\012sub three slash four by threequarters;\012";
name = frac;
},
{
automatic = 1;
code = "sub [zero one two three four five six seven eight nine] [A a]' by ordfeminine;\012sub [zero one two three four five six seven eight nine] [O o]' by ordmasculine;\012";
name = ordn;
},
{
automatic = 1;
code = "sub f by f.init;\012sub p by p.init;\012sub s by s.init;\012sub t by t.init;\012";
name = init;
},
{
automatic = 1;
code = "sub a by a.fina;\012sub b by b.fina;\012sub c by c.fina;\012sub d by d.fina;\012sub e by e.fina;\012sub f by f.fina;\012sub g by g.fina;\012sub h by h.fina;\012sub l by l.fina;\012sub m by m.fina;\012sub n by n.fina;\012sub o by o.fina;\012sub p by p.fina;\012sub s by s.fina;\012sub t by t.fina;\012sub w by w.fina;\012sub y by y.fina;\012sub uniFB00 by uniFB00.fina;\012";
name = fina;
},
{
automatic = 1;
code = "sub i t t by i_t_t;\012sub o o s by o_o_s;\012sub i t by i_t;\012sub i x by i_x;\012sub l i by l_i;\012sub l k by l_k;\012sub l l by l_l;\012sub l t by l_t;\012sub o o by o_o;\012sub o s by o_s;\012sub o x by o_x;\012sub p t by p_t;\012sub r s by r_s;\012sub t t by t_t;\012sub f f by uniFB00;\012sub f i by uniFB01;\012sub f l by uniFB02;\012";
name = dlig;
}
);
fontMaster = (
{
ascender = 750;
capHeight = 650;
descender = -250;
id = "85E06A60-3AC8-4D41-9F91-737269C30490";
xHeight = 465;
}
);
glyphs = (
{
glyphname = A;
lastChange = "2016-06-28 18:16:27 +0000";
layers = (
{
layerId = "85E06A60-3AC8-4D41-9F91-737269C30490";
paths = (
{
closed = 1;
nodes = (
"209 223 CURVE SMOOTH",
"209 137 OFFCURVE",
"240 78 OFFCURVE",
"322 78 CURVE SMOOTH",
"470 78 OFFCURVE",
"556 247 OFFCURVE",
"587 364 CURVE SMOOTH",
"689 741 LINE",
"668 747 OFFCURVE",
"644 750 OFFCURVE",
"618 750 CURVE SMOOTH",
"481 750 OFFCURVE",
"393 639 OFFCURVE",
"334 556 CURVE SMOOTH",
"274 471 OFFCURVE",
"209 358 OFFCURVE"
);
},
{
closed = 1;
nodes = (
"695 168 CURVE SMOOTH",
"695 153 LINE SMOOTH",
"695 135 OFFCURVE",
"696 116 OFFCURVE",
"712 116 CURVE SMOOTH",
"780 116 OFFCURVE",
"847 178 OFFCURVE",
"895 205 CURVE",
"920 109 LINE",
"867 54 OFFCURVE",
"777 -16 OFFCURVE",
"674 -16 CURVE SMOOTH",
"605 -16 OFFCURVE",
"584 43 OFFCURVE",
"584 115 CURVE SMOOTH",
"584 143 OFFCURVE",
"588 168 OFFCURVE",
"593 195 CURVE",
"540 87 OFFCURVE",
"447 -31 OFFCURVE",
"294 -31 CURVE SMOOTH",
"150 -31 OFFCURVE",
"68 73 OFFCURVE",
"68 220 CURVE SMOOTH",
"68 439 OFFCURVE",
"193 607 OFFCURVE",
"313 713 CURVE SMOOTH",
"392 782 OFFCURVE",
"494 844 OFFCURVE",
"635 844 CURVE SMOOTH",
"660 844 OFFCURVE",
"685 840 OFFCURVE",
"685 818 CURVE SMOOTH",
"685 815 OFFCURVE",
"685 813 OFFCURVE",
"685 811 CURVE SMOOTH",
"685 808 LINE",
"730 781 OFFCURVE",
"782 810 OFFCURVE",
"798 742 CURVE SMOOTH",
"801 727 OFFCURVE",
"803 707 OFFCURVE",
"803 682 CURVE SMOOTH",
"803 520 OFFCURVE",
"736 379 OFFCURVE",
"698 247 CURVE",
"696 219 OFFCURVE",
"695 197 OFFCURVE"
);
}
);
width = 807;
}
);
unicode = 0041;
userData = {
com.fontlab.hintData = {
hhints = (
{
position = -64;
width = 224;
},
{
position = 1536;
width = 192;
}
);
vhints = (
{
position = 140;
width = 288;
},
{
position = 1196;
width = 227;
}
);
};
};
},
{
glyphname = AE;
lastChange = "2016-06-28 18:16:27 +0000";
layers = (
{
layerId = "85E06A60-3AC8-4D41-9F91-737269C30490";
paths = (
{
closed = 1;
nodes = (
"203 223 CURVE SMOOTH",
"203 137 OFFCURVE",
"234 78 OFFCURVE",
"316 78 CURVE SMOOTH",
"475 78 OFFCURVE",
"575 317 OFFCURVE",
"609 438 CURVE SMOOTH",
"684 696 LINE",
"548 696 OFFCURVE",
"442 622 OFFCURVE",
"367 553 CURVE SMOOTH",
"286 479 OFFCURVE",
"203 371 OFFCURVE"
);
},
{
closed = 1;
nodes = (
"705 190 CURVE SMOOTH",
"705 102 OFFCURVE",
"753 63 OFFCURVE",
"841 63 CURVE SMOOTH",
"981 63 OFFCURVE",
"1107 124 OFFCURVE",
"1184 191 CURVE SMOOTH",
"1200 205 OFFCURVE",
"1212 219 OFFCURVE",
"1220 233 CURVE",
"1254 122 LINE",
"1165 27 OFFCURVE",
"1021 -47 OFFCURVE",
"844 -47 CURVE SMOOTH",
"703 -47 OFFCURVE",
"592 20 OFFCURVE",
"592 161 CURVE SMOOTH",
"592 169 OFFCURVE",
"593 178 OFFCURVE",
"594 188 CURVE",
"542 103 OFFCURVE",
"463 24 OFFCURVE",
"368 -14 CURVE SMOOTH",
"340 -25 OFFCURVE",
"313 -31 OFFCURVE",
"289 -31 CURVE SMOOTH",
"145 -31 OFFCURVE",
"63 73 OFFCURVE",
"63 220 CURVE SMOOTH",
"63 385 OFFCURVE",
"149 511 OFFCURVE",
"235 601 CURVE SMOOTH",
"330 700 OFFCURVE",
"466 790 OFFCURVE",
"652 790 CURVE SMOOTH",
"699 790 OFFCURVE",
"748 772 OFFCURVE",
"748 726 CURVE SMOOTH",
"748 721 OFFCURVE",
"747 717 OFFCURVE",
"746 712 CURVE",
"783 776 OFFCURVE",
"835 828 OFFCURVE",
"932 828 CURVE SMOOTH",
"1046 828 OFFCURVE",
"1132 775 OFFCURVE",
"1224 749 CURVE",
"1233 743 OFFCURVE",
"1238 732 OFFCURVE",
"1238 717 CURVE SMOOTH",
"1238 690 OFFCURVE",
"1223 650 OFFCURVE",
"1197 650 CURVE SMOOTH",
"1180 650 OFFCURVE",
"1162 669 OFFCURVE",
"1143 679 CURVE SMOOTH",
"1089 706 OFFCURVE",
"1017 734 OFFCURVE",
"940 734 CURVE SMOOTH",
"817 734 OFFCURVE",
"750 587 OFFCURVE",
"750 469 CURVE",
"828 476 OFFCURVE",
"903 484 OFFCURVE",
"984 484 CURVE SMOOTH",
"1011 484 OFFCURVE",
"1028 467 OFFCURVE",
"1028 442 CURVE SMOOTH",
"1028 410 OFFCURVE",
"1002 391 OFFCURVE",
"969 391 CURVE SMOOTH",
"895 391 OFFCURVE",
"809 375 OFFCURVE",
"734 375 CURVE",
"716 324 OFFCURVE",
"705 261 OFFCURVE"
);
}
);
width = 1125;
}
);
unicode = 00C6;
userData = {
com.fontlab.hintData = {
hhints = (
{
position = -96;
width = 224;
},
{
position = -64;
width = 224;
},
{
position = 800;
width = 192;
},
{
position = 1426;
width = 192;
},
{
position = 1504;
width = 192;
}
);
vhints = (
{
position = 128;
width = 288;
},
{
position = 1213;
width = 230;
}
);
};
};
},
{
glyphname = B;
lastChange = "2016-06-28 18:16:27 +0000";
layers = (
{
layerId = "85E06A60-3AC8-4D41-9F91-737269C30490";
paths = (
{
closed = 1;
nodes = (
"575 239 CURVE SMOOTH",
"575 393 OFFCURVE",
"328 303 OFFCURVE",
"328 436 CURVE SMOOTH",
"328 468 OFFCURVE",
"340 476 OFFCURVE",
"373 476 CURVE SMOOTH",
"401 476 OFFCURVE",
"421 472 OFFCURVE",
"449 472 CURVE SMOOTH",
"583 472 OFFCURVE",
"644 532 OFFCURVE",
"644 598 CURVE SMOOTH",
"644 681 OFFCURVE",
"548 773 OFFCURVE",
"379 773 CURVE SMOOTH",
"264 773 OFFCURVE",
"141 735 OFFCURVE",
"73 649 CURVE SMOOTH",
"43 611 OFFCURVE",
"17 534 OFFCURVE",
"-24 534 CURVE SMOOTH",
"-38 534 OFFCURVE",
"-45 551 OFFCURVE",
"-45 583 CURVE SMOOTH",
"-45 761 OFFCURVE",
"179 853 OFFCURVE",
"394 853 CURVE SMOOTH",
"627 853 OFFCURVE",
"766 716 OFFCURVE",
"766 595 CURVE SMOOTH",
"766 500 OFFCURVE",
"681 415 OFFCURVE",
"491 411 CURVE",
"608 411 OFFCURVE",
"685 337 OFFCURVE",
"685 222 CURVE SMOOTH",
"685 38 OFFCURVE",
"453 -42 OFFCURVE",
"275 -42 CURVE SMOOTH",
"165 -42 OFFCURVE",
"75 -11 OFFCURVE",
"75 45 CURVE",
"75 238 OFFCURVE",
"84 688 OFFCURVE",
"259 688 CURVE SMOOTH",
"283 688 OFFCURVE",
"303 674 OFFCURVE",
"319 647 CURVE",
"232 531 OFFCURVE",
"216 329 OFFCURVE",
"216 130 CURVE SMOOTH",
"216 78 OFFCURVE",
"262 55 OFFCURVE",
"322 55 CURVE SMOOTH",
"428 55 OFFCURVE",
"575 127 OFFCURVE"
);
}
);
width = 743;
}
);
unicode = 0042;
userData = {
com.fontlab.hintData = {
hhints = (
{
position = -87;
width = 200;
},
{
position = 841;
width = 126;
},
{
position = 1584;
width = 162;
}
);
vhints = (
{
position = 154;
width = 288;
},
{
position = 671;
width = 334;
},
{
position = 1178;
width = 224;
},
{
position = 1318;
width = 250;
}
);
};
};
},
{
glyphname = C;
lastChange = "2016-06-28 18:16:27 +0000";
layers = (
{
layerId = "85E06A60-3AC8-4D41-9F91-737269C30490";
paths = (
{
closed = 1;
nodes = (
"791 210 CURVE SMOOTH",
"792 213 OFFCURVE",
"792 216 OFFCURVE",
"792 218 CURVE SMOOTH",
"792 236 OFFCURVE",
"771 247 OFFCURVE",
"757 247 CURVE SMOOTH",
"751 247 OFFCURVE",
"745 245 OFFCURVE",
"740 241 CURVE SMOOTH",
"636 139 OFFCURVE",
"539 31 OFFCURVE",
"366 31 CURVE SMOOTH",
"244 31 OFFCURVE",
"188 113 OFFCURVE",
"188 245 CURVE SMOOTH",
"188 446 OFFCURVE",
"318 766 OFFCURVE",
"531 766 CURVE SMOOTH",
"602 766 OFFCURVE",
"641 726 OFFCURVE",
"641 656 CURVE SMOOTH",
"641 554 OFFCURVE",
"562 469 OFFCURVE",
"461 469 CURVE SMOOTH",
"412 469 OFFCURVE",
"378 463 OFFCURVE",
"378 425 CURVE SMOOTH",
"378 370 OFFCURVE",
"408 359 OFFCURVE",
"469 359 CURVE SMOOTH",
"619 359 OFFCURVE",
"750 512 OFFCURVE",
"750 666 CURVE SMOOTH",
"750 790 OFFCURVE",
"669 875 OFFCURVE",
"548 875 CURVE SMOOTH",
"251 875 OFFCURVE",
"47 535 OFFCURVE",
"47 235 CURVE SMOOTH",
"47 4 OFFCURVE",
"181 -85 OFFCURVE",
"335 -85 CURVE SMOOTH",
"520 -85 OFFCURVE",
"735 42 OFFCURVE"
);
}
);
width = 723;
}
);
unicode = 0043;
userData = {
com.fontlab.hintData = {
hhints = (
{
position = -175;
width = 239;
},
{
position = 736;
width = 224;
},
{
position = 1568;
width = 224;
}
);
vhints = (
{
position = 96;
width = 288;
},
{
position = 1312;
width = 224;
}
);
};
};
},
{
glyphname = D;
lastChange = "2016-06-28 18:16:27 +0000";
layers = (
{
layerId = "85E06A60-3AC8-4D41-9F91-737269C30490";
paths = (
{
closed = 1;
nodes = (
"-20 554 CURVE SMOOTH",
"-46 554 OFFCURVE",
"-57 580 OFFCURVE",
"-57 600 CURVE SMOOTH",
"-57 646 OFFCURVE",
"-21 708 OFFCURVE",
"-13 718 CURVE SMOOTH",
"59 803 OFFCURVE",
"150 848 OFFCURVE",
"283 848 CURVE SMOOTH",
"531 848 OFFCURVE",
"702 746 OFFCURVE",
"702 502 CURVE SMOOTH",
"702 254 OFFCURVE",
"572 62 OFFCURVE",
"391 -7 CURVE SMOOTH",
"352 -21 OFFCURVE",
"310 -29 OFFCURVE",
"265 -29 CURVE SMOOTH",
"198 -29 OFFCURVE",
"139 -9 OFFCURVE",
"94 12 CURVE SMOOTH",
"79 19 OFFCURVE",
"75 25 OFFCURVE",
"75 45 CURVE SMOOTH",
"75 288 OFFCURVE",
"97 518 OFFCURVE",
"196 664 CURVE",
"219 680 OFFCURVE",
"240 688 OFFCURVE",
"259 688 CURVE SMOOTH",
"283 688 OFFCURVE",
"303 674 OFFCURVE",
"319 647 CURVE",
"237 537 OFFCURVE",
"202 305 OFFCURVE",
"202 126 CURVE SMOOTH",
"202 83 OFFCURVE",
"206 63 OFFCURVE",
"249 63 CURVE SMOOTH",
"436 63 OFFCURVE",
"537 245 OFFCURVE",
"572 397 CURVE SMOOTH",
"579 431 OFFCURVE",
"583 462 OFFCURVE",
"583 493 CURVE SMOOTH",
"583 652 OFFCURVE",
"462 736 OFFCURVE",
"288 736 CURVE SMOOTH",
"223 736 OFFCURVE",
"138 718 OFFCURVE",
"73 649 CURVE SMOOTH",
"48 623 OFFCURVE",
"11 554 OFFCURVE"
);
}
);
width = 698;
}
);
unicode = 0044;
userData = {
com.fontlab.hintData = {
hhints = (
{
position = -60;
width = 188;
},
{
position = 1507;
width = 229;
}
);
vhints = (
{
position = 154;
width = 260;
},
{
position = 1194;
width = 244;
}
);
};
};
},
{
glyphname = Eth;
lastChange = "2016-06-28 18:16:27 +0000";
layers = (
{
layerId = "85E06A60-3AC8-4D41-9F91-737269C30490";
paths = (
{
closed = 1;
nodes = (
"188 126 CURVE SMOOTH",
"188 83 OFFCURVE",
"191 63 OFFCURVE",
"234 63 CURVE SMOOTH",
"429 63 OFFCURVE",
"532 261 OFFCURVE",
"566 420 CURVE SMOOTH",
"574 456 OFFCURVE",
"578 489 OFFCURVE",
"578 522 CURVE SMOOTH",
"578 635 OFFCURVE",
"519 734 OFFCURVE",
"410 734 CURVE SMOOTH",
"305 734 OFFCURVE",
"264 571 OFFCURVE",
"241 484 CURVE",
"364 484 LINE SMOOTH",
"387 484 OFFCURVE",
"407 475 OFFCURVE",
"407 452 CURVE SMOOTH",
"407 411 OFFCURVE",
"382 391 OFFCURVE",
"339 391 CURVE SMOOTH",
"220 391 LINE",
"204 308 OFFCURVE",
"188 217 OFFCURVE"
);
},
{
closed = 1;
nodes = (
"16 435 CURVE SMOOTH",
"16 468 OFFCURVE",
"32 484 OFFCURVE",
"67 484 CURVE SMOOTH",
"107 484 LINE",
"139 603 OFFCURVE",
"183 725 OFFCURVE",
"258 797 CURVE SMOOTH",
"295 833 OFFCURVE",
"331 844 OFFCURVE",
"396 844 CURVE SMOOTH",
"593 844 OFFCURVE",
"688 698 OFFCURVE",
"688 502 CURVE SMOOTH",
"688 254 OFFCURVE",
"557 62 OFFCURVE",
"376 -7 CURVE SMOOTH",
"337 -21 OFFCURVE",
"295 -29 OFFCURVE",
"250 -29 CURVE SMOOTH",
"184 -29 OFFCURVE",
"125 -9 OFFCURVE",
"79 12 CURVE SMOOTH",
"63 19 OFFCURVE",
"47 24 OFFCURVE",
"47 45 CURVE SMOOTH",
"47 170 OFFCURVE",
"63 285 OFFCURVE",
"85 391 CURVE",
"58 391 LINE SMOOTH",
"30 391 OFFCURVE",
"16 407 OFFCURVE"
);
}
);
width = 621;
}
);
unicode = 00D0;
userData = {
com.fontlab.hintData = {
hhints = (
{
position = -60;
width = 188;
},
{
position = 800;
width = 192;
},
{
position = 1504;
width = 224;
}
);
vhints = (
{
position = 96;
width = 288;
},
{
position = 174;
width = 276;
},
{
position = 219;
width = 275;
},
{
position = 1184;
width = 224;
}
);
};
};
},
{
glyphname = E;
lastChange = "2016-06-28 18:16:27 +0000";
layers = (
{
layerId = "85E06A60-3AC8-4D41-9F91-737269C30490";
paths = (
{
closed = 1;
nodes = (
"172 190 CURVE SMOOTH",
"172 97 OFFCURVE",
"223 56 OFFCURVE",
"315 56 CURVE SMOOTH",
"474 56 OFFCURVE",
"610 129 OFFCURVE",
"712 252 CURVE",
"764 310 OFFCURVE",
"763 162 OFFCURVE",
"746 142 CURVE",
"651 36 OFFCURVE",
"500 -47 OFFCURVE",
"311 -47 CURVE SMOOTH",
"154 -47 OFFCURVE",
"31 21 OFFCURVE",
"31 178 CURVE SMOOTH",
"31 350 OFFCURVE",
"166 429 OFFCURVE",
"340 433 CURVE",
"213 433 OFFCURVE",
"127 501 OFFCURVE",
"127 625 CURVE SMOOTH",
"127 782 OFFCURVE",
"290 843 OFFCURVE",
"445 843 CURVE SMOOTH",
"592 843 OFFCURVE",
"772 783 OFFCURVE",
"749 644 CURVE SMOOTH",
"741 599 OFFCURVE",
"687 549 OFFCURVE",
"643 549 CURVE SMOOTH",
"636 549 OFFCURVE",
"632 555 OFFCURVE",
"632 567 CURVE",
"655 672 LINE",
"606 711 OFFCURVE",
"506 733 OFFCURVE",
"419 733 CURVE SMOOTH",
"332 733 OFFCURVE",
"255 706 OFFCURVE",
"255 618 CURVE SMOOTH",
"255 493 OFFCURVE",
"415 522 OFFCURVE",
"481 464 CURVE SMOOTH",
"498 449 OFFCURVE",
"500 426 OFFCURVE",
"500 396 CURVE SMOOTH",
"500 358 OFFCURVE",
"488 344 OFFCURVE",
"450 344 CURVE SMOOTH",
"431 344 OFFCURVE",
"402 347 OFFCURVE",
"382 347 CURVE SMOOTH",
"276 347 OFFCURVE",
"172 296 OFFCURVE"
);
}
);
width = 720;
}
);
unicode = 0045;
userData = {
com.fontlab.hintData = {
hhints = (
{
position = -96;
width = 210;
},
{
position = 710;
width = 177;
},
{
position = 1501;
width = 225;
}
);
vhints = (
{
position = 64;
width = 288;
},
{
position = 260;
width = 262;
}
);
};
};
},
{
glyphname = F;
lastChange = "2016-06-28 18:16:27 +0000";
layers = (
{
layerId = "85E06A60-3AC8-4D41-9F91-737269C30490";
paths = (
{
closed = 1;
nodes = (
"582 888 CURVE SMOOTH",
"667 888 OFFCURVE",
"949 901 OFFCURVE",
"949 819 CURVE SMOOTH",
"949 789 OFFCURVE",
"934 761 OFFCURVE",
"903 761 CURVE SMOOTH",
"829 761 OFFCURVE",
"746 783 OFFCURVE",
"659 783 CURVE SMOOTH",
"620 783 OFFCURVE",
"583 778 OFFCURVE",
"547 773 CURVE",
"535 675 OFFCURVE",
"504 498 OFFCURVE",
"500 469 CURVE",
"656 469 LINE SMOOTH",
"684 469 OFFCURVE",
"688 448 OFFCURVE",
"688 422 CURVE SMOOTH",
"688 398 OFFCURVE",
"676 375 OFFCURVE",
"656 375 CURVE SMOOTH",
"601 375 OFFCURVE",
"537 366 OFFCURVE",
"480 366 CURVE",
"430 95 OFFCURVE",
"404 -97 OFFCURVE",
"172 -97 CURVE SMOOTH",
"113 -97 OFFCURVE",
"19 -80 OFFCURVE",
"19 -23 CURVE SMOOTH",
"19 9 OFFCURVE",
"40 47 OFFCURVE",
"72 47 CURVE SMOOTH",
"127 47 OFFCURVE",
"164 13 OFFCURVE",
"223 13 CURVE SMOOTH",
"308 13 OFFCURVE",
"339 278 OFFCURVE",
"354 366 CURVE",
"293 366 LINE SMOOTH",
"264 366 OFFCURVE",
"223 376 OFFCURVE",
"223 406 CURVE SMOOTH",
"223 449 OFFCURVE",
"343 456 OFFCURVE",
"376 460 CURVE",
"400 567 OFFCURVE",
"411 661 OFFCURVE",
"431 769 CURVE",
"252 750 OFFCURVE",
"188 694 OFFCURVE",
"188 592 CURVE SMOOTH",
"188 564 OFFCURVE",
"164 555 OFFCURVE",
"134 555 CURVE SMOOTH",
"92 555 OFFCURVE",
"55 556 OFFCURVE",
"55 594 CURVE SMOOTH",
"55 842 OFFCURVE",
"333 888 OFFCURVE"
);
}
);
width = 672;
}
);
unicode = 0046;
userData = {
com.fontlab.hintData = {
hhints = (
{
position = -198;
width = 224;
},
{
position = 749;
width = 193;
},
{
position = 768;
width = 192;
},
{
position = 1604;
width = 214;
}
);
vhints = (
{
position = 113;
width = 271;
}
);
};
};
},
{
glyphname = G;
lastChange = "2016-06-28 18:16:27 +0000";
layers = (
{
layerId = "85E06A60-3AC8-4D41-9F91-737269C30490";
paths = (
{
closed = 1;
nodes = (
"594 314 CURVE SMOOTH",
"703 314 OFFCURVE",
"750 274 OFFCURVE",
"750 167 CURVE SMOOTH",
"750 -57 OFFCURVE",
"693 -262 OFFCURVE",
"542 -336 CURVE SMOOTH",
"511 -352 OFFCURVE",
"475 -359 OFFCURVE",
"434 -359 CURVE SMOOTH",
"375 -359 OFFCURVE",
"281 -343 OFFCURVE",
"281 -286 CURVE SMOOTH",
"281 -254 OFFCURVE",
"302 -215 OFFCURVE",
"334 -215 CURVE SMOOTH",
"386 -215 OFFCURVE",
"414 -250 OFFCURVE",
"469 -250 CURVE SMOOTH",
"557 -250 OFFCURVE",
"602 -63 OFFCURVE",
"620 12 CURVE",
"550 -52 OFFCURVE",
"471 -94 OFFCURVE",
"334 -94 CURVE SMOOTH",
"154 -94 OFFCURVE",
"47 54 OFFCURVE",
"47 235 CURVE SMOOTH",
"47 485 OFFCURVE",
"168 662 OFFCURVE",
"319 764 CURVE SMOOTH",
"384 808 OFFCURVE",
"467 845 OFFCURVE",
"566 845 CURVE SMOOTH",
"688 845 OFFCURVE",
"750 767 OFFCURVE",
"750 643 CURVE SMOOTH",
"750 588 OFFCURVE",
"721 519 OFFCURVE",
"670 519 CURVE SMOOTH",
"641 519 OFFCURVE",
"623 551 OFFCURVE",
"623 581 CURVE SMOOTH",
"623 609 OFFCURVE",
"641 625 OFFCURVE",
"641 655 CURVE SMOOTH",
"641 710 OFFCURVE",
"616 752 OFFCURVE",
"565 752 CURVE SMOOTH",
"454 752 OFFCURVE",
"372 678 OFFCURVE",
"316 612 CURVE SMOOTH",
"241 522 OFFCURVE",
"188 395 OFFCURVE",
"188 230 CURVE SMOOTH",
"188 107 OFFCURVE",
"244 31 OFFCURVE",
"366 31 CURVE SMOOTH",
"478 31 OFFCURVE",
"560 64 OFFCURVE",
"630 110 CURVE",
"635 126 OFFCURVE",
"640 145 OFFCURVE",
"640 163 CURVE SMOOTH",
"640 197 OFFCURVE",
"624 205 OFFCURVE",
"591 205 CURVE SMOOTH",
"552 205 OFFCURVE",
"515 224 OFFCURVE",
"515 261 CURVE SMOOTH",
"515 299 OFFCURVE",
"554 314 OFFCURVE"
);
}
);
width = 750;
}
);
unicode = 0047;
userData = {
com.fontlab.hintData = {
hhints = (
{
position = -736;
width = 224;
},
{
position = -192;
width = 256;
},
{
position = 420;
width = 224;
},
{
position = 1541;
width = 189;
}
);
vhints = (
{
position = 96;
width = 288;
},
{
position = 1311;
width = 225;
}
);
};
};
},
{
glyphname = H;
lastChange = "2016-06-28 18:16:27 +0000";
layers = (
{
layerId = "85E06A60-3AC8-4D41-9F91-737269C30490";
paths = (
{
closed = 1;
nodes = (
"189 753 CURVE SMOOTH",
"177 753 OFFCURVE",
"123 657 OFFCURVE",
"94 657 CURVE SMOOTH",
"83 657 OFFCURVE",
"75 671 OFFCURVE",
"75 710 CURVE SMOOTH",
"75 799 OFFCURVE",
"146 846 OFFCURVE",
"224 846 CURVE SMOOTH",
"323 846 OFFCURVE",
"435 771 OFFCURVE",
"435 619 CURVE SMOOTH",
"435 559 OFFCURVE",
"414 495 OFFCURVE",
"395 442 CURVE",
"468 442 OFFCURVE",
"558 442 OFFCURVE",
"635 441 CURVE",
"669 554 OFFCURVE",
"710 674 OFFCURVE",
"753 781 CURVE SMOOTH",
"766 812 OFFCURVE",
"788 842 OFFCURVE",
"826 842 CURVE SMOOTH",
"858 842 OFFCURVE",
"878 825 OFFCURVE",
"878 792 CURVE SMOOTH",
"878 719 OFFCURVE",
"841 660 OFFCURVE",
"819 599 CURVE SMOOTH",
"802 550 OFFCURVE",
"785 499 OFFCURVE",
"769 449 CURVE",
"810 455 OFFCURVE",
"845 466 OFFCURVE",
"881 466 CURVE SMOOTH",
"909 466 OFFCURVE",
"923 453 OFFCURVE",
"923 416 CURVE SMOOTH",
"923 362 OFFCURVE",
"795 371 OFFCURVE",
"745 366 CURVE",
"714 260 OFFCURVE",
"694 181 OFFCURVE",
"694 134 CURVE SMOOTH",
"694 101 OFFCURVE",
"705 83 OFFCURVE",
"728 83 CURVE SMOOTH",
"851 83 OFFCURVE",
"923 172 OFFCURVE",
"989 238 CURVE SMOOTH",
"995 244 OFFCURVE",
"1002 247 OFFCURVE",
"1010 247 CURVE SMOOTH",
"1027 247 OFFCURVE",
"1045 232 OFFCURVE",
"1045 205 CURVE SMOOTH",
"1045 185 OFFCURVE",
"1038 154 OFFCURVE",
"1006 122 CURVE SMOOTH",
"941 56 OFFCURVE",
"833 -31 OFFCURVE",
"710 -31 CURVE SMOOTH",
"626 -31 OFFCURVE",
"563 20 OFFCURVE",
"563 106 CURVE SMOOTH",
"563 195 OFFCURVE",
"589 289 OFFCURVE",
"609 363 CURVE",
"524 358 OFFCURVE",
"447 354 OFFCURVE",
"364 349 CURVE",
"324 257 OFFCURVE",
"284 166 OFFCURVE",
"241 79 CURVE SMOOTH",
"213 22 OFFCURVE",
"172 -45 OFFCURVE",
"109 -45 CURVE SMOOTH",
"81 -45 OFFCURVE",
"43 -26 OFFCURVE",
"43 -3 CURVE SMOOTH",
"43 1 OFFCURVE",
"44 6 OFFCURVE",
"47 10 CURVE SMOOTH",
"106 94 OFFCURVE",
"175 196 OFFCURVE",
"226 344 CURVE",
"133 344 OFFCURVE",
"50 377 OFFCURVE",
"50 457 CURVE SMOOTH",
"50 471 OFFCURVE",
"55 478 OFFCURVE",
"65 478 CURVE SMOOTH",
"86 478 OFFCURVE",
"101 454 OFFCURVE",
"115 436 CURVE",
"147 438 OFFCURVE",
"176 438 OFFCURVE",
"210 438 CURVE SMOOTH",
"257 438 LINE",
"282 481 OFFCURVE",
"302 545 OFFCURVE",
"302 603 CURVE SMOOTH",
"302 684 OFFCURVE",
"273 753 OFFCURVE"
);
}
);
width = 940;
}
);
unicode = 0048;
userData = {
com.fontlab.hintData = {
hhints = (
{
position = -64;
width = 235;
},
{
position = 705;
width = 192;
},
{
position = 744;
width = 160;
},
{
position = 750;
width = 204;
},
{
position = 959;
width = 20;
},
{
position = 1543;
width = 190;
}
);
vhints = (
{
position = 619;
width = 272;
},
{
position = 1152;
width = 270;
}
);
};
};
},
{
glyphname = I;
lastChange = "2016-06-28 18:16:27 +0000";
layers = (
{
layerId = "85E06A60-3AC8-4D41-9F91-737269C30490";
paths = (
{
closed = 1;
nodes = (
"322 725 CURVE",
"263 718 OFFCURVE",
"218 707 OFFCURVE",
"173 685 CURVE",
"169 685 OFFCURVE",
"169 734 OFFCURVE",
"169 749 CURVE SMOOTH",
"169 831 OFFCURVE",
"361 845 OFFCURVE",
"452 845 CURVE SMOOTH",
"459 845 LINE SMOOTH",
"520 845 OFFCURVE",
"588 844 OFFCURVE",
"588 790 CURVE SMOOTH",
"588 738 OFFCURVE",
"542 733 OFFCURVE",
"486 733 CURVE SMOOTH",
"475 733 OFFCURVE",
"464 733 OFFCURVE",
"454 734 CURVE",
"397 514 OFFCURVE",
"353 296 OFFCURVE",
"295 77 CURVE",
"334 77 OFFCURVE",
"419 63 OFFCURVE",
"419 24 CURVE SMOOTH",
"419 11 OFFCURVE",
"407 -2 OFFCURVE",
"384 -16 CURVE",
"231 -16 LINE SMOOTH",
"219 -16 OFFCURVE",
"161 -16 OFFCURVE",
"104 -16 CURVE SMOOTH",
"40 -16 OFFCURVE",
"-24 -16 OFFCURVE",
"-24 -13 CURVE SMOOTH",
"-24 -9 OFFCURVE",
"-2 8 OFFCURVE",
"2 14 CURVE SMOOTH",
"12 30 OFFCURVE",
"4 41 OFFCURVE",
"25 51 CURVE SMOOTH",
"58 66 OFFCURVE",
"109 76 OFFCURVE",
"153 80 CURVE",
"205 297 OFFCURVE",
"250 525 OFFCURVE"
);
}
);
width = 480;
}
);
unicode = 0049;
userData = {
com.fontlab.hintData = {
hhints = (
{
position = -32;
width = 189;
},
{
position = 1501;
width = 229;
}
);
};
};
},
{
glyphname = J;
lastChange = "2016-06-28 18:16:27 +0000";
layers = (
{
layerId = "85E06A60-3AC8-4D41-9F91-737269C30490";
paths = (
{
closed = 1;
nodes = (
"389 865 CURVE SMOOTH",
"294 865 OFFCURVE",
"229 735 OFFCURVE",
"229 637 CURVE SMOOTH",
"229 511 OFFCURVE",
"330 451 OFFCURVE",
"462 354 CURVE",
"474 449 OFFCURVE",
"480 548 OFFCURVE",
"480 656 CURVE SMOOTH",
"480 746 OFFCURVE",
"470 865 OFFCURVE"
);
},
{
closed = 1;
nodes = (
"74 -156 CURVE SMOOTH",
"74 -212 OFFCURVE",
"94 -257 OFFCURVE",
"145 -257 CURVE SMOOTH",
"212 -257 OFFCURVE",
"263 -194 OFFCURVE",
"299 -142 CURVE",
"369 -43 OFFCURVE",
"417 87 OFFCURVE",
"449 237 CURVE",
"445 237 LINE SMOOTH",
"259 237 OFFCURVE",
"74 23 OFFCURVE"
);
},
{
closed = 1;
nodes = (
"130 -371 CURVE SMOOTH",
"2 -371 OFFCURVE",
"-51 -257 OFFCURVE",
"-51 -125 CURVE SMOOTH",
"-51 137 OFFCURVE",
"174 279 OFFCURVE",
"367 302 CURVE",
"262 371 OFFCURVE",
"105 471 OFFCURVE",
"105 625 CURVE SMOOTH",
"105 790 OFFCURVE",
"191 916 OFFCURVE",
"313 958 CURVE SMOOTH",
"334 966 OFFCURVE",
"356 970 OFFCURVE",
"378 970 CURVE SMOOTH",
"560 970 OFFCURVE",
"605 754 OFFCURVE",
"605 563 CURVE SMOOTH",
"605 458 OFFCURVE",
"598 363 OFFCURVE",
"583 274 CURVE",
"642 238 OFFCURVE",
"720 208 OFFCURVE",
"770 160 CURVE SMOOTH",
"774 156 OFFCURVE",
"776 153 OFFCURVE",
"776 149 CURVE SMOOTH",
"776 131 OFFCURVE",
"741 115 OFFCURVE",
"721 115 CURVE",
"664 117 OFFCURVE",
"611 147 OFFCURVE",
"562 176 CURVE",
"515 -28 OFFCURVE",
"431 -208 OFFCURVE",
"289 -313 CURVE",
"246 -344 OFFCURVE",
"194 -371 OFFCURVE"
);
}
);
width = 665;
}
);
unicode = 004A;
userData = {
com.fontlab.hintData = {
hhints = (
{
position = -760;
width = 233;
},
{
position = 1772;
width = 215;
}
);
vhints = (
{
position = -104;
width = 256;
},
{
position = 216;
width = 254;
},
{
position = 984;
width = 256;
}
);
};
};
},
{
glyphname = K;
lastChange = "2016-06-28 18:16:27 +0000";
layers = (
{
layerId = "85E06A60-3AC8-4D41-9F91-737269C30490";
paths = (
{
closed = 1;
nodes = (
"748 -31 CURVE SMOOTH",
"529 -31 OFFCURVE",
"481 254 OFFCURVE",
"443 372 CURVE",
"396 182 OFFCURVE",
"321 -31 OFFCURVE",
"104 -31 CURVE SMOOTH",
"59 -31 OFFCURVE",
"-47 -24 OFFCURVE",
"-47 18 CURVE SMOOTH",
"-47 48 OFFCURVE",
"-15 96 OFFCURVE",
"15 96 CURVE SMOOTH",
"38 96 OFFCURVE",
"60 78 OFFCURVE",
"87 78 CURVE SMOOTH",
"240 78 OFFCURVE",
"290 292 OFFCURVE",
"319 422 CURVE SMOOTH",
"340 516 OFFCURVE",
"355 622 OFFCURVE",
"366 725 CURVE",
"372 766 LINE",
"230 766 OFFCURVE",
"127 674 OFFCURVE",
"127 536 CURVE SMOOTH",
"127 509 OFFCURVE",
"96 500 OFFCURVE",
"66 500 CURVE SMOOTH",
"27 500 OFFCURVE",
"-14 508 OFFCURVE",
"-14 542 CURVE SMOOTH",
"-14 547 LINE SMOOTH",
"-14 763 OFFCURVE",
"221 844 OFFCURVE",
"437 844 CURVE SMOOTH",
"473 844 OFFCURVE",
"499 831 OFFCURVE",
"499 797 CURVE SMOOTH",
"499 688 OFFCURVE",
"485 583 OFFCURVE",
"463 484 CURVE",
"639 591 OFFCURVE",
"717 650 OFFCURVE",
"803 750 CURVE SMOOTH",
"843 797 OFFCURVE",
"855 833 OFFCURVE",
"892 833 CURVE SMOOTH",
"927 833 OFFCURVE",
"959 811 OFFCURVE",
"959 776 CURVE SMOOTH",
"959 758 OFFCURVE",
"949 738 OFFCURVE",
"942 723 CURVE SMOOTH",
"903 637 OFFCURVE",
"789 530 OFFCURVE",
"538 420 CURVE",
"616 270 OFFCURVE",
"664 76 OFFCURVE",
"773 76 CURVE SMOOTH",
"773 76 LINE SMOOTH",
"835 76 OFFCURVE",
"890 120 OFFCURVE",
"927 149 CURVE SMOOTH",
"938 158 OFFCURVE",
"947 161 OFFCURVE",
"955 161 CURVE SMOOTH",
"980 161 OFFCURVE",
"989 121 OFFCURVE",
"989 92 CURVE SMOOTH",
"989 78 OFFCURVE",
"987 66 OFFCURVE",
"984 63 CURVE SMOOTH",
"922 7 OFFCURVE",
"846 -31 OFFCURVE"
);
}
);
width = 918;
}
);
unicode = 004B;
userData = {
com.fontlab.hintData = {
hhints = (
{
position = -64;
width = 220;
},
{
position = 1568;
width = 160;
}
);
vhints = (
{
position = -28;
width = 288;
}
);
};
};
},
{
glyphname = L;
lastChange = "2016-06-28 18:16:27 +0000";
layers = (
{
layerId = "85E06A60-3AC8-4D41-9F91-737269C30490";
paths = (
{
closed = 1;
nodes = (
"504 798 CURVE SMOOTH",
"504 826 OFFCURVE",
"499 852 OFFCURVE",
"476 852 CURVE SMOOTH",
"444 852 OFFCURVE",
"415 814 OFFCURVE",
"396 789 CURVE SMOOTH",
"318 687 OFFCURVE",
"254 496 OFFCURVE",
"240 331 CURVE",
"329 423 OFFCURVE",
"432 574 OFFCURVE",
"484 701 CURVE SMOOTH",
"498 734 OFFCURVE",
"504 758 OFFCURVE"
);
},
{
closed = 1;
nodes = (
"-6 63 CURVE SMOOTH",
"-32 63 OFFCURVE",
"-49 100 OFFCURVE",
"-49 127 CURVE SMOOTH",
"-49 167 OFFCURVE",
"-7 180 OFFCURVE",
"20 198 CURVE SMOOTH",
"49 217 OFFCURVE",
"83 240 OFFCURVE",
"111 261 CURVE",
"141 512 OFFCURVE",
"217 760 OFFCURVE",
"364 889 CURVE SMOOTH",
"404 924 OFFCURVE",
"454 958 OFFCURVE",
"516 958 CURVE SMOOTH",
"595 958 OFFCURVE",
"627 892 OFFCURVE",
"627 810 CURVE SMOOTH",
"627 687 OFFCURVE",
"568 590 OFFCURVE",
"514 513 CURVE SMOOTH",
"443 410 OFFCURVE",
"339 274 OFFCURVE",
"231 208 CURVE",
"230 149 OFFCURVE",
"229 114 OFFCURVE",
"229 63 CURVE SMOOTH",
"229 44 OFFCURVE",
"251 37 OFFCURVE",
"282 37 CURVE SMOOTH",
"326 37 OFFCURVE",
"384 47 OFFCURVE",
"417 50 CURVE SMOOTH",
"575 68 LINE SMOOTH",
"580 69 OFFCURVE",
"585 70 OFFCURVE",
"590 70 CURVE SMOOTH",
"622 70 OFFCURVE",
"638 45 OFFCURVE",
"638 14 CURVE SMOOTH",
"638 -18 OFFCURVE",
"618 -40 OFFCURVE",
"591 -44 CURVE SMOOTH",
"482 -64 OFFCURVE",
"369 -83 OFFCURVE",
"223 -83 CURVE SMOOTH",
"132 -83 OFFCURVE",
"103 5 OFFCURVE",
"103 130 CURVE",
"75 109 OFFCURVE",
"51 93 OFFCURVE",
"32 81 CURVE SMOOTH",
"12 69 OFFCURVE",
"0 63 OFFCURVE"
);
}
);
width = 548;
}
);
unicode = 004C;
userData = {
com.fontlab.hintData = {
hhints = (
{
position = -170;
width = 246;
},
{
position = 1744;
width = 218;
}
);
vhints = (
{
position = 211;
width = 257;
},
{
position = 1033;
width = 251;
}
);
};
};
},
{
glyphname = Lslash;
lastChange = "2016-06-28 18:16:27 +0000";
layers = (
{
layerId = "85E06A60-3AC8-4D41-9F91-737269C30490";
paths = (
{
closed = 1;
nodes = (
"456 754 CURVE SMOOTH",
"456 782 OFFCURVE",
"450 808 OFFCURVE",
"427 808 CURVE SMOOTH",
"395 808 OFFCURVE",
"366 770 OFFCURVE",
"347 745 CURVE SMOOTH",
"303 687 OFFCURVE",
"267 615 OFFCURVE",
"241 533 CURVE",
"290 543 OFFCURVE",
"339 554 OFFCURVE",
"389 565 CURVE",
"407 594 OFFCURVE",
"422 625 OFFCURVE",
"436 657 CURVE SMOOTH",
"449 690 OFFCURVE",
"456 714 OFFCURVE"
);
},
{
closed = 1;
nodes = (
"-45 63 CURVE SMOOTH",
"-71 63 OFFCURVE",
"-88 100 OFFCURVE",
"-88 127 CURVE SMOOTH",
"-88 167 OFFCURVE",
"-46 180 OFFCURVE",
"-19 198 CURVE SMOOTH",
"10 217 OFFCURVE",
"43 240 OFFCURVE",
"72 261 CURVE",
"76 294 LINE",
"80 332 OFFCURVE",
"85 369 OFFCURVE",
"92 404 CURVE",
"68 399 OFFCURVE",
"45 395 OFFCURVE",
"22 390 CURVE SMOOTH",
"18 389 OFFCURVE",
"13 388 OFFCURVE",
"9 388 CURVE SMOOTH",
"-20 388 OFFCURVE",
"-37 416 OFFCURVE",
"-37 443 CURVE SMOOTH",
"-37 492 OFFCURVE",
"67 495 OFFCURVE",
"113 505 CURVE SMOOTH",
"114 505 OFFCURVE",
"115 506 OFFCURVE",
"116 506 CURVE",
"156 646 OFFCURVE",
"223 763 OFFCURVE",
"315 845 CURVE SMOOTH",
"355 880 OFFCURVE",
"405 914 OFFCURVE",
"467 914 CURVE SMOOTH",
"546 914 OFFCURVE",
"578 848 OFFCURVE",
"578 766 CURVE SMOOTH",
"578 704 OFFCURVE",
"563 648 OFFCURVE",
"541 599 CURVE",
"589 609 OFFCURVE",
"637 620 OFFCURVE",
"684 630 CURVE SMOOTH",
"688 632 OFFCURVE",
"694 632 OFFCURVE",
"700 632 CURVE SMOOTH",
"727 632 OFFCURVE",
"739 614 OFFCURVE",
"739 585 CURVE SMOOTH",
"739 524 OFFCURVE",
"628 522 OFFCURVE",
"573 510 CURVE SMOOTH",
"542 503 OFFCURVE",
"511 496 OFFCURVE",
"479 489 CURVE",
"475 482 OFFCURVE",
"470 476 OFFCURVE",
"465 469 CURVE SMOOTH",
"394 366 OFFCURVE",
"300 274 OFFCURVE",
"192 208 CURVE",
"191 173 OFFCURVE",
"189 152 OFFCURVE",
"189 122 CURVE SMOOTH",
"189 117 LINE SMOOTH",
"189 99 OFFCURVE",
"211 98 OFFCURVE",
"231 98 CURVE SMOOTH",
"235 98 LINE SMOOTH",
"250 98 OFFCURVE",
"270 102 OFFCURVE",
"294 109 CURVE SMOOTH",
"458 156 LINE SMOOTH",
"462 157 OFFCURVE",
"468 158 OFFCURVE",
"473 158 CURVE SMOOTH",
"505 158 OFFCURVE",
"521 133 OFFCURVE",
"521 102 CURVE SMOOTH",
"521 70 OFFCURVE",
"501 48 OFFCURVE",
"474 43 CURVE",
"390 10 OFFCURVE",
"297 -24 OFFCURVE",
"184 -24 CURVE SMOOTH",
"93 -24 OFFCURVE",
"64 40 OFFCURVE",
"64 130 CURVE",
"36 109 OFFCURVE",
"12 93 OFFCURVE",
"-7 81 CURVE SMOOTH",
"-27 69 OFFCURVE",
"-40 63 OFFCURVE"
);
},
{
closed = 1;
nodes = (
"215 431 CURVE",
"208 398 OFFCURVE",
"204 365 OFFCURVE",
"201 331 CURVE",
"237 369 OFFCURVE",
"274 409 OFFCURVE",
"309 452 CURVE",
"278 445 OFFCURVE",
"246 438 OFFCURVE"
);
}
);
width = 484;
}
);
unicode = 0141;
userData = {
com.fontlab.hintData = {
hhints = (
{
position = -50;
width = 251;
},
{
position = 795;
width = 240;
},
{
position = 1654;
width = 218;
}
);
vhints = (
{
position = 933;
width = 251;
}
);
};
};
},
{
glyphname = M;
lastChange = "2016-06-28 18:16:27 +0000";
layers = (
{
layerId = "85E06A60-3AC8-4D41-9F91-737269C30490";
paths = (
{
closed = 1;
nodes = (
"809 145 CURVE SMOOTH",
"809 323 OFFCURVE",
"883 472 OFFCURVE",
"883 646 CURVE SMOOTH",
"883 684 OFFCURVE",
"875 719 OFFCURVE",
"840 719 CURVE SMOOTH",
"728 719 OFFCURVE",
"601 180 OFFCURVE",
"580 50 CURVE SMOOTH",
"574 13 OFFCURVE",
"546 -3 OFFCURVE",
"519 -3 CURVE SMOOTH",
"487 -3 OFFCURVE",
"448 20 OFFCURVE",
"448 59 CURVE SMOOTH",
"448 63 OFFCURVE",
"449 66 OFFCURVE",
"449 70 CURVE SMOOTH",
"473 202 OFFCURVE",
"530 496 OFFCURVE",
"530 609 CURVE SMOOTH",
"530 657 OFFCURVE",
"528 720 OFFCURVE",
"489 720 CURVE SMOOTH",
"400 720 OFFCURVE",
"252 287 OFFCURVE",
"225 148 CURVE SMOOTH",
"210 78 OFFCURVE",
"198 0 OFFCURVE",
"134 0 CURVE SMOOTH",
"102 0 OFFCURVE",
"63 11 OFFCURVE",
"63 39 CURVE SMOOTH",
"63 91 OFFCURVE",
"98 223 OFFCURVE",
"112 313 CURVE SMOOTH",
"117 344 OFFCURVE",
"147 554 OFFCURVE",
"147 668 CURVE SMOOTH",
"147 711 OFFCURVE",
"143 741 OFFCURVE",
"131 741 CURVE SMOOTH",
"100 741 OFFCURVE",
"56 646 OFFCURVE",
"19 556 CURVE",
"17 552 OFFCURVE",
"13 550 OFFCURVE",
"7 550 CURVE SMOOTH",
"-17 550 OFFCURVE",
"-63 587 OFFCURVE",
"-63 618 CURVE SMOOTH",
"-63 625 OFFCURVE",
"-62 631 OFFCURVE",
"-59 639 CURVE SMOOTH",
"-15 750 OFFCURVE",
"63 831 OFFCURVE",
"146 831 CURVE SMOOTH",
"232 831 OFFCURVE",
"249 759 OFFCURVE",
"249 672 CURVE SMOOTH",
"249 619 OFFCURVE",
"248 565 OFFCURVE",
"247 513 CURVE",
"286 632 OFFCURVE",
"378 842 OFFCURVE",
"521 842 CURVE SMOOTH",
"600 842 OFFCURVE",
"642 775 OFFCURVE",
"642 703 CURVE SMOOTH",
"642 676 OFFCURVE",
"612 509 OFFCURVE",
"612 509 CURVE",
"649 652 OFFCURVE",
"721 845 OFFCURVE",
"889 845 CURVE SMOOTH",
"967 845 OFFCURVE",
"1012 764 OFFCURVE",
"1012 672 CURVE SMOOTH",
"1012 656 OFFCURVE",
"1011 640 OFFCURVE",
"1008 624 CURVE SMOOTH",
"981 474 OFFCURVE",
"963 350 OFFCURVE",
"939 219 CURVE SMOOTH",
"936 198 OFFCURVE",
"934 179 OFFCURVE",
"934 164 CURVE SMOOTH",
"934 130 OFFCURVE",
"944 109 OFFCURVE",
"975 109 CURVE SMOOTH",
"1024 109 OFFCURVE",
"1064 154 OFFCURVE",
"1090 181 CURVE SMOOTH",
"1111 202 OFFCURVE",
"1133 225 OFFCURVE",
"1152 253 CURVE SMOOTH",
"1165 271 OFFCURVE",
"1176 283 OFFCURVE",
"1186 283 CURVE SMOOTH",
"1196 283 OFFCURVE",
"1204 272 OFFCURVE",
"1204 252 CURVE SMOOTH",
"1204 231 OFFCURVE",
"1198 198 OFFCURVE",
"1175 157 CURVE SMOOTH",
"1131 79 OFFCURVE",
"1063 0 OFFCURVE",
"948 0 CURVE SMOOTH",
"864 0 OFFCURVE",
"809 59 OFFCURVE"
);
}
);
width = 1075;
}
);
unicode = 004D;
userData = {
com.fontlab.hintData = {
hhints = (
{
position = 0;
width = 224;
},
{
position = 1472;
width = 258;
},
{
position = 1518;
width = 184;
}
);
vhints = (
{
position = 302;
width = 208;
},
{
position = 918;
width = 270;
},
{
position = 1085;
width = 230;
},
{
position = 1656;
width = 256;
},
{
position = 1808;
width = 265;
}
);
};
};
},
{
glyphname = N;
lastChange = "2016-06-28 18:16:27 +0000";
layers = (
{
layerId = "85E06A60-3AC8-4D41-9F91-737269C30490";
paths = (
{
closed = 1;
nodes = (
"592 648 CURVE SMOOTH",
"592 681 OFFCURVE",
"586 720 OFFCURVE",
"548 720 CURVE SMOOTH",
"416 720 OFFCURVE",
"279 176 OFFCURVE",
"231 42 CURVE SMOOTH",
"220 11 OFFCURVE",
"197 -7 OFFCURVE",
"160 -7 CURVE SMOOTH",
"122 -7 OFFCURVE",
"92 26 OFFCURVE",
"92 63 CURVE SMOOTH",
"92 67 OFFCURVE",
"93 71 OFFCURVE",
"94 75 CURVE SMOOTH",
"134 285 OFFCURVE",
"175 454 OFFCURVE",
"190 679 CURVE",
"190 690 LINE SMOOTH",
"190 704 OFFCURVE",
"187 718 OFFCURVE",
"173 718 CURVE SMOOTH",
"142 718 OFFCURVE",
"116 672 OFFCURVE",
"104 654 CURVE SMOOTH",
"88 631 OFFCURVE",
"71 584 OFFCURVE",
"39 584 CURVE SMOOTH",
"21 584 OFFCURVE",
"-1 606 OFFCURVE",
"-1 623 CURVE SMOOTH",
"-1 711 OFFCURVE",
"89 828 OFFCURVE",
"176 828 CURVE SMOOTH",
"265 828 OFFCURVE",
"300 774 OFFCURVE",
"300 685 CURVE SMOOTH",
"300 573 OFFCURVE",
"259 358 OFFCURVE",
"262 357 CURVE",
"316 539 OFFCURVE",
"382 844 OFFCURVE",
"597 844 CURVE SMOOTH",
"683 844 OFFCURVE",
"719 771 OFFCURVE",
"719 697 CURVE SMOOTH",
"719 531 OFFCURVE",
"641 398 OFFCURVE",
"641 228 CURVE SMOOTH",
"641 166 OFFCURVE",
"650 93 OFFCURVE",
"713 93 CURVE SMOOTH",
"806 93 OFFCURVE",
"885 189 OFFCURVE",
"929 241 CURVE SMOOTH",
"936 249 OFFCURVE",
"939 253 OFFCURVE",
"939 254 CURVE SMOOTH",
"968 148 LINE",
"911 70 OFFCURVE",
"812 -20 OFFCURVE",
"681 -20 CURVE SMOOTH",
"563 -20 OFFCURVE",
"508 82 OFFCURVE",
"508 202 CURVE SMOOTH",
"508 354 OFFCURVE",
"561 467 OFFCURVE",
"586 590 CURVE SMOOTH",
"590 610 OFFCURVE",
"592 629 OFFCURVE"
);
}
);
width = 827;
}
);
unicode = 004E;
userData = {
com.fontlab.hintData = {
hhints = (
{
position = -41;
width = 232;
},
{
position = 1471;
width = 225;
},
{
position = 1474;
width = 254;
}
);
vhints = (
{
position = 189;
width = 284;
},
{
position = 390;
width = 224;
},
{
position = 1041;
width = 271;
},
{
position = 1212;
width = 261;
}
);
};
};
},
{
glyphname = O;
lastChange = "2016-06-28 18:16:27 +0000";
layers = (
{
layerId = "85E06A60-3AC8-4D41-9F91-737269C30490";
paths = (
{
closed = 1;
nodes = (
"701 506 CURVE SMOOTH",
"701 633 OFFCURVE",
"651 737 OFFCURVE",
"521 737 CURVE SMOOTH",
"303 737 OFFCURVE",
"201 473 OFFCURVE",
"201 287 CURVE SMOOTH",
"201 174 OFFCURVE",
"265 78 OFFCURVE",
"403 78 CURVE SMOOTH",
"618 78 OFFCURVE",
"701 333 OFFCURVE"
);
},
{
closed = 1;
nodes = (
"75 288 CURVE SMOOTH",
"75 572 OFFCURVE",
"241 845 OFFCURVE",
"515 845 CURVE SMOOTH",
"720 845 OFFCURVE",
"826 693 OFFCURVE",
"826 487 CURVE SMOOTH",
"826 242 OFFCURVE",
"679 -32 OFFCURVE",
"391 -32 CURVE SMOOTH",
"184 -32 OFFCURVE",
"75 112 OFFCURVE"
);
}
);
width = 830;
}
);
unicode = 004F;
userData = {
com.fontlab.hintData = {
hhints = (
{
position = -66;
width = 225;
},
{
position = 1509;
width = 221;
}
);
vhints = (
{
position = 154;
width = 257;
},
{
position = 1435;
width = 256;
}
);
};
};
},
{
glyphname = Oslash;
lastChange = "2016-06-28 18:16:27 +0000";
layers = (
{
layerId = "85E06A60-3AC8-4D41-9F91-737269C30490";
paths = (
{
closed = 1;
nodes = (
"304 44 CURVE",
"409 417 LINE SMOOTH",
"446 548 OFFCURVE",
"484 684 OFFCURVE",
"521 812 CURVE",
"339 798 OFFCURVE",
"245 562 OFFCURVE",
"212 397 CURVE SMOOTH",
"205 358 OFFCURVE",
"201 320 OFFCURVE",
"201 285 CURVE SMOOTH",
"201 174 OFFCURVE",
"237 89 OFFCURVE"
);
},
{
closed = 1;
nodes = (
"605 794 CURVE",
"535 537 OFFCURVE",
"462 272 OFFCURVE",
"390 16 CURVE",
"392 16 OFFCURVE",
"395 16 OFFCURVE",
"396 16 CURVE SMOOTH",
"403 16 LINE SMOOTH",
"623 16 OFFCURVE",
"701 350 OFFCURVE",
"701 563 CURVE SMOOTH",
"701 667 OFFCURVE",
"672 756 OFFCURVE"
);
},
{
closed = 1;
nodes = (
"629 885 CURVE",
"756 833 OFFCURVE",
"826 702 OFFCURVE",
"826 524 CURVE SMOOTH",
"826 255 OFFCURVE",
"705 20 OFFCURVE",
"520 -66 CURVE SMOOTH",
"480 -85 OFFCURVE",
"438 -94 OFFCURVE",
"391 -94 CURVE SMOOTH",
"380 -94 OFFCURVE",
"369 -93 OFFCURVE",
"359 -92 CURVE",
"339 -160 LINE",
"330 -186 OFFCURVE",
"319 -215 OFFCURVE",
"289 -215 CURVE SMOOTH",
"260 -215 OFFCURVE",
"254 -198 OFFCURVE",
"254 -168 CURVE SMOOTH",
"254 -133 OFFCURVE",
"262 -103 OFFCURVE",
"272 -69 CURVE",
"145 -13 OFFCURVE",
"76 126 OFFCURVE",
"76 309 CURVE SMOOTH",
"76 575 OFFCURVE",
"193 799 OFFCURVE",
"381 880 CURVE SMOOTH",
"421 897 OFFCURVE",
"466 906 OFFCURVE",
"515 906 CURVE SMOOTH",
"525 906 OFFCURVE",
"536 906 OFFCURVE",
"546 905 CURVE",
"559 950 LINE SMOOTH",
"569 984 OFFCURVE",
"590 1030 OFFCURVE",
"633 1030 CURVE SMOOTH",
"651 1030 OFFCURVE",
"653 1016 OFFCURVE",
"653 998 CURVE SMOOTH",
"653 991 LINE SMOOTH",
"653 957 OFFCURVE",
"639 914 OFFCURVE"
);
}
);
width = 839;
}
);
unicode = 00D8;
userData = {
com.fontlab.hintData = {
hhints = (
{
position = -192;
width = 224;
},
{
position = 1663;
width = 193;
}
);
vhints = (
{
position = 155;
width = 256;
},
{
position = 521;
width = 173;
},
{
position = 1435;
width = 256;
}
);
};
};
},
{
glyphname = OE;
lastChange = "2016-06-28 18:16:27 +0000";
layers = (
{
layerId = "85E06A60-3AC8-4D41-9F91-737269C30490";
paths = (
{
closed = 1;
nodes = (
"172 285 CURVE SMOOTH",
"172 143 OFFCURVE",
"234 16 OFFCURVE",
"374 16 CURVE SMOOTH",
"481 16 OFFCURVE",
"540 101 OFFCURVE",
"578 172 CURVE",
"672 625 LINE",
"660 726 OFFCURVE",
"615 813 OFFCURVE",
"505 813 CURVE SMOOTH",
"389 813 OFFCURVE",
"316 710 OFFCURVE",
"271 631 CURVE SMOOTH",
"218 540 OFFCURVE",
"172 422 OFFCURVE"
);
},
{
closed = 1;
nodes = (
"715 190 CURVE SMOOTH",
"715 102 OFFCURVE",
"764 63 OFFCURVE",
"852 63 CURVE SMOOTH",
"992 63 OFFCURVE",
"1118 124 OFFCURVE",
"1195 191 CURVE SMOOTH",
"1210 205 OFFCURVE",
"1223 219 OFFCURVE",
"1231 233 CURVE",
"1265 122 LINE",
"1176 27 OFFCURVE",
"1032 -47 OFFCURVE",
"854 -47 CURVE SMOOTH",
"751 -47 OFFCURVE",
"670 -13 OFFCURVE",
"625 47 CURVE",
"580 -29 OFFCURVE",
"481 -94 OFFCURVE",
"362 -94 CURVE SMOOTH",
"146 -94 OFFCURVE",
"47 91 OFFCURVE",
"47 309 CURVE SMOOTH",
"47 575 OFFCURVE",
"165 799 OFFCURVE",
"353 880 CURVE SMOOTH",
"393 897 OFFCURVE",
"438 906 OFFCURVE",
"486 906 CURVE SMOOTH",
"613 906 OFFCURVE",
"707 836 OFFCURVE",
"750 750 CURVE",
"798 817 OFFCURVE",
"866 864 OFFCURVE",
"969 864 CURVE SMOOTH",
"1077 864 OFFCURVE",
"1164 817 OFFCURVE",
"1234 766 CURVE",
"1188 672 LINE",
"1139 720 OFFCURVE",
"1069 760 OFFCURVE",
"976 760 CURVE SMOOTH",
"877 760 OFFCURVE",
"813 709 OFFCURVE",
"797 625 CURVE SMOOTH",
"766 453 LINE",
"1016 453 LINE SMOOTH",
"1039 453 OFFCURVE",
"1054 432 OFFCURVE",
"1054 408 CURVE SMOOTH",
"1054 375 OFFCURVE",
"1027 359 OFFCURVE",
"993 359 CURVE SMOOTH",
"750 359 LINE",
"736 305 OFFCURVE",
"715 250 OFFCURVE"
);
}
);
width = 1126;
}
);
unicode = 0152;
userData = {
com.fontlab.hintData = {
hhints = (
{
position = -192;
width = 224;
},
{
position = -96;
width = 224;
},
{
position = 736;
width = 192;
},
{
position = 1557;
width = 213;
},
{
position = 1664;
width = 192;
}
);
vhints = (
{
position = 96;
width = 256;
}
);
};
};
},
{
glyphname = P;
lastChange = "2016-06-28 18:16:27 +0000";
layers = (
{
layerId = "85E06A60-3AC8-4D41-9F91-737269C30490";
paths = (
{
closed = 1;
nodes = (
"765 636 CURVE SMOOTH",
"765 763 OFFCURVE",
"637 805 OFFCURVE",
"481 805 CURVE SMOOTH",
"267 805 OFFCURVE",
"189 573 OFFCURVE",
"189 368 CURVE SMOOTH",
"189 237 OFFCURVE",
"183 -10 OFFCURVE",
"272 -10 CURVE SMOOTH",
"379 -10 OFFCURVE",
"365 167 OFFCURVE",
"382 306 CURVE SMOOTH",
"388 358 LINE",
"333 380 OFFCURVE",
"271 394 OFFCURVE",
"271 463 CURVE SMOOTH",
"271 484 OFFCURVE",
"271 510 OFFCURVE",
"292 510 CURVE SMOOTH",
"323 510 OFFCURVE",
"354 480 OFFCURVE",
"383 474 CURVE",
"383 570 OFFCURVE",
"397 691 OFFCURVE",
"494 691 CURVE SMOOTH",
"523 691 OFFCURVE",
"547 680 OFFCURVE",
"547 651 CURVE SMOOTH",
"547 646 OFFCURVE",
"546 646 OFFCURVE",
"546 643 CURVE",
"517 518 LINE",
"512 479 LINE",
"638 493 OFFCURVE",
"765 537 OFFCURVE"
);
},
{
closed = 1;
nodes = (
"59 355 CURVE SMOOTH",
"59 644 OFFCURVE",
"201 919 OFFCURVE",
"492 919 CURVE SMOOTH",
"708 919 OFFCURVE",
"880 828 OFFCURVE",
"880 643 CURVE SMOOTH",
"880 475 OFFCURVE",
"697 388 OFFCURVE",
"509 364 CURVE",
"510 364 OFFCURVE",
"500 232 OFFCURVE",
"495 182 CURVE SMOOTH",
"474 12 OFFCURVE",
"417 -125 OFFCURVE",
"262 -125 CURVE SMOOTH",
"92 -125 OFFCURVE",
"59 168 OFFCURVE"
);
}
);
width = 757;
}
);
unicode = 0050;
userData = {
com.fontlab.hintData = {
hhints = (
{
position = -255;
width = 234;
},
{
position = 1648;
width = 235;
}
);
vhints = (
{
position = 120;
width = 268;
},
{
position = 1567;
width = 235;
}
);
};
};
},
{
glyphname = Thorn;
lastChange = "2016-06-28 18:16:27 +0000";
layers = (
{
layerId = "85E06A60-3AC8-4D41-9F91-737269C30490";
paths = (
{
closed = 1;
nodes = (
"446 307 LINE",
"517 314 OFFCURVE",
"630 332 OFFCURVE",
"630 402 CURVE SMOOTH",
"630 498 OFFCURVE",
"558 545 OFFCURVE",
"473 559 CURVE"
);
},
{
closed = 1;
nodes = (
"353 558 CURVE",
"227 528 OFFCURVE",
"177 392 OFFCURVE",
"177 236 CURVE SMOOTH",
"177 164 LINE SMOOTH",
"177 90 OFFCURVE",
"179 -59 OFFCURVE",
"221 -59 CURVE SMOOTH",
"301 -59 OFFCURVE",
"322 118 OFFCURVE",
"322 196 CURVE",
"289 210 OFFCURVE",
"254 218 OFFCURVE",
"254 261 CURVE SMOOTH",
"254 282 OFFCURVE",
"254 309 OFFCURVE",
"275 309 CURVE SMOOTH",
"290 309 OFFCURVE",
"308 297 OFFCURVE",
"328 297 CURVE",
"328 381 OFFCURVE",
"345 474 OFFCURVE"
);
},
{
closed = 1;
nodes = (
"485 674 LINE",
"626 655 OFFCURVE",
"745 569 OFFCURVE",
"745 414 CURVE SMOOTH",
"745 266 OFFCURVE",
"581 208 OFFCURVE",
"443 192 CURVE",
"419 14 OFFCURVE",
"405 -173 OFFCURVE",
"210 -173 CURVE SMOOTH",
"68 -173 OFFCURVE",
"46 82 OFFCURVE",
"46 223 CURVE SMOOTH",
"46 465 OFFCURVE",
"154 646 OFFCURVE",
"364 675 CURVE",
"367 695 OFFCURVE",
"369 712 OFFCURVE",
"369 727 CURVE",
"372 816 OFFCURVE",
"394 954 OFFCURVE",
"484 954 CURVE SMOOTH",
"511 954 OFFCURVE",
"527 940 OFFCURVE",
"527 914 CURVE SMOOTH",
"527 909 OFFCURVE",
"527 909 OFFCURVE",
"527 906 CURVE",
"492 740 LINE"
);
}
);
width = 594;
}
);
unicode = 00DE;
userData = {
com.fontlab.hintData = {
hhints = (
{
position = -355;
width = 234;
},
{
position = 393;
width = 235;
},
{
position = 1143;
width = 240;
}
);
vhints = (
{
position = 94;
width = 268;
},
{
position = 1291;
width = 235;
}
);
};
};
},
{
glyphname = Q;
lastChange = "2016-06-28 18:16:27 +0000";
layers = (
{
layerId = "85E06A60-3AC8-4D41-9F91-737269C30490";
paths = (
{
closed = 1;
nodes = (
"187 282 CURVE SMOOTH",
"187 151 OFFCURVE",
"250 31 OFFCURVE",
"374 31 CURVE SMOOTH",
"583 31 OFFCURVE",
"656 350 OFFCURVE",
"656 553 CURVE SMOOTH",
"656 681 OFFCURVE",
"621 813 OFFCURVE",
"495 813 CURVE SMOOTH",
"290 813 OFFCURVE",
"187 496 OFFCURVE"
);
},
{
closed = 1;
nodes = (
"486 906 CURVE SMOOTH",
"700 906 OFFCURVE",
"797 736 OFFCURVE",
"797 520 CURVE SMOOTH",
"797 243 OFFCURVE",
"671 -39 OFFCURVE",
"425 -67 CURVE",
"464 -110 OFFCURVE",
"498 -192 OFFCURVE",
"569 -192 CURVE SMOOTH",
"625 -192 OFFCURVE",
"667 -146 OFFCURVE",
"695 -114 CURVE",
"700 -110 OFFCURVE",
"705 -109 OFFCURVE",
"713 -109 CURVE SMOOTH",
"744 -109 OFFCURVE",
"758 -179 OFFCURVE",
"758 -179 CURVE",
"698 -263 OFFCURVE",
"602 -319 OFFCURVE",
"523 -319 CURVE SMOOTH",
"405 -319 OFFCURVE",
"375 -208 OFFCURVE",
"348 -123 CURVE SMOOTH",
"332 -76 LINE",
"144 -44 OFFCURVE",
"47 98 OFFCURVE",
"47 307 CURVE SMOOTH",
"47 604 OFFCURVE",
"214 906 OFFCURVE"
);
}
);
width = 787;
}
);
unicode = 0051;
userData = {
com.fontlab.hintData = {
hhints = (
{
position = -653;
width = 259;
},
{
position = 1664;
width = 192;
}
);
vhints = (
{
position = 96;
width = 287;
},
{
position = 1344;
width = 288;
}
);
};
};
},
{
glyphname = R;
lastChange = "2016-06-28 18:16:27 +0000";
layers = (
{
layerId = "85E06A60-3AC8-4D41-9F91-737269C30490";
paths = (
{
closed = 1;
nodes = (
"395 477 CURVE",
"398 541 OFFCURVE",
"410 625 OFFCURVE",
"481 625 CURVE SMOOTH",
"512 625 OFFCURVE",
"525 612 OFFCURVE",
"525 584 CURVE SMOOTH",
"525 580 LINE",
"524 543 OFFCURVE",
"514 504 OFFCURVE",
"510 464 CURVE",
"638 467 OFFCURVE",
"774 497 OFFCURVE",
"774 611 CURVE SMOOTH",
"774 694 OFFCURVE",
"688 729 OFFCURVE",
"598 729 CURVE SMOOTH",
"314 729 OFFCURVE",
"166 515 OFFCURVE",
"166 239 CURVE SMOOTH",
"166 141 OFFCURVE",
"192 21 OFFCURVE",
"287 21 CURVE SMOOTH",
"378 21 OFFCURVE",
"381 280 OFFCURVE",
"381 373 CURVE",
"347 389 OFFCURVE",
"303 405 OFFCURVE",
"303 444 CURVE SMOOTH",
"303 462 OFFCURVE",
"307 484 OFFCURVE",
"329 484 CURVE SMOOTH",
"350 484 OFFCURVE",
"375 477 OFFCURVE"
);
},
{
closed = 1;
nodes = (
"1010 45 LINE",
"946 4 OFFCURVE",
"867 -47 OFFCURVE",
"761 -47 CURVE SMOOTH",
"579 -47 OFFCURVE",
"621 246 OFFCURVE",
"549 344 CURVE SMOOTH",
"541 355 OFFCURVE",
"531 361 OFFCURVE",
"519 361 CURVE SMOOTH",
"490 361 LINE",
"475 197 OFFCURVE",
"459 18 OFFCURVE",
"365 -62 CURVE SMOOTH",
"340 -83 OFFCURVE",
"310 -94 OFFCURVE",
"274 -94 CURVE SMOOTH",
"103 -94 OFFCURVE",
"36 98 OFFCURVE",
"36 264 CURVE SMOOTH",
"36 557 OFFCURVE",
"219 754 OFFCURVE",
"448 822 CURVE SMOOTH",
"498 836 OFFCURVE",
"551 844 OFFCURVE",
"606 844 CURVE SMOOTH",
"761 844 OFFCURVE",
"905 768 OFFCURVE",
"905 616 CURVE SMOOTH",
"905 460 OFFCURVE",
"746 390 OFFCURVE",
"597 378 CURVE",
"688 339 OFFCURVE",
"714 253 OFFCURVE",
"736 148 CURVE SMOOTH",
"744 111 OFFCURVE",
"754 67 OFFCURVE",
"793 67 CURVE SMOOTH",
"859 67 OFFCURVE",
"915 111 OFFCURVE",
"950 146 CURVE"
);
}
);
width = 889;
}
);
unicode = 0052;
userData = {
com.fontlab.hintData = {
hhints = (
{
position = -192;
width = 234;
},
{
position = -96;
width = 234;
},
{
position = 739;
width = 211;
},
{
position = 1494;
width = 234;
}
);
vhints = (
{
position = 74;
width = 266;
},
{
position = 809;
width = 266;
},
{
position = 1586;
width = 268;
}
);
};
};
},
{
glyphname = S;
lastChange = "2016-06-28 18:16:27 +0000";
layers = (
{
layerId = "85E06A60-3AC8-4D41-9F91-737269C30490";
paths = (
{
closed = 1;
nodes = (
"180 179 CURVE SMOOTH",
"180 76 OFFCURVE",
"279 42 OFFCURVE",
"383 42 CURVE SMOOTH",
"492 42 OFFCURVE",
"604 88 OFFCURVE",
"604 179 CURVE SMOOTH",
"604 296 OFFCURVE",
"459 344 OFFCURVE",
"381 386 CURVE",
"292 435 OFFCURVE",
"164 496 OFFCURVE",
"164 637 CURVE SMOOTH",
"164 792 OFFCURVE",
"322 859 OFFCURVE",
"482 859 CURVE SMOOTH",
"618 859 OFFCURVE",
"753 783 OFFCURVE",
"753 649 CURVE SMOOTH",
"753 588 OFFCURVE",
"708 505 OFFCURVE",
"649 505 CURVE SMOOTH",
"628 505 OFFCURVE",
"616 518 OFFCURVE",
"616 539 CURVE SMOOTH",
"616 581 OFFCURVE",
"643 605 OFFCURVE",
"643 650 CURVE SMOOTH",
"643 736 OFFCURVE",
"547 757 OFFCURVE",
"463 757 CURVE SMOOTH",
"380 757 OFFCURVE",
"290 725 OFFCURVE",
"290 647 CURVE SMOOTH",
"290 542 OFFCURVE",
"435 498 OFFCURVE",
"509 461 CURVE",
"605 409 OFFCURVE",
"729 343 OFFCURVE",
"729 188 CURVE SMOOTH",
"729 16 OFFCURVE",
"557 -63 OFFCURVE",
"376 -63 CURVE SMOOTH",
"209 -63 OFFCURVE",
"56 12 OFFCURVE",
"56 178 CURVE SMOOTH",
"56 243 OFFCURVE",
"95 305 OFFCURVE",
"156 305 CURVE SMOOTH",
"178 305 OFFCURVE",
"192 292 OFFCURVE",
"192 270 CURVE SMOOTH",
"192 238 OFFCURVE",
"180 214 OFFCURVE"
);
}
);
width = 761;
}
);
unicode = 0053;
userData = {
com.fontlab.hintData = {
hhints = (
{
position = -128;
width = 213;
},
{
position = 1551;
width = 209;
}
);
vhints = (
{
position = 114;
width = 255;
},
{
position = 336;
width = 257;
},
{
position = 1236;
width = 256;
},
{
position = 1317;
width = 225;
}
);
};
};
},
{
glyphname = T;
lastChange = "2016-06-28 18:16:27 +0000";
layers = (
{
layerId = "85E06A60-3AC8-4D41-9F91-737269C30490";
paths = (
{
closed = 1;
nodes = (
"72 602 CURVE SMOOTH",
"26 602 OFFCURVE",
"-7 624 OFFCURVE",
"-7 664 CURVE SMOOTH",
"-7 854 OFFCURVE",
"261 858 OFFCURVE",
"456 858 CURVE SMOOTH",
"611 858 OFFCURVE",
"754 850 OFFCURVE",
"896 827 CURVE SMOOTH",
"921 823 OFFCURVE",
"938 808 OFFCURVE",
"938 781 CURVE SMOOTH",
"938 752 OFFCURVE",
"914 724 OFFCURVE",
"885 728 CURVE SMOOTH",
"750 745 OFFCURVE",
"619 751 OFFCURVE",
"480 757 CURVE",
"417 470 OFFCURVE",
"372 272 OFFCURVE",
"319 40 CURVE SMOOTH",
"311 8 OFFCURVE",
"283 -36 OFFCURVE",
"243 -36 CURVE SMOOTH",
"206 -36 OFFCURVE",
"179 -19 OFFCURVE",
"179 20 CURVE SMOOTH",
"179 26 OFFCURVE",
"180 33 OFFCURVE",
"182 40 CURVE SMOOTH",
"236 247 OFFCURVE",
"301 487 OFFCURVE",
"372 757 CURVE",
"291 751 OFFCURVE",
"150 749 OFFCURVE",
"150 664 CURVE SMOOTH",
"150 624 OFFCURVE",
"117 602 OFFCURVE"
);
}
);
width = 667;
}
);
unicode = 0054;
userData = {
com.fontlab.hintData = {
hhints = (
{
position = 1551;
width = 207;
}
);
vhints = (
{
position = -14;
width = 321;
}
);
};
};
},
{
glyphname = U;
lastChange = "2016-06-28 18:16:27 +0000";
layers = (
{
layerId = "85E06A60-3AC8-4D41-9F91-737269C30490";
paths = (
{
closed = 1;
nodes = (
"216 282 CURVE SMOOTH",
"216 86 OFFCURVE",
"268 31 OFFCURVE",
"357 31 CURVE SMOOTH",
"592 31 OFFCURVE",
"637 549 OFFCURVE",
"648 766 CURVE SMOOTH",
"651 819 OFFCURVE",
"679 844 OFFCURVE",
"734 844 CURVE SMOOTH",
"776 844 OFFCURVE",
"789 821 OFFCURVE",
"789 778 CURVE SMOOTH",
"789 459 OFFCURVE",
"725 182 OFFCURVE",
"566 23 CURVE SMOOTH",
"512 -32 OFFCURVE",
"440 -78 OFFCURVE",
"342 -78 CURVE SMOOTH",
"144 -78 OFFCURVE",
"86 89 OFFCURVE",
"86 287 CURVE SMOOTH",
"86 451 OFFCURVE",
"126 597 OFFCURVE",
"169 719 CURVE SMOOTH",
"183 760 OFFCURVE",
"195 797 OFFCURVE",
"244 797 CURVE SMOOTH",
"287 797 OFFCURVE",
"321 793 OFFCURVE",
"321 750 CURVE SMOOTH",
"321 747 LINE",
"294 598 OFFCURVE",
"216 463 OFFCURVE"
);
}
);
width = 777;
}
);
unicode = 0055;
userData = {
com.fontlab.hintData = {
hhints = (
{
position = -160;
width = 224;
}
);
vhints = (
{
position = 176;
width = 266;
},
{
position = 346;
width = 311;
},
{
position = 1328;
width = 288;
}
);
};
};
},
{
glyphname = V;
lastChange = "2016-06-28 18:16:27 +0000";
layers = (
{
layerId = "85E06A60-3AC8-4D41-9F91-737269C30490";
paths = (
{
closed = 1;
nodes = (
"196 -16 CURVE SMOOTH",
"96 -16 OFFCURVE",
"88 81 OFFCURVE",
"88 177 CURVE SMOOTH",
"88 197 OFFCURVE",
"88 216 OFFCURVE",
"88 234 CURVE SMOOTH",
"88 385 OFFCURVE",
"59 543 OFFCURVE",
"59 701 CURVE SMOOTH",
"59 754 OFFCURVE",
"78 781 OFFCURVE",
"128 781 CURVE SMOOTH",
"175 781 OFFCURVE",
"185 754 OFFCURVE",
"187 708 CURVE SMOOTH",
"208 127 LINE",
"526 737 LINE",
"536 771 OFFCURVE",
"571 796 OFFCURVE",
"613 796 CURVE SMOOTH",
"640 796 OFFCURVE",
"651 769 OFFCURVE",
"651 740 CURVE SMOOTH",
"651 673 OFFCURVE",
"607 603 OFFCURVE",
"581 549 CURVE SMOOTH",
"540 465 OFFCURVE",
"494 377 OFFCURVE",
"450 297 CURVE SMOOTH",
"443 284 OFFCURVE",
"438 268 OFFCURVE",
"438 249 CURVE SMOOTH",
"438 182 OFFCURVE",
"495 152 OFFCURVE",
"564 152 CURVE SMOOTH",
"596 152 OFFCURVE",
"623 178 OFFCURVE",
"643 192 CURVE",
"659 204 OFFCURVE",
"675 217 OFFCURVE",
"691 232 CURVE",
"680 131 LINE",
"639 98 OFFCURVE",
"585 60 OFFCURVE",
"524 60 CURVE SMOOTH",
"440 60 OFFCURVE",
"385 104 OFFCURVE",
"385 187 CURVE SMOOTH",
"385 197 OFFCURVE",
"386 208 OFFCURVE",
"388 219 CURVE",
"351 132 OFFCURVE",
"313 34 OFFCURVE",
"240 -5 CURVE SMOOTH",
"225 -13 OFFCURVE",
"210 -16 OFFCURVE"
);
}
);
width = 604;
}
);
unicode = 0056;
userData = {
com.fontlab.hintData = {
hhints = (
{
position = -33;
width = 21;
},
{
position = 123;
width = 188;
}
);
vhints = (
{
position = 121;
width = 262;
},
{
position = 180;
width = 247;
},
{
position = 788;
width = 110;
}
);
};
};
},
{
glyphname = W;
lastChange = "2016-06-28 18:16:27 +0000";
layers = (
{
layerId = "85E06A60-3AC8-4D41-9F91-737269C30490";
paths = (
{
closed = 1;
nodes = (
"996 268 CURVE SMOOTH",
"996 232 OFFCURVE",
"1004 194 OFFCURVE",
"1040 194 CURVE SMOOTH",
"1079 194 OFFCURVE",
"1147 249 OFFCURVE",
"1178 281 CURVE SMOOTH",
"1189 292 OFFCURVE",
"1196 296 OFFCURVE",
"1202 296 CURVE SMOOTH",
"1210 296 OFFCURVE",
"1213 285 OFFCURVE",
"1213 271 CURVE SMOOTH",
"1213 240 OFFCURVE",
"1201 194 OFFCURVE",
"1201 194 CURVE SMOOTH",
"1168 155 OFFCURVE",
"1078 82 OFFCURVE",
"1011 82 CURVE SMOOTH",
"965 82 OFFCURVE",
"935 89 OFFCURVE",
"927 131 CURVE",
"879 43 OFFCURVE",
"811 -47 OFFCURVE",
"683 -47 CURVE SMOOTH",
"554 -47 OFFCURVE",
"519 90 OFFCURVE",
"513 224 CURVE",
"474 81 OFFCURVE",
"399 -49 OFFCURVE",
"257 -49 CURVE SMOOTH",
"99 -49 OFFCURVE",
"56 71 OFFCURVE",
"56 226 CURVE SMOOTH",
"56 401 OFFCURVE",
"125 621 OFFCURVE",
"157 699 CURVE SMOOTH",
"176 747 OFFCURVE",
"190 797 OFFCURVE",
"253 797 CURVE SMOOTH",
"282 797 OFFCURVE",
"306 789 OFFCURVE",
"306 765 CURVE SMOOTH",
"306 762 OFFCURVE",
"306 758 OFFCURVE",
"305 754 CURVE SMOOTH",
"287 683 OFFCURVE",
"264 604 OFFCURVE",
"245 537 CURVE SMOOTH",
"232 491 OFFCURVE",
"188 330 OFFCURVE",
"188 208 CURVE SMOOTH",
"188 127 OFFCURVE",
"213 63 OFFCURVE",
"269 63 CURVE SMOOTH",
"382 63 OFFCURVE",
"434 288 OFFCURVE",
"461 375 CURVE SMOOTH",
"489 462 OFFCURVE",
"512 562 OFFCURVE",
"534 672 CURVE SMOOTH",
"545 727 OFFCURVE",
"563 766 OFFCURVE",
"628 766 CURVE SMOOTH",
"665 766 OFFCURVE",
"690 756 OFFCURVE",
"690 720 CURVE SMOOTH",
"690 666 OFFCURVE",
"672 599 OFFCURVE",
"663 538 CURVE SMOOTH",
"650 443 OFFCURVE",
"636 338 OFFCURVE",
"636 233 CURVE SMOOTH",
"636 161 OFFCURVE",
"637 66 OFFCURVE",
"700 66 CURVE SMOOTH",
"858 66 OFFCURVE",
"918 680 OFFCURVE",
"929 750 CURVE SMOOTH",
"937 804 OFFCURVE",
"955 813 OFFCURVE",
"1011 813 CURVE SMOOTH",
"1047 813 OFFCURVE",
"1065 796 OFFCURVE",
"1065 761 CURVE SMOOTH",
"1065 667 OFFCURVE",
"1033 469 OFFCURVE",
"1004 338 CURVE SMOOTH",
"1000 318 OFFCURVE",
"996 292 OFFCURVE"
);
}
);
width = 1093;
}
);
unicode = 0057;
userData = {
com.fontlab.hintData = {
hhints = (
{
position = -96;
width = 232;
},
{
position = 168;
width = 229;
}
);
vhints = (
{
position = 115;
width = 271;
},
{
position = 1051;
width = 252;
},
{
position = 1902;
width = 280;
}
);
};
};
},
{
glyphname = X;
lastChange = "2016-06-28 18:16:27 +0000";
layers = (
{
layerId = "85E06A60-3AC8-4D41-9F91-737269C30490";
paths = (
{
closed = 1;
nodes = (
"68 -51 CURVE SMOOTH",
"30 -51 OFFCURVE",
"1 -37 OFFCURVE",
"1 -2 CURVE SMOOTH",
"1 33 OFFCURVE",
"32 63 OFFCURVE",
"54 90 CURVE SMOOTH",
"146 205 OFFCURVE",
"247 327 OFFCURVE",
"340 441 CURVE",
"335 456 LINE",
"321 555 OFFCURVE",
"301 719 OFFCURVE",
"190 719 CURVE SMOOTH",
"160 719 OFFCURVE",
"114 632 OFFCURVE",
"102 607 CURVE SMOOTH",
"96 598 OFFCURVE",
"91 593 OFFCURVE",
"87 593 CURVE SMOOTH",
"64 593 OFFCURVE",
"56 675 OFFCURVE",
"56 701 CURVE SMOOTH",
"56 788 OFFCURVE",
"100 844 OFFCURVE",
"186 844 CURVE SMOOTH",
"365 844 OFFCURVE",
"420 698 OFFCURVE",
"452 545 CURVE",
"511 635 OFFCURVE",
"583 725 OFFCURVE",
"664 792 CURVE SMOOTH",
"687 811 OFFCURVE",
"715 835 OFFCURVE",
"748 835 CURVE SMOOTH",
"797 835 OFFCURVE",
"816 760 OFFCURVE",
"816 708 CURVE SMOOTH",
"816 648 OFFCURVE",
"781 614 OFFCURVE",
"723 614 CURVE SMOOTH",
"714 614 OFFCURVE",
"713 629 OFFCURVE",
"713 646 CURVE SMOOTH",
"713 659 LINE SMOOTH",
"713 675 OFFCURVE",
"712 689 OFFCURVE",
"705 689 CURVE SMOOTH",
"669 689 OFFCURVE",
"633 634 OFFCURVE",
"613 610 CURVE SMOOTH",
"570 558 OFFCURVE",
"527 498 OFFCURVE",
"488 440 CURVE",
"513 349 OFFCURVE",
"526 258 OFFCURVE",
"549 171 CURVE SMOOTH",
"561 124 OFFCURVE",
"577 78 OFFCURVE",
"632 78 CURVE SMOOTH",
"698 78 OFFCURVE",
"742 146 OFFCURVE",
"779 203 CURVE",
"784 208 OFFCURVE",
"789 210 OFFCURVE",
"795 210 CURVE SMOOTH",
"821 210 OFFCURVE",
"842 178 OFFCURVE",
"842 151 CURVE SMOOTH",
"842 141 OFFCURVE",
"837 133 OFFCURVE",
"831 125 CURVE SMOOTH",
"780 65 OFFCURVE",
"720 5 OFFCURVE",
"642 -21 CURVE SMOOTH",
"623 -28 OFFCURVE",
"605 -31 OFFCURVE",
"589 -31 CURVE SMOOTH",
"459 -31 OFFCURVE",
"436 88 OFFCURVE",
"408 196 CURVE SMOOTH",
"399 233 OFFCURVE",
"389 277 OFFCURVE",
"378 328 CURVE",
"279 180 LINE SMOOTH",
"236 115 OFFCURVE",
"191 46 OFFCURVE",
"147 -15 CURVE SMOOTH",
"133 -35 OFFCURVE",
"102 -51 OFFCURVE"
);
}
);
width = 750;
}
);
unicode = 0058;
userData = {
com.fontlab.hintData = {
hhints = (
{
position = -64;
width = 223;
},
{
position = 1412;
width = 298;
},
{
position = 1472;
width = 256;
}
);
vhints = (
{
position = 1461;
width = 210;
}
);
};
};
},
{
glyphname = Y;
lastChange = "2016-06-28 18:16:27 +0000";
layers = (
{
layerId = "85E06A60-3AC8-4D41-9F91-737269C30490";
paths = (
{
closed = 1;
nodes = (
"9 562 CURVE SMOOTH",
"6 562 OFFCURVE",
"-49 604 OFFCURVE",
"-49 661 CURVE SMOOTH",
"-49 731 OFFCURVE",
"32 802 OFFCURVE",
"113 802 CURVE SMOOTH",
"323 802 OFFCURVE",
"395 664 OFFCURVE",
"443 542 CURVE SMOOTH",
"500 398 LINE",
"563 525 OFFCURVE",
"622 660 OFFCURVE",
"684 785 CURVE SMOOTH",
"692 801 OFFCURVE",
"718 811 OFFCURVE",
"743 811 CURVE SMOOTH",
"777 811 OFFCURVE",
"798 791 OFFCURVE",
"798 757 CURVE SMOOTH",
"798 714 OFFCURVE",
"771 680 OFFCURVE",
"753 640 CURVE SMOOTH",
"649 406 OFFCURVE",
"522 131 OFFCURVE",
"350 -29 CURVE SMOOTH",
"318 -60 OFFCURVE",
"284 -80 OFFCURVE",
"226 -80 CURVE SMOOTH",
"167 -80 OFFCURVE",
"81 -32 OFFCURVE",
"81 17 CURVE SMOOTH",
"81 45 OFFCURVE",
"104 64 OFFCURVE",
"133 64 CURVE SMOOTH",
"167 64 OFFCURVE",
"179 0 OFFCURVE",
"214 0 CURVE SMOOTH",
"277 0 OFFCURVE",
"379 177 OFFCURVE",
"426 292 CURVE",
"367 411 OFFCURVE",
"246 697 OFFCURVE",
"88 697 CURVE SMOOTH",
"53 697 OFFCURVE",
"30 656 OFFCURVE",
"30 633 CURVE SMOOTH",
"30 629 OFFCURVE",
"31 625 OFFCURVE",
"31 619 CURVE SMOOTH",
"31 597 OFFCURVE",
"25 562 OFFCURVE"
);
}
);
width = 713;
}
);
unicode = 0059;
userData = {
com.fontlab.hintData = {
hhints = (
{
position = -163;
width = 164;
},
{
position = 1427;
width = 215;
}
);
vhints = (
{
position = -101;
width = 163;
}
);
};
};
},
{
glyphname = Z;
lastChange = "2016-06-28 18:16:27 +0000";
layers = (
{
layerId = "85E06A60-3AC8-4D41-9F91-737269C30490";
paths = (
{
closed = 1;
nodes = (
"468 641 LINE",
"452 641 OFFCURVE",
"436 640 OFFCURVE",
"420 640 CURVE SMOOTH",
"341 640 OFFCURVE",
"286 657 OFFCURVE",
"229 671 CURVE SMOOTH",
"221 674 OFFCURVE",
"214 675 OFFCURVE",
"207 675 CURVE SMOOTH",
"137 675 OFFCURVE",
"147 541 OFFCURVE",
"83 541 CURVE SMOOTH",
"68 541 OFFCURVE",
"65 555 OFFCURVE",
"65 570 CURVE SMOOTH",
"65 676 OFFCURVE",
"112 797 OFFCURVE",
"211 797 CURVE SMOOTH",
"297 797 OFFCURVE",
"351 757 OFFCURVE",
"437 755 CURVE SMOOTH",
"449 755 OFFCURVE",
"460 755 OFFCURVE",
"471 755 CURVE SMOOTH",
"501 755 LINE SMOOTH",
"556 755 OFFCURVE",
"596 761 OFFCURVE",
"637 761 CURVE SMOOTH",
"666 761 OFFCURVE",
"676 739 OFFCURVE",
"676 710 CURVE SMOOTH",
"676 678 OFFCURVE",
"668 667 OFFCURVE",
"645 654 CURVE",
"487 520 OFFCURVE",
"362 366 OFFCURVE",
"248 198 CURVE SMOOTH",
"239 182 OFFCURVE",
"232 172 OFFCURVE",
"229 167 CURVE",
"226 156 LINE",
"269 156 OFFCURVE",
"319 104 OFFCURVE",
"372 104 CURVE SMOOTH",
"488 104 OFFCURVE",
"552 138 OFFCURVE",
"624 167 CURVE SMOOTH",
"631 171 OFFCURVE",
"638 175 OFFCURVE",
"645 175 CURVE SMOOTH",
"676 175 OFFCURVE",
"701 142 OFFCURVE",
"701 111 CURVE SMOOTH",
"701 100 OFFCURVE",
"699 90 OFFCURVE",
"692 84 CURVE SMOOTH",
"621 37 OFFCURVE",
"507 -15 OFFCURVE",
"377 -15 CURVE SMOOTH",
"333 -15 OFFCURVE",
"289 10 OFFCURVE",
"247 27 CURVE SMOOTH",
"222 38 OFFCURVE",
"193 51 OFFCURVE",
"160 66 CURVE",
"135 44 OFFCURVE",
"104 25 OFFCURVE",
"65 25 CURVE SMOOTH",
"32 25 OFFCURVE",
"6 43 OFFCURVE",
"6 76 CURVE SMOOTH",
"6 116 OFFCURVE",
"36 144 OFFCURVE",
"61 172 CURVE SMOOTH"
);
}
);
width = 618;
}
);
unicode = 005A;
userData = {
com.fontlab.hintData = {
hhints = (
{
position = -30;
width = 243;
},
{
position = 1312;
width = 234;
},
{
position = 1382;
width = 251;
}
);
};
};
},
{
glyphname = K.alt;
lastChange = "2016-06-28 18:16:27 +0000";
layers = (
{
layerId = "85E06A60-3AC8-4D41-9F91-737269C30490";
paths = (
{
closed = 1;
nodes = (
"494 797 CURVE SMOOTH",
"494 688 OFFCURVE",
"477 588 OFFCURVE",
"471 484 CURVE",
"685 484 OFFCURVE",
"754 587 OFFCURVE",
"783 750 CURVE SMOOTH",
"794 813 OFFCURVE",
"787 828 OFFCURVE",
"846 828 CURVE SMOOTH",
"894 828 OFFCURVE",
"911 805 OFFCURVE",
"911 769 CURVE SMOOTH",
"911 761 OFFCURVE",
"910 752 OFFCURVE",
"908 743 CURVE SMOOTH",
"874 541 OFFCURVE",
"806 391 OFFCURVE",
"544 391 CURVE",
"623 188 OFFCURVE",
"702 -91 OFFCURVE",
"903 -91 CURVE SMOOTH",
"977 -91 OFFCURVE",
"1041 -78 OFFCURVE",
"1083 -63 CURVE SMOOTH",
"1099 -58 OFFCURVE",
"1110 -53 OFFCURVE",
"1120 -53 CURVE SMOOTH",
"1147 -53 OFFCURVE",
"1157 -78 OFFCURVE",
"1157 -104 CURVE SMOOTH",
"1157 -129 OFFCURVE",
"1148 -157 OFFCURVE",
"1140 -159 CURVE SMOOTH",
"1075 -179 OFFCURVE",
"995 -200 OFFCURVE",
"891 -200 CURVE SMOOTH",
"595 -200 OFFCURVE",
"521 125 OFFCURVE",
"439 344 CURVE",
"399 189 OFFCURVE",
"338 46 OFFCURVE",
"209 -10 CURVE SMOOTH",
"176 -24 OFFCURVE",
"141 -31 OFFCURVE",
"104 -31 CURVE SMOOTH",
"59 -31 OFFCURVE",
"-47 -24 OFFCURVE",
"-47 18 CURVE SMOOTH",
"-47 48 OFFCURVE",
"-15 96 OFFCURVE",
"15 96 CURVE SMOOTH",
"38 96 OFFCURVE",
"60 78 OFFCURVE",
"87 78 CURVE SMOOTH",
"240 78 OFFCURVE",
"290 292 OFFCURVE",
"319 422 CURVE SMOOTH",
"340 516 OFFCURVE",
"355 622 OFFCURVE",
"366 725 CURVE",
"372 766 LINE",
"230 766 OFFCURVE",
"127 674 OFFCURVE",
"127 536 CURVE SMOOTH",
"127 509 OFFCURVE",
"96 500 OFFCURVE",
"66 500 CURVE SMOOTH",
"27 500 OFFCURVE",
"-14 508 OFFCURVE",
"-14 542 CURVE SMOOTH",
"-14 547 LINE SMOOTH",
"-14 763 OFFCURVE",
"219 844 OFFCURVE",
"432 844 CURVE SMOOTH",
"468 844 OFFCURVE",
"494 831 OFFCURVE"
);
}
);
width = 889;
}
);
userData = {
com.fontlab.hintData = {
hhints = (
{
position = -410;
width = 224;
},
{
position = -64;
width = 224;
},
{
position = 800;
width = 192;
},
{
position = 1568;
width = 160;
}
);
vhints = (
{
position = -28;
width = 288;
}
);
};
};
},
{
glyphname = a;
lastChange = "2016-06-28 18:16:27 +0000";
layers = (
{
layerId = "85E06A60-3AC8-4D41-9F91-737269C30490";
paths = (
{
closed = 1;
nodes = (
"156 158 CURVE SMOOTH",
"156 127 OFFCURVE",
"163 94 OFFCURVE",
"194 94 CURVE SMOOTH",
"247 94 OFFCURVE",
"269 186 OFFCURVE",
"278 231 CURVE SMOOTH",
"308 375 LINE",
"217 375 OFFCURVE",
"156 248 OFFCURVE"
);
},
{
closed = 1;
nodes = (
"391 158 CURVE SMOOTH",
"391 134 OFFCURVE",
"392 109 OFFCURVE",
"413 109 CURVE SMOOTH",
"458 109 OFFCURVE",
"496 164 OFFCURVE",
"519 195 CURVE SMOOTH",
"526 203 OFFCURVE",
"533 207 OFFCURVE",
"539 207 CURVE SMOOTH",
"559 207 OFFCURVE",
"570 167 OFFCURVE",
"570 140 CURVE SMOOTH",
"570 133 OFFCURVE",
"569 126 OFFCURVE",
"567 122 CURVE",
"534 73 OFFCURVE",
"474 0 OFFCURVE",
"397 0 CURVE SMOOTH",
"345 0 OFFCURVE",
"323 36 OFFCURVE",
"306 79 CURVE",
"275 42 OFFCURVE",
"220 0 OFFCURVE",
"154 0 CURVE SMOOTH",
"78 0 OFFCURVE",
"31 60 OFFCURVE",
"31 137 CURVE SMOOTH",
"31 285 OFFCURVE",
"125 407 OFFCURVE",
"229 453 CURVE SMOOTH",
"250 463 OFFCURVE",
"272 468 OFFCURVE",
"294 468 CURVE SMOOTH",
"330 468 OFFCURVE",
"324 431 OFFCURVE",
"365 431 CURVE SMOOTH",
"372 431 OFFCURVE",
"379 431 OFFCURVE",
"387 431 CURVE SMOOTH",
"415 431 OFFCURVE",
"422 415 OFFCURVE",
"422 386 CURVE SMOOTH",
"422 306 OFFCURVE",
"391 239 OFFCURVE"
);
}
);
width = 453;
}
);
unicode = 0061;
userData = {
com.fontlab.hintData = {
hhints = (
{
position = 0;
width = 224;
},
{
position = 0;
width = 192;
},
{
position = 768;
width = 190;
}
);
vhints = (
{
position = 64;
width = 256;
}
);
};
};
},
{
glyphname = ae;
lastChange = "2016-06-28 18:16:27 +0000";
layers = (
{
layerId = "85E06A60-3AC8-4D41-9F91-737269C30490";
paths = (
{
closed = 1;
nodes = (
"156 158 CURVE SMOOTH",
"156 134 OFFCURVE",
"163 103 OFFCURVE",
"187 103 CURVE SMOOTH",
"238 103 OFFCURVE",
"270 190 OFFCURVE",
"278 231 CURVE SMOOTH",
"308 375 LINE",
"217 375 OFFCURVE",
"156 248 OFFCURVE"
);
},
{
closed = 1;
nodes = (
"413 142 CURVE",
"422 113 OFFCURVE",
"438 94 OFFCURVE",
"474 94 CURVE SMOOTH",
"566 94 OFFCURVE",
"640 163 OFFCURVE",
"688 210 CURVE SMOOTH",
"692 214 OFFCURVE",
"698 216 OFFCURVE",
"704 216 CURVE SMOOTH",
"726 216 OFFCURVE",
"749 190 OFFCURVE",
"749 167 CURVE SMOOTH",
"749 158 OFFCURVE",
"745 150 OFFCURVE",
"737 142 CURVE SMOOTH",
"675 76 OFFCURVE",
"589 0 OFFCURVE",
"466 0 CURVE SMOOTH",
"396 0 OFFCURVE",
"345 39 OFFCURVE",
"316 103 CURVE",
"294 53 OFFCURVE",
"228 0 OFFCURVE",
"154 0 CURVE SMOOTH",
"78 0 OFFCURVE",
"31 64 OFFCURVE",
"31 147 CURVE SMOOTH",
"31 296 OFFCURVE",
"145 468 OFFCURVE",
"294 468 CURVE SMOOTH",
"328 468 OFFCURVE",
"323 444 OFFCURVE",
"365 411 CURVE",
"396 447 OFFCURVE",
"436 468 OFFCURVE",
"482 468 CURVE SMOOTH",
"557 468 OFFCURVE",
"610 421 OFFCURVE",
"610 346 CURVE SMOOTH",
"610 237 OFFCURVE",
"501 166 OFFCURVE"
);
},
{
closed = 1;
nodes = (
"523 331 CURVE SMOOTH",
"523 357 OFFCURVE",
"511 376 OFFCURVE",
"488 376 CURVE SMOOTH",
"425 376 OFFCURVE",
"402 280 OFFCURVE",
"402 213 CURVE",
"441 229 OFFCURVE",
"523 272 OFFCURVE"
);
}
);
width = 620;
}
);
unicode = 00E6;
userData = {
com.fontlab.hintData = {
hhints = (
{
position = 0;
width = 210;
},
{
position = 0;
width = 192;
},
{
position = 771;
width = 188;
}
);
vhints = (
{
position = 64;
width = 256;
},
{
position = 1072;
width = 178;
}
);
};
};
},
{
glyphname = b;
lastChange = "2016-06-28 18:16:27 +0000";
layers = (
{
layerId = "85E06A60-3AC8-4D41-9F91-737269C30490";
paths = (
{
closed = 1;
nodes = (
"169 437 CURVE",
"227 548 OFFCURVE",
"325 649 OFFCURVE",
"325 805 CURVE SMOOTH",
"325 822 OFFCURVE",
"318 844 OFFCURVE",
"300 844 CURVE SMOOTH",
"223 844 OFFCURVE",
"180 498 OFFCURVE"
);
},
{
closed = 1;
nodes = (
"341 296 CURVE SMOOTH",
"341 338 OFFCURVE",
"320 357 OFFCURVE",
"277 357 CURVE SMOOTH",
"168 357 OFFCURVE",
"162 210 OFFCURVE",
"153 110 CURVE",
"180 102 OFFCURVE",
"211 94 OFFCURVE",
"245 94 CURVE SMOOTH",
"319 94 OFFCURVE",
"341 220 OFFCURVE"
);
},
{
closed = 1;
nodes = (
"419 777 CURVE SMOOTH",
"419 617 OFFCURVE",
"302 491 OFFCURVE",
"226 398 CURVE",
"233 393 LINE",
"257 423 OFFCURVE",
"288 469 OFFCURVE",
"329 469 CURVE SMOOTH",
"417 469 OFFCURVE",
"451 390 OFFCURVE",
"451 302 CURVE SMOOTH",
"451 235 OFFCURVE",
"434 177 OFFCURVE",
"403 141 CURVE",
"459 172 OFFCURVE",
"510 199 OFFCURVE",
"555 242 CURVE",
"560 244 OFFCURVE",
"564 246 OFFCURVE",
"568 246 CURVE SMOOTH",
"588 246 OFFCURVE",
"603 222 OFFCURVE",
"603 198 CURVE SMOOTH",
"603 185 OFFCURVE",
"599 171 OFFCURVE",
"588 162 CURVE",
"521 108 OFFCURVE",
"454 69 OFFCURVE",
"356 47 CURVE",
"326 18 OFFCURVE",
"288 1 OFFCURVE",
"235 1 CURVE SMOOTH",
"155 1 OFFCURVE",
"86 34 OFFCURVE",
"37 67 CURVE SMOOTH",
"31 71 OFFCURVE",
"29 73 OFFCURVE",
"28 74 CURVE",
"37 312 OFFCURVE",
"81 548 OFFCURVE",
"146 738 CURVE SMOOTH",
"172 811 OFFCURVE",
"216 938 OFFCURVE",
"305 938 CURVE SMOOTH",
"399 938 OFFCURVE",
"419 871 OFFCURVE"
);
}
);
width = 471;
}
);
unicode = 0062;
userData = {
com.fontlab.hintData = {
hhints = (
{
position = 2;
width = 190;
},
{
position = 732;
width = 228;
},
{
position = 1728;
width = 192;
}
);
vhints = (
{
position = 666;
width = 192;
},
{
position = 698;
width = 226;
}
);
};
};
},
{
glyphname = c;
lastChange = "2016-06-28 18:16:27 +0000";
layers = (
{
layerId = "85E06A60-3AC8-4D41-9F91-737269C30490";
paths = (
{
closed = 1;
nodes = (
"231 469 CURVE SMOOTH",
"309 469 OFFCURVE",
"375 428 OFFCURVE",
"375 361 CURVE SMOOTH",
"375 333 OFFCURVE",
"354 317 OFFCURVE",
"331 317 CURVE SMOOTH",
"282 317 OFFCURVE",
"289 383 OFFCURVE",
"227 383 CURVE SMOOTH",
"197 383 OFFCURVE",
"156 333 OFFCURVE",
"156 202 CURVE SMOOTH",
"156 145 OFFCURVE",
"176 94 OFFCURVE",
"234 94 CURVE SMOOTH",
"322 94 OFFCURVE",
"376 167 OFFCURVE",
"417 218 CURVE SMOOTH",
"426 229 OFFCURVE",
"434 233 OFFCURVE",
"440 233 CURVE SMOOTH",
"453 233 OFFCURVE",
"465 204 OFFCURVE",
"465 185 CURVE SMOOTH",
"465 172 OFFCURVE",
"462 160 OFFCURVE",
"456 151 CURVE SMOOTH",
"418 98 OFFCURVE",
"334 0 OFFCURVE",
"213 0 CURVE SMOOTH",
"97 0 OFFCURVE",
"31 86 OFFCURVE",
"31 202 CURVE SMOOTH",
"31 333 OFFCURVE",
"102 469 OFFCURVE"
);
}
);
width = 369;
}
);
unicode = 0063;
userData = {
com.fontlab.hintData = {
hhints = (
{
position = 0;
width = 192;
},
{
position = 784;
width = 176;
}
);
vhints = (
{
position = 64;
width = 256;
}
);
};
};
},
{
glyphname = d;
lastChange = "2016-06-28 18:16:27 +0000";
layers = (
{
layerId = "85E06A60-3AC8-4D41-9F91-737269C30490";
paths = (
{
closed = 1;
nodes = (
"500 777 CURVE SMOOTH",
"500 801 OFFCURVE",
"500 824 OFFCURVE",
"482 824 CURVE SMOOTH",
"390 824 OFFCURVE",
"385 458 OFFCURVE",
"385 373 CURVE SMOOTH",
"385 348 LINE",
"438 467 OFFCURVE",
"500 613 OFFCURVE"
);
},
{
closed = 1;
nodes = (
"407 191 CURVE SMOOTH",
"407 144 OFFCURVE",
"416 101 OFFCURVE",
"464 101 CURVE SMOOTH",
"510 101 OFFCURVE",
"562 151 OFFCURVE",
"592 179 CURVE SMOOTH",
"607 190 OFFCURVE",
"617 198 OFFCURVE",
"626 198 CURVE SMOOTH",
"644 198 OFFCURVE",
"651 166 OFFCURVE",
"651 140 CURVE SMOOTH",
"651 126 OFFCURVE",
"649 114 OFFCURVE",
"644 109 CURVE SMOOTH",
"583 52 OFFCURVE",
"509 0 OFFCURVE",
"419 0 CURVE SMOOTH",
"364 0 OFFCURVE",
"328 44 OFFCURVE",
"310 87 CURVE",
"271 48 OFFCURVE",
"215 0 OFFCURVE",
"141 0 CURVE SMOOTH",
"56 0 OFFCURVE",
"17 76 OFFCURVE",
"17 161 CURVE SMOOTH",
"17 313 OFFCURVE",
"128 429 OFFCURVE",
"266 442 CURVE",
"271 634 OFFCURVE",
"324 839 OFFCURVE",
"444 918 CURVE SMOOTH",
"463 931 OFFCURVE",
"483 938 OFFCURVE",
"504 938 CURVE SMOOTH",
"572 938 OFFCURVE",
"588 863 OFFCURVE",
"588 794 CURVE SMOOTH",
"588 582 OFFCURVE",
"486 431 OFFCURVE",
"421 275 CURVE SMOOTH",
"412 253 OFFCURVE",
"407 221 OFFCURVE"
);
},
{
closed = 1;
nodes = (
"134 150 CURVE SMOOTH",
"134 117 OFFCURVE",
"145 93 OFFCURVE",
"173 93 CURVE SMOOTH",
"219 93 OFFCURVE",
"254 134 OFFCURVE",
"275 161 CURVE",
"273 174 OFFCURVE",
"268 369 OFFCURVE",
"268 369 CURVE",
"199 335 OFFCURVE",
"134 249 OFFCURVE"
);
}
);
width = 560;
}
);
unicode = 0064;
userData = {
com.fontlab.hintData = {
hhints = (
{
position = 0;
width = 191;
},
{
position = 1;
width = 206;
},
{
position = 1688;
width = 232;
}
);
vhints = (
{
position = 35;
width = 240;
},
{
position = 549;
width = 240;
},
{
position = 564;
width = 269;
},
{
position = 1025;
width = 180;
}
);
};
};
},
{
glyphname = eth;
lastChange = "2016-06-28 18:16:27 +0000";
layers = (
{
layerId = "85E06A60-3AC8-4D41-9F91-737269C30490";
paths = (
{
closed = 1;
nodes = (
"142 203 CURVE SMOOTH",
"142 130 OFFCURVE",
"189 94 OFFCURVE",
"265 94 CURVE SMOOTH",
"358 94 OFFCURVE",
"398 273 OFFCURVE",
"414 356 CURVE",
"389 368 OFFCURVE",
"361 375 OFFCURVE",
"323 375 CURVE SMOOTH",
"229 375 OFFCURVE",
"142 296 OFFCURVE"
);
},
{
closed = 1;
nodes = (
"363 676 LINE",
"328 713 OFFCURVE",
"278 735 OFFCURVE",
"208 735 CURVE SMOOTH",
"184 735 OFFCURVE",
"169 765 OFFCURVE",
"169 790 CURVE SMOOTH",
"169 828 OFFCURVE",
"200 844 OFFCURVE",
"240 844 CURVE SMOOTH",
"353 844 OFFCURVE",
"425 791 OFFCURVE",
"474 724 CURVE",
"555 759 LINE SMOOTH",
"562 762 OFFCURVE",
"570 765 OFFCURVE",
"580 765 CURVE SMOOTH",
"605 765 OFFCURVE",
"619 742 OFFCURVE",
"619 716 CURVE SMOOTH",
"619 690 OFFCURVE",
"600 677 OFFCURVE",
"577 667 CURVE SMOOTH",
"519 642 LINE",
"538 592 OFFCURVE",
"550 534 OFFCURVE",
"550 468 CURVE SMOOTH",
"550 260 OFFCURVE",
"479 79 OFFCURVE",
"333 17 CURVE SMOOTH",
"307 5 OFFCURVE",
"279 0 OFFCURVE",
"249 0 CURVE SMOOTH",
"123 0 OFFCURVE",
"31 75 OFFCURVE",
"31 203 CURVE SMOOTH",
"31 338 OFFCURVE",
"145 437 OFFCURVE",
"247 472 CURVE SMOOTH",
"270 480 OFFCURVE",
"292 484 OFFCURVE",
"315 484 CURVE SMOOTH",
"358 484 OFFCURVE",
"394 479 OFFCURVE",
"426 469 CURVE",
"426 473 LINE SMOOTH",
"426 519 OFFCURVE",
"420 559 OFFCURVE",
"409 594 CURVE",
"378 581 OFFCURVE",
"349 568 OFFCURVE",
"319 555 CURVE SMOOTH",
"312 551 OFFCURVE",
"304 550 OFFCURVE",
"297 550 CURVE SMOOTH",
"271 550 OFFCURVE",
"250 578 OFFCURVE",
"250 604 CURVE SMOOTH",
"250 624 OFFCURVE",
"264 633 OFFCURVE",
"282 641 CURVE SMOOTH"
);
}
);
width = 532;
}
);
unicode = 00F0;
userData = {
com.fontlab.hintData = {
hhints = (
{
position = 0;
width = 192;
},
{
position = 767;
width = 224;
},
{
position = 1506;
width = 223;
}
);
vhints = (
{
position = 64;
width = 226;
},
{
position = 872;
width = 254;
}
);
};
};
},
{
glyphname = e;
lastChange = "2016-06-28 18:16:27 +0000";
layers = (
{
layerId = "85E06A60-3AC8-4D41-9F91-737269C30490";
paths = (
{
closed = 1;
nodes = (
"265 331 CURVE SMOOTH",
"265 357 OFFCURVE",
"253 376 OFFCURVE",
"229 376 CURVE SMOOTH",
"167 376 OFFCURVE",
"144 280 OFFCURVE",
"144 213 CURVE",
"183 229 OFFCURVE",
"265 272 OFFCURVE"
);
},
{
closed = 1;
nodes = (
"383 88 CURVE",
"324 41 OFFCURVE",
"250 10 OFFCURVE",
"185 10 CURVE SMOOTH",
"97 10 OFFCURVE",
"24 65 OFFCURVE",
"24 204 CURVE",
"24 335 OFFCURVE",
"93 468 OFFCURVE",
"224 468 CURVE SMOOTH",
"299 468 OFFCURVE",
"352 421 OFFCURVE",
"352 346 CURVE SMOOTH",
"352 237 OFFCURVE",
"243 166 OFFCURVE",
"155 142 CURVE",
"166 105 OFFCURVE",
"189 92 OFFCURVE",
"216 92 CURVE SMOOTH",
"272 92 OFFCURVE",
"345 145 OFFCURVE",
"373 167 CURVE",
"383 176 OFFCURVE",
"393 181 OFFCURVE",
"400 181 CURVE SMOOTH",
"413 181 OFFCURVE",
"421 170 OFFCURVE",
"421 155 CURVE SMOOTH",
"421 138 OFFCURVE",
"411 113 OFFCURVE"
);
}
);
width = 361;
}
);
unicode = 0065;
userData = {
com.fontlab.hintData = {
hhints = (
{
position = 21;
width = 168;
},
{
position = 771;
width = 188;
}
);
vhints = (
{
position = 50;
width = 244;
},
{
position = 543;
width = 178;
}
);
};
};
},
{
glyphname = f;
lastChange = "2016-06-28 18:16:27 +0000";
layers = (
{
layerId = "85E06A60-3AC8-4D41-9F91-737269C30490";
paths = (
{
closed = 1;
nodes = (
"388 747 CURVE SMOOTH",
"388 773 OFFCURVE",
"384 796 OFFCURVE",
"364 796 CURVE SMOOTH",
"252 796 OFFCURVE",
"174 378 OFFCURVE",
"161 335 CURVE",
"237 429 OFFCURVE",
"388 618 OFFCURVE"
);
},
{
closed = 1;
nodes = (
"147 -185 CURVE SMOOTH",
"206 -185 OFFCURVE",
"206 -84 OFFCURVE",
"206 -30 CURVE SMOOTH",
"206 -28 LINE SMOOTH",
"206 91 OFFCURVE",
"175 188 OFFCURVE",
"140 255 CURVE",
"135 161 OFFCURVE",
"126 70 OFFCURVE",
"126 -23 CURVE SMOOTH",
"126 -91 OFFCURVE",
"128 -185 OFFCURVE"
);
},
{
closed = 1;
nodes = (
"483 318 CURVE SMOOTH",
"483 221 OFFCURVE",
"350 212 OFFCURVE",
"251 208 CURVE",
"278 149 OFFCURVE",
"309 75 OFFCURVE",
"309 -14 CURVE SMOOTH",
"309 -130 OFFCURVE",
"259 -295 OFFCURVE",
"132 -295 CURVE SMOOTH",
"30 -295 OFFCURVE",
"17 -135 OFFCURVE",
"17 -19 CURVE SMOOTH",
"17 254 OFFCURVE",
"110 906 OFFCURVE",
"382 906 CURVE SMOOTH",
"443 906 OFFCURVE",
"479 860 OFFCURVE",
"479 793 CURVE SMOOTH",
"479 607 OFFCURVE",
"313 407 OFFCURVE",
"217 294 CURVE",
"231 290 OFFCURVE",
"254 287 OFFCURVE",
"273 287 CURVE SMOOTH",
"354 287 OFFCURVE",
"390 312 OFFCURVE",
"457 349 CURVE SMOOTH",
"460 351 OFFCURVE",
"463 352 OFFCURVE",
"466 352 CURVE SMOOTH",
"477 352 OFFCURVE",
"483 337 OFFCURVE"
);
}
);
width = 335;
}
);
unicode = 0066;
userData = {
com.fontlab.hintData = {
hhints = (
{
position = -604;
width = 225;
},
{
position = 427;
width = 160;
},
{
position = 1631;
width = 225;
}
);
vhints = (
{
position = 34;
width = 225;
},
{
position = 422;
width = 211;
},
{
position = 795;
width = 187;
}
);
};
};
},
{
glyphname = g;
lastChange = "2016-06-28 18:16:27 +0000";
layers = (
{
layerId = "85E06A60-3AC8-4D41-9F91-737269C30490";
paths = (
{
closed = 1;
nodes = (
"62 -359 CURVE SMOOTH",
"157 -359 OFFCURVE",
"196 -204 OFFCURVE",
"212 -125 CURVE",
"147 -168 OFFCURVE",
"81 -239 OFFCURVE",
"49 -313 CURVE SMOOTH",
"44 -324 OFFCURVE",
"42 -334 OFFCURVE",
"42 -341 CURVE SMOOTH",
"42 -354 OFFCURVE",
"48 -359 OFFCURVE"
);
},
{
closed = 1;
nodes = (
"134 158 CURVE SMOOTH",
"134 127 OFFCURVE",
"141 94 OFFCURVE",
"172 94 CURVE SMOOTH",
"225 94 OFFCURVE",
"247 186 OFFCURVE",
"256 231 CURVE SMOOTH",
"286 375 LINE",
"194 375 OFFCURVE",
"134 248 OFFCURVE"
);
},
{
closed = 1;
nodes = (
"56 -453 CURVE SMOOTH",
"-11 -453 OFFCURVE",
"-54 -425 OFFCURVE",
"-54 -356 CURVE SMOOTH",
"-54 -287 OFFCURVE",
"0 -228 OFFCURVE",
"35 -185 CURVE SMOOTH",
"91 -116 OFFCURVE",
"159 -51 OFFCURVE",
"229 6 CURVE",
"242 51 LINE",
"214 27 OFFCURVE",
"176 -1 OFFCURVE",
"131 -1 CURVE SMOOTH",
"56 -1 OFFCURVE",
"9 60 OFFCURVE",
"9 137 CURVE SMOOTH",
"9 285 OFFCURVE",
"103 407 OFFCURVE",
"206 453 CURVE SMOOTH",
"228 463 OFFCURVE",
"250 468 OFFCURVE",
"272 468 CURVE SMOOTH",
"308 468 OFFCURVE",
"301 431 OFFCURVE",
"342 431 CURVE SMOOTH",
"350 431 OFFCURVE",
"357 431 OFFCURVE",
"364 431 CURVE SMOOTH",
"392 431 OFFCURVE",
"399 415 OFFCURVE",
"399 386 CURVE SMOOTH",
"399 274 OFFCURVE",
"372 175 OFFCURVE",
"353 70 CURVE",
"418 108 OFFCURVE",
"462 167 OFFCURVE",
"508 233 CURVE SMOOTH",
"510 235 OFFCURVE",
"512 237 OFFCURVE",
"515 237 CURVE SMOOTH",
"528 237 OFFCURVE",
"546 206 OFFCURVE",
"546 172 CURVE SMOOTH",
"546 156 OFFCURVE",
"542 139 OFFCURVE",
"531 125 CURVE SMOOTH",
"482 60 OFFCURVE",
"407 4 OFFCURVE",
"337 -38 CURVE",
"309 -206 OFFCURVE",
"263 -381 OFFCURVE",
"132 -438 CURVE SMOOTH",
"109 -448 OFFCURVE",
"83 -453 OFFCURVE"
);
}
);
width = 424;
}
);
unicode = 0067;
userData = {
com.fontlab.hintData = {
hhints = (
{
position = -928;
width = 192;
},
{
position = -2;
width = 194;
},
{
position = 768;
width = 190;
}
);
vhints = (
{
position = -110;
width = 196;
},
{
position = 18;
width = 256;
}
);
};
};
},
{
glyphname = h;
lastChange = "2016-06-28 18:16:27 +0000";
layers = (
{
layerId = "85E06A60-3AC8-4D41-9F91-737269C30490";
paths = (
{
closed = 1;
nodes = (
"153 347 CURVE",
"210 480 OFFCURVE",
"304 632 OFFCURVE",
"304 807 CURVE SMOOTH",
"304 832 OFFCURVE",
"300 844 OFFCURVE",
"294 844 CURVE SMOOTH",
"255 844 OFFCURVE",
"229 736 OFFCURVE",
"212 682 CURVE SMOOTH",
"181 583 OFFCURVE",
"163 465 OFFCURVE"
);
},
{
closed = 1;
nodes = (
"420 115 CURVE SMOOTH",
"485 115 OFFCURVE",
"521 199 OFFCURVE",
"574 199 CURVE SMOOTH",
"592 199 OFFCURVE",
"598 180 OFFCURVE",
"598 159 CURVE SMOOTH",
"598 134 OFFCURVE",
"591 106 OFFCURVE",
"587 104 CURVE SMOOTH",
"539 65 OFFCURVE",
"469 0 OFFCURVE",
"386 0 CURVE SMOOTH",
"323 0 OFFCURVE",
"282 49 OFFCURVE",
"282 110 CURVE SMOOTH",
"282 188 OFFCURVE",
"311 261 OFFCURVE",
"335 316 CURVE SMOOTH",
"339 324 OFFCURVE",
"341 328 OFFCURVE",
"342 329 CURVE",
"332 331 LINE",
"234 268 OFFCURVE",
"191 122 OFFCURVE",
"128 21 CURVE SMOOTH",
"120 9 OFFCURVE",
"112 0 OFFCURVE",
"94 0 CURVE SMOOTH",
"47 0 OFFCURVE",
"46 62 OFFCURVE",
"46 109 CURVE SMOOTH",
"46 377 OFFCURVE",
"64 663 OFFCURVE",
"167 833 CURVE SMOOTH",
"199 887 OFFCURVE",
"247 938 OFFCURVE",
"325 938 CURVE SMOOTH",
"385 938 OFFCURVE",
"403 896 OFFCURVE",
"403 830 CURVE SMOOTH",
"403 619 OFFCURVE",
"289 449 OFFCURVE",
"210 311 CURVE",
"220 304 LINE",
"262 358 OFFCURVE",
"312 422 OFFCURVE",
"370 460 CURVE SMOOTH",
"388 472 OFFCURVE",
"405 478 OFFCURVE",
"420 478 CURVE SMOOTH",
"449 478 OFFCURVE",
"463 455 OFFCURVE",
"463 424 CURVE SMOOTH",
"463 329 OFFCURVE",
"404 246 OFFCURVE",
"404 147 CURVE SMOOTH",
"404 131 OFFCURVE",
"406 115 OFFCURVE"
);
}
);
width = 488;
}
);
unicode = 0068;
userData = {
com.fontlab.hintData = {
hhints = (
{
position = 0;
width = 236;
},
{
position = 958;
width = 20;
},
{
position = 1729;
width = 191;
}
);
vhints = (
{
position = 577;
width = 250;
},
{
position = 622;
width = 204;
}
);
};
};
},
{
glyphname = i;
lastChange = "2016-06-28 18:16:27 +0000";
layers = (
{
layerId = "85E06A60-3AC8-4D41-9F91-737269C30490";
paths = (
{
closed = 1;
nodes = (
"219 532 CURVE SMOOTH",
"167 532 OFFCURVE",
"135 557 OFFCURVE",
"135 606 CURVE SMOOTH",
"135 657 OFFCURVE",
"177 688 OFFCURVE",
"230 688 CURVE SMOOTH",
"275 688 OFFCURVE",
"309 667 OFFCURVE",
"309 619 CURVE SMOOTH",
"309 564 OFFCURVE",
"272 532 OFFCURVE"
);
},
{
closed = 1;
nodes = (
"160 142 CURVE SMOOTH",
"160 117 OFFCURVE",
"162 94 OFFCURVE",
"185 94 CURVE SMOOTH",
"249 94 OFFCURVE",
"310 171 OFFCURVE",
"348 203 CURVE SMOOTH",
"354 208 OFFCURVE",
"359 211 OFFCURVE",
"362 211 CURVE SMOOTH",
"370 211 OFFCURVE",
"373 201 OFFCURVE",
"373 187 CURVE SMOOTH",
"373 158 OFFCURVE",
"359 114 OFFCURVE",
"348 104 CURVE SMOOTH",
"300 60 OFFCURVE",
"221 0 OFFCURVE",
"134 0 CURVE SMOOTH",
"70 0 OFFCURVE",
"43 35 OFFCURVE",
"43 98 CURVE SMOOTH",
"43 214 OFFCURVE",
"91 323 OFFCURVE",
"119 421 CURVE SMOOTH",
"125 453 OFFCURVE",
"160 469 OFFCURVE",
"191 469 CURVE SMOOTH",
"214 469 OFFCURVE",
"226 461 OFFCURVE",
"226 441 CURVE SMOOTH",
"226 339 OFFCURVE",
"160 251 OFFCURVE"
);
}
);
width = 260;
}
);
unicode = 0069;
userData = {
com.fontlab.hintData = {
hhints = (
{
position = 0;
width = 192;
},
{
position = 940;
width = 20;
},
{
position = 1089;
width = 319;
}
);
vhints = (
{
position = 88;
width = 239;
},
{
position = 276;
width = 356;
}
);
};
};
},
{
glyphname = dotlessi;
lastChange = "2016-06-28 18:16:27 +0000";
layers = (
{
layerId = "85E06A60-3AC8-4D41-9F91-737269C30490";
paths = (
{
closed = 1;
nodes = (
"172 142 CURVE SMOOTH",
"172 117 OFFCURVE",
"174 94 OFFCURVE",
"197 94 CURVE SMOOTH",
"261 94 OFFCURVE",
"321 172 OFFCURVE",
"359 203 CURVE",
"359 104 LINE",
"311 59 OFFCURVE",
"228 0 OFFCURVE",
"138 0 CURVE SMOOTH",
"74 0 OFFCURVE",
"47 35 OFFCURVE",
"47 98 CURVE SMOOTH",
"47 214 OFFCURVE",
"89 323 OFFCURVE",
"113 421 CURVE SMOOTH",
"121 453 OFFCURVE",
"164 469 OFFCURVE",
"202 469 CURVE SMOOTH",
"226 469 OFFCURVE",
"237 461 OFFCURVE",
"237 441 CURVE SMOOTH",
"237 339 OFFCURVE",
"172 251 OFFCURVE"
);
}
);
width = 262;
}
);
unicode = 0131;
userData = {
com.fontlab.hintData = {
hhints = (
{
position = 0;
width = 192;
},
{
position = 213;
width = 203;
},
{
position = 940;
width = 20;
}
);
vhints = (
{
position = 96;
width = 256;
}
);
};
};
},
{
glyphname = j;
lastChange = "2016-06-28 18:16:27 +0000";
layers = (
{
layerId = "85E06A60-3AC8-4D41-9F91-737269C30490";
paths = (
{
closed = 1;
nodes = (
"202 532 CURVE SMOOTH",
"149 532 OFFCURVE",
"118 557 OFFCURVE",
"118 606 CURVE SMOOTH",
"118 657 OFFCURVE",
"160 688 OFFCURVE",
"213 688 CURVE SMOOTH",
"261 688 OFFCURVE",
"296 667 OFFCURVE",
"296 619 CURVE SMOOTH",
"296 564 OFFCURVE",
"258 532 OFFCURVE"
);
},
{
closed = 1;
nodes = (
"150 -188 CURVE SMOOTH",
"195 -188 OFFCURVE",
"197 -91 OFFCURVE",
"197 -33 CURVE SMOOTH",
"197 -16 LINE SMOOTH",
"197 72 OFFCURVE",
"170 146 OFFCURVE",
"149 218 CURVE",
"132 120 OFFCURVE",
"119 19 OFFCURVE",
"119 -94 CURVE SMOOTH",
"119 -126 OFFCURVE",
"124 -188 OFFCURVE"
);
},
{
closed = 1;
nodes = (
"248 188 CURVE",
"270 130 OFFCURVE",
"291 63 OFFCURVE",
"291 -16 CURVE SMOOTH",
"291 -137 OFFCURVE",
"257 -297 OFFCURVE",
"134 -297 CURVE SMOOTH",
"16 -297 OFFCURVE",
"9 -126 OFFCURVE",
"9 0 CURVE SMOOTH",
"9 136 OFFCURVE",
"45 289 OFFCURVE",
"83 400 CURVE SMOOTH",
"100 450 OFFCURVE",
"117 469 OFFCURVE",
"182 469 CURVE SMOOTH",
"202 469 OFFCURVE",
"214 455 OFFCURVE",
"214 437 CURVE SMOOTH",
"214 406 OFFCURVE",
"200 369 OFFCURVE",
"191 344 CURVE SMOOTH",
"164 266 LINE",
"271 283 OFFCURVE",
"344 290 OFFCURVE",
"431 328 CURVE SMOOTH",
"435 330 OFFCURVE",
"439 331 OFFCURVE",
"442 331 CURVE SMOOTH",
"454 331 OFFCURVE",
"459 318 OFFCURVE",
"459 302 CURVE SMOOTH",
"459 208 OFFCURVE",
"335 188 OFFCURVE"
);
}
);
width = 279;
}
);
unicode = 006A;
userData = {
com.fontlab.hintData = {
hhints = (
{
position = -608;
width = 224;
},
{
position = 940;
width = 20;
},
{
position = 1089;
width = 319;
}
);
vhints = (
{
position = 19;
width = 224;
},
{
position = 241;
width = 366;
},
{
position = 403;
width = 192;
}
);
};
};
},
{
glyphname = k;
lastChange = "2016-06-28 18:16:27 +0000";
layers = (
{
layerId = "85E06A60-3AC8-4D41-9F91-737269C30490";
paths = (
{
closed = 1;
nodes = (
"308 806 CURVE SMOOTH",
"308 818 OFFCURVE",
"301 823 OFFCURVE",
"290 823 CURVE SMOOTH",
"223 823 OFFCURVE",
"166 541 OFFCURVE",
"155 432 CURVE",
"207 571 OFFCURVE",
"245 609 OFFCURVE",
"294 744 CURVE SMOOTH",
"301 763 OFFCURVE",
"308 785 OFFCURVE"
);
},
{
closed = 1;
nodes = (
"92 -5 CURVE SMOOTH",
"49 -5 OFFCURVE",
"41 64 OFFCURVE",
"41 112 CURVE SMOOTH",
"41 379 OFFCURVE",
"72 658 OFFCURVE",
"174 829 CURVE SMOOTH",
"203 878 OFFCURVE",
"248 931 OFFCURVE",
"322 931 CURVE SMOOTH",
"387 931 OFFCURVE",
"406 887 OFFCURVE",
"406 823 CURVE SMOOTH",
"406 645 OFFCURVE",
"291 540 OFFCURVE",
"224 421 CURVE",
"159 328 LINE",
"144 195 LINE",
"199 306 OFFCURVE",
"284 459 OFFCURVE",
"399 459 CURVE SMOOTH",
"463 459 OFFCURVE",
"514 418 OFFCURVE",
"514 354 CURVE SMOOTH",
"514 264 OFFCURVE",
"450 201 OFFCURVE",
"373 156 CURVE SMOOTH",
"353 145 OFFCURVE",
"341 127 OFFCURVE",
"341 113 CURVE SMOOTH",
"341 100 OFFCURVE",
"351 90 OFFCURVE",
"371 90 CURVE SMOOTH",
"452 90 OFFCURVE",
"536 178 OFFCURVE",
"571 208 CURVE SMOOTH",
"572 210 OFFCURVE",
"574 210 OFFCURVE",
"576 210 CURVE SMOOTH",
"583 210 OFFCURVE",
"593 169 OFFCURVE",
"593 140 CURVE SMOOTH",
"593 128 OFFCURVE",
"591 119 OFFCURVE",
"585 113 CURVE SMOOTH",
"531 61 OFFCURVE",
"466 0 OFFCURVE",
"357 0 CURVE SMOOTH",
"298 0 OFFCURVE",
"235 37 OFFCURVE",
"235 95 CURVE SMOOTH",
"235 186 OFFCURVE",
"324 221 OFFCURVE",
"380 268 CURVE SMOOTH",
"398 283 OFFCURVE",
"406 299 OFFCURVE",
"406 313 CURVE SMOOTH",
"406 332 OFFCURVE",
"393 345 OFFCURVE",
"371 345 CURVE SMOOTH",
"325 345 OFFCURVE",
"277 269 OFFCURVE",
"259 237 CURVE SMOOTH",
"221 173 OFFCURVE",
"146 -5 OFFCURVE"
);
}
);
width = 487;
}
);
unicode = 006B;
userData = {
com.fontlab.hintData = {
hhints = (
{
position = -1;
width = 185;
},
{
position = 707;
width = 234;
},
{
position = 1685;
width = 222;
}
);
vhints = (
{
position = 482;
width = 217;
},
{
position = 631;
width = 201;
},
{
position = 831;
width = 222;
}
);
};
};
},
{
glyphname = l;
lastChange = "2016-06-28 18:16:27 +0000";
layers = (
{
layerId = "85E06A60-3AC8-4D41-9F91-737269C30490";
paths = (
{
closed = 1;
nodes = (
"341 778 CURVE SMOOTH",
"341 791 OFFCURVE",
"336 801 OFFCURVE",
"326 801 CURVE SMOOTH",
"216 801 OFFCURVE",
"175 476 OFFCURVE",
"175 361 CURVE",
"234 466 OFFCURVE",
"294 585 OFFCURVE",
"329 713 CURVE SMOOTH",
"335 736 OFFCURVE",
"341 758 OFFCURVE"
);
},
{
closed = 1;
nodes = (
"417 146 CURVE",
"388 64 OFFCURVE",
"271 0 OFFCURVE",
"179 0 CURVE SMOOTH",
"86 0 OFFCURVE",
"54 156 OFFCURVE",
"54 253 CURVE SMOOTH",
"54 487 OFFCURVE",
"110 721 OFFCURVE",
"215 854 CURVE SMOOTH",
"249 897 OFFCURVE",
"294 938 OFFCURVE",
"363 938 CURVE SMOOTH",
"419 938 OFFCURVE",
"433 884 OFFCURVE",
"433 827 CURVE SMOOTH",
"433 593 OFFCURVE",
"296 411 OFFCURVE",
"188 276 CURVE SMOOTH",
"181 267 OFFCURVE",
"180 243 OFFCURVE",
"180 225 CURVE SMOOTH",
"180 180 OFFCURVE",
"186 104 OFFCURVE",
"233 104 CURVE SMOOTH",
"280 104 OFFCURVE",
"337 163 OFFCURVE",
"372 199 CURVE",
"381 205 OFFCURVE",
"390 207 OFFCURVE",
"396 207 CURVE SMOOTH",
"409 207 OFFCURVE",
"417 182 OFFCURVE",
"417 158 CURVE SMOOTH",
"417 154 OFFCURVE",
"417 150 OFFCURVE"
);
}
);
width = 288;
}
);
unicode = 006C;
userData = {
com.fontlab.hintData = {
hhints = (
{
position = 0;
width = 214;
},
{
position = 1641;
width = 279;
}
);
vhints = (
{
position = 110;
width = 258;
},
{
position = 699;
width = 188;
}
);
};
};
},
{
glyphname = lslash;
lastChange = "2016-06-28 18:16:27 +0000";
layers = (
{
layerId = "85E06A60-3AC8-4D41-9F91-737269C30490";
paths = (
{
closed = 1;
nodes = (
"333 778 CURVE SMOOTH",
"333 791 OFFCURVE",
"329 801 OFFCURVE",
"318 801 CURVE SMOOTH",
"267 801 OFFCURVE",
"230 730 OFFCURVE",
"206 643 CURVE",
"239 650 OFFCURVE",
"273 657 OFFCURVE",
"307 664 CURVE",
"317 696 OFFCURVE",
"333 742 OFFCURVE"
);
},
{
closed = 1;
nodes = (
"172 225 CURVE SMOOTH",
"172 194 OFFCURVE",
"177 119 OFFCURVE",
"204 119 CURVE SMOOTH",
"244 119 OFFCURVE",
"280 149 OFFCURVE",
"306 166 CURVE SMOOTH",
"326 180 OFFCURVE",
"348 195 OFFCURVE",
"370 213 CURVE",
"410 111 LINE",
"349 67 OFFCURVE",
"288 24 OFFCURVE",
"207 5 CURVE SMOOTH",
"194 2 OFFCURVE",
"183 0 OFFCURVE",
"171 0 CURVE SMOOTH",
"79 0 OFFCURVE",
"46 156 OFFCURVE",
"46 253 CURVE SMOOTH",
"46 343 OFFCURVE",
"54 434 OFFCURVE",
"70 518 CURVE",
"50 513 OFFCURVE",
"30 509 OFFCURVE",
"11 505 CURVE SMOOTH",
"6 504 OFFCURVE",
"1 503 OFFCURVE",
"-2 503 CURVE SMOOTH",
"-32 503 OFFCURVE",
"-48 531 OFFCURVE",
"-48 559 CURVE SMOOTH",
"-48 604 OFFCURVE",
"43 611 OFFCURVE",
"95 620 CURVE",
"122 712 OFFCURVE",
"159 793 OFFCURVE",
"207 854 CURVE SMOOTH",
"241 897 OFFCURVE",
"287 938 OFFCURVE",
"355 938 CURVE SMOOTH",
"411 938 OFFCURVE",
"425 884 OFFCURVE",
"425 827 CURVE SMOOTH",
"425 778 OFFCURVE",
"418 730 OFFCURVE",
"407 686 CURVE",
"426 690 OFFCURVE",
"444 694 OFFCURVE",
"462 698 CURVE",
"467 700 OFFCURVE",
"472 700 OFFCURVE",
"478 700 CURVE SMOOTH",
"505 700 OFFCURVE",
"518 682 OFFCURVE",
"518 653 CURVE SMOOTH",
"518 604 OFFCURVE",
"463 603 OFFCURVE",
"419 593 CURVE SMOOTH",
"372 583 LINE",
"343 515 OFFCURVE",
"306 454 OFFCURVE",
"271 401 CURVE SMOOTH",
"242 356 OFFCURVE",
"211 314 OFFCURVE",
"181 276 CURVE SMOOTH",
"173 267 OFFCURVE",
"172 243 OFFCURVE"
);
},
{
closed = 1;
nodes = (
"184 542 CURVE",
"172 471 OFFCURVE",
"167 403 OFFCURVE",
"167 361 CURVE",
"202 423 OFFCURVE",
"237 489 OFFCURVE",
"267 560 CURVE",
"239 554 OFFCURVE",
"212 548 OFFCURVE"
);
}
);
width = 281;
}
);
unicode = 0142;
userData = {
com.fontlab.hintData = {
hhints = (
{
position = 0;
width = 244;
},
{
position = 1641;
width = 279;
}
);
vhints = (
{
position = 94;
width = 258;
},
{
position = 683;
width = 188;
}
);
};
};
},
{
glyphname = m;
lastChange = "2016-06-28 18:16:27 +0000";
layers = (
{
layerId = "85E06A60-3AC8-4D41-9F91-737269C30490";
paths = (
{
closed = 1;
nodes = (
"401 426 CURVE SMOOTH",
"401 399 OFFCURVE",
"374 256 OFFCURVE",
"374 255 CURVE",
"383 245 LINE",
"417 325 OFFCURVE",
"460 403 OFFCURVE",
"511 456 CURVE SMOOTH",
"519 465 OFFCURVE",
"530 469 OFFCURVE",
"543 469 CURVE SMOOTH",
"571 469 OFFCURVE",
"594 454 OFFCURVE",
"594 426 CURVE SMOOTH",
"594 383 OFFCURVE",
"572 209 OFFCURVE",
"572 155 CURVE SMOOTH",
"572 129 OFFCURVE",
"572 95 OFFCURVE",
"598 95 CURVE SMOOTH",
"627 95 OFFCURVE",
"671 139 OFFCURVE",
"697 170 CURVE SMOOTH",
"710 185 OFFCURVE",
"719 190 OFFCURVE",
"724 190 CURVE SMOOTH",
"736 190 OFFCURVE",
"740 163 OFFCURVE",
"740 136 CURVE SMOOTH",
"740 124 OFFCURVE",
"739 112 OFFCURVE",
"739 107 CURVE",
"690 63 OFFCURVE",
"641 5 OFFCURVE",
"554 5 CURVE SMOOTH",
"481 5 OFFCURVE",
"470 55 OFFCURVE",
"470 119 CURVE SMOOTH",
"470 195 OFFCURVE",
"479 267 OFFCURVE",
"500 337 CURVE",
"450 245 OFFCURVE",
"406 142 OFFCURVE",
"374 39 CURVE SMOOTH",
"366 14 OFFCURVE",
"348 6 OFFCURVE",
"317 6 CURVE SMOOTH",
"279 6 OFFCURVE",
"273 52 OFFCURVE",
"273 94 CURVE SMOOTH",
"273 177 OFFCURVE",
"294 251 OFFCURVE",
"310 331 CURVE",
"247 236 OFFCURVE",
"207 146 OFFCURVE",
"164 39 CURVE SMOOTH",
"155 17 OFFCURVE",
"141 6 OFFCURVE",
"115 6 CURVE SMOOTH",
"64 6 OFFCURVE",
"56 51 OFFCURVE",
"56 105 CURVE SMOOTH",
"56 217 OFFCURVE",
"78 333 OFFCURVE",
"106 423 CURVE SMOOTH",
"115 448 OFFCURVE",
"136 471 OFFCURVE",
"166 471 CURVE SMOOTH",
"191 471 OFFCURVE",
"210 454 OFFCURVE",
"210 427 CURVE SMOOTH",
"210 424 OFFCURVE",
"210 420 OFFCURVE",
"209 418 CURVE SMOOTH",
"196 359 OFFCURVE",
"179 294 OFFCURVE",
"171 255 CURVE",
"181 245 LINE",
"214 320 OFFCURVE",
"261 407 OFFCURVE",
"319 456 CURVE SMOOTH",
"330 464 OFFCURVE",
"341 469 OFFCURVE",
"354 469 CURVE SMOOTH",
"381 469 OFFCURVE",
"401 452 OFFCURVE"
);
}
);
width = 641;
}
);
unicode = 006D;
userData = {
com.fontlab.hintData = {
hhints = (
{
position = 11;
width = 183;
},
{
position = 940;
width = 20;
}
);
vhints = (
{
position = 218;
width = 212;
},
{
position = 559;
width = 206;
},
{
position = 963;
width = 208;
}
);
};
};
},
{
glyphname = n;
lastChange = "2016-06-28 18:16:27 +0000";
layers = (
{
layerId = "85E06A60-3AC8-4D41-9F91-737269C30490";
paths = (
{
closed = 1;
nodes = (
"488 81 CURVE SMOOTH",
"488 33 OFFCURVE",
"434 -6 OFFCURVE",
"387 -6 CURVE SMOOTH",
"316 -6 OFFCURVE",
"289 51 OFFCURVE",
"289 129 CURVE SMOOTH",
"289 185 OFFCURVE",
"296 237 OFFCURVE",
"304 289 CURVE",
"168 35 LINE",
"157 13 OFFCURVE",
"145 0 OFFCURVE",
"118 0 CURVE SMOOTH",
"64 0 OFFCURVE",
"56 49 OFFCURVE",
"56 102 CURVE SMOOTH",
"56 204 OFFCURVE",
"62 469 OFFCURVE",
"159 469 CURVE SMOOTH",
"179 469 OFFCURVE",
"193 452 OFFCURVE",
"193 427 CURVE SMOOTH",
"193 365 OFFCURVE",
"169 268 OFFCURVE",
"162 227 CURVE",
"200 299 OFFCURVE",
"260 469 OFFCURVE",
"361 469 CURVE SMOOTH",
"399 469 OFFCURVE",
"415 433 OFFCURVE",
"415 392 CURVE SMOOTH",
"415 303 OFFCURVE",
"387 201 OFFCURVE",
"387 146 CURVE SMOOTH",
"387 110 OFFCURVE",
"396 91 OFFCURVE",
"413 91 CURVE SMOOTH",
"434 91 OFFCURVE",
"442 105 OFFCURVE",
"462 105 CURVE SMOOTH",
"476 105 OFFCURVE",
"488 98 OFFCURVE"
);
}
);
width = 462;
}
);
unicode = 006E;
userData = {
com.fontlab.hintData = {
hhints = (
{
position = -12;
width = 199;
},
{
position = 940;
width = 20;
}
);
vhints = (
{
position = 592;
width = 201;
}
);
};
};
},
{
glyphname = o;
lastChange = "2016-06-28 18:16:27 +0000";
layers = (
{
layerId = "85E06A60-3AC8-4D41-9F91-737269C30490";
paths = (
{
closed = 1;
nodes = (
"219 313 CURVE SMOOTH",
"219 340 OFFCURVE",
"249 355 OFFCURVE",
"249 372 CURVE SMOOTH",
"249 374 OFFCURVE",
"246 375 OFFCURVE",
"241 375 CURVE SMOOTH",
"173 375 OFFCURVE",
"127 287 OFFCURVE",
"127 218 CURVE SMOOTH",
"127 153 OFFCURVE",
"148 94 OFFCURVE",
"213 94 CURVE SMOOTH",
"266 94 OFFCURVE",
"298 172 OFFCURVE",
"298 225 CURVE",
"266 243 OFFCURVE",
"219 268 OFFCURVE"
);
},
{
closed = 1;
nodes = (
"401 283 CURVE SMOOTH",
"423 283 OFFCURVE",
"438 360 OFFCURVE",
"467 360 CURVE SMOOTH",
"481 360 OFFCURVE",
"496 349 OFFCURVE",
"496 334 CURVE SMOOTH",
"496 271 OFFCURVE",
"435 199 OFFCURVE",
"385 199 CURVE",
"385 121 OFFCURVE",
"326 0 OFFCURVE",
"194 0 CURVE SMOOTH",
"81 0 OFFCURVE",
"33 101 OFFCURVE",
"33 213 CURVE SMOOTH",
"33 346 OFFCURVE",
"116 471 OFFCURVE",
"245 471 CURVE SMOOTH",
"328 471 OFFCURVE",
"389 404 OFFCURVE",
"389 302 CURVE SMOOTH",
"389 289 OFFCURVE",
"394 283 OFFCURVE"
);
}
);
width = 397;
}
);
unicode = 006F;
userData = {
com.fontlab.hintData = {
hhints = (
{
position = 0;
width = 192;
},
{
position = 407;
width = 172;
},
{
position = 768;
width = 197;
}
);
vhints = (
{
position = 67;
width = 194;
},
{
position = 611;
width = 177;
}
);
};
};
},
{
glyphname = oslash;
lastChange = "2016-06-28 18:16:27 +0000";
layers = (
{
layerId = "85E06A60-3AC8-4D41-9F91-737269C30490";
paths = (
{
closed = 1;
nodes = (
"220 95 CURVE",
"277 105 OFFCURVE",
"312 200 OFFCURVE",
"312 269 CURVE SMOOTH",
"312 303 OFFCURVE",
"304 333 OFFCURVE",
"290 351 CURVE",
"268 268 OFFCURVE",
"245 182 OFFCURVE"
);
},
{
closed = 1;
nodes = (
"224 373 LINE",
"165 355 OFFCURVE",
"126 269 OFFCURVE",
"126 193 CURVE SMOOTH",
"126 160 OFFCURVE",
"135 133 OFFCURVE",
"152 116 CURVE"
);
},
{
closed = 1;
nodes = (
"319 463 LINE",
"424 441 OFFCURVE",
"494 367 OFFCURVE",
"550 296 CURVE",
"541 227 LINE",
"499 283 OFFCURVE",
"425 332 OFFCURVE",
"366 371 CURVE",
"362 366 LINE",
"378 333 OFFCURVE",
"391 291 OFFCURVE",
"391 246 CURVE SMOOTH",
"391 120 OFFCURVE",
"316 0 OFFCURVE",
"192 0 CURVE",
"176 -53 LINE",
"169 -71 OFFCURVE",
"160 -88 OFFCURVE",
"136 -88 CURVE SMOOTH",
"116 -88 OFFCURVE",
"109 -77 OFFCURVE",
"109 -56 CURVE SMOOTH",
"109 -28 OFFCURVE",
"116 -11 OFFCURVE",
"124 16 CURVE",
"63 48 OFFCURVE",
"31 122 OFFCURVE",
"31 213 CURVE SMOOTH",
"31 357 OFFCURVE",
"114 462 OFFCURVE",
"251 468 CURVE",
"263 515 OFFCURVE",
"272 594 OFFCURVE",
"329 594 CURVE SMOOTH",
"344 594 OFFCURVE",
"344 574 OFFCURVE",
"344 559 CURVE SMOOTH",
"344 543 OFFCURVE",
"336 523 OFFCURVE",
"332 509 CURVE SMOOTH"
);
}
);
width = 426;
}
);
unicode = 00F8;
userData = {
com.fontlab.hintData = {
vhints = (
{
position = 64;
width = 194;
},
{
position = 224;
width = 136;
},
{
position = 638;
width = 162;
}
);
};
};
},
{
glyphname = oe;
lastChange = "2016-06-28 18:16:27 +0000";
layers = (
{
layerId = "85E06A60-3AC8-4D41-9F91-737269C30490";
paths = (
{
closed = 1;
nodes = (
"533 325 CURVE SMOOTH",
"533 347 OFFCURVE",
"524 375 OFFCURVE",
"505 375 CURVE SMOOTH",
"432 375 OFFCURVE",
"414 302 OFFCURVE",
"414 229 CURVE",
"462 229 OFFCURVE",
"533 278 OFFCURVE"
);
},
{
closed = 1;
nodes = (
"141 193 CURVE SMOOTH",
"141 140 OFFCURVE",
"158 94 OFFCURVE",
"211 94 CURVE SMOOTH",
"269 94 OFFCURVE",
"297 208 OFFCURVE",
"297 269 CURVE SMOOTH",
"297 317 OFFCURVE",
"287 375 OFFCURVE",
"240 375 CURVE SMOOTH",
"174 375 OFFCURVE",
"141 263 OFFCURVE"
);
},
{
closed = 1;
nodes = (
"486 104 CURVE SMOOTH",
"581 104 OFFCURVE",
"666 173 OFFCURVE",
"716 222 CURVE",
"779 157 LINE",
"709 84 OFFCURVE",
"615 0 OFFCURVE",
"479 0 CURVE SMOOTH",
"405 0 OFFCURVE",
"359 50 OFFCURVE",
"344 109 CURVE",
"318 58 OFFCURVE",
"266 0 OFFCURVE",
"192 0 CURVE SMOOTH",
"80 0 OFFCURVE",
"31 101 OFFCURVE",
"31 213 CURVE SMOOTH",
"31 329 OFFCURVE",
"103 423 OFFCURVE",
"185 458 CURVE SMOOTH",
"202 464 OFFCURVE",
"218 468 OFFCURVE",
"235 468 CURVE SMOOTH",
"297 468 OFFCURVE",
"333 425 OFFCURVE",
"359 375 CURVE",
"390 437 OFFCURVE",
"435 468 OFFCURVE",
"494 468 CURVE SMOOTH",
"569 468 OFFCURVE",
"623 421 OFFCURVE",
"623 346 CURVE SMOOTH",
"623 237 OFFCURVE",
"513 172 OFFCURVE",
"425 148 CURVE",
"438 125 OFFCURVE",
"452 104 OFFCURVE"
);
}
);
width = 635;
}
);
unicode = 0153;
userData = {
com.fontlab.hintData = {
hhints = (
{
position = 0;
width = 212;
},
{
position = 0;
width = 192;
},
{
position = 768;
width = 190;
}
);
vhints = (
{
position = 64;
width = 224;
},
{
position = 608;
width = 239;
},
{
position = 1091;
width = 184;
}
);
};
};
},
{
glyphname = p;
lastChange = "2016-06-28 18:16:27 +0000";
layers = (
{
layerId = "85E06A60-3AC8-4D41-9F91-737269C30490";
paths = (
{
closed = 1;
nodes = (
"232 118 CURVE",
"242 93 OFFCURVE",
"262 89 OFFCURVE",
"290 89 CURVE SMOOTH",
"391 89 OFFCURVE",
"456 179 OFFCURVE",
"491 233 CURVE SMOOTH",
"495 238 OFFCURVE",
"499 241 OFFCURVE",
"503 241 CURVE SMOOTH",
"521 241 OFFCURVE",
"544 196 OFFCURVE",
"544 170 CURVE SMOOTH",
"544 158 OFFCURVE",
"539 150 OFFCURVE",
"534 141 CURVE SMOOTH",
"465 26 OFFCURVE",
"383 13 OFFCURVE",
"285 13 CURVE SMOOTH",
"234 13 OFFCURVE",
"174 30 OFFCURVE",
"139 75 CURVE",
"128 25 OFFCURVE",
"100 -146 OFFCURVE",
"86 -194 CURVE",
"82 -217 OFFCURVE",
"38 -244 OFFCURVE",
"9 -244 CURVE SMOOTH",
"-7 -244 OFFCURVE",
"-19 -236 OFFCURVE",
"-19 -213 CURVE SMOOTH",
"-19 -211 OFFCURVE",
"-19 -209 OFFCURVE",
"-19 -208 CURVE SMOOTH",
"-4 -76 OFFCURVE",
"41 98 OFFCURVE",
"44 129 CURVE SMOOTH",
"57 277 OFFCURVE",
"109 469 OFFCURVE",
"297 469 CURVE SMOOTH",
"393 469 OFFCURVE",
"441 422 OFFCURVE",
"441 338 CURVE SMOOTH",
"441 230 OFFCURVE",
"354 158 OFFCURVE"
);
},
{
closed = 1;
nodes = (
"150 161 CURVE",
"238 188 OFFCURVE",
"346 247 OFFCURVE",
"346 331 CURVE SMOOTH",
"346 356 OFFCURVE",
"328 378 OFFCURVE",
"285 378 CURVE SMOOTH",
"176 378 OFFCURVE",
"158 239 OFFCURVE"
);
}
);
width = 438;
}
);
unicode = 0070;
userData = {
com.fontlab.hintData = {
hhints = (
{
position = 27;
width = 155;
},
{
position = 774;
width = 186;
}
);
vhints = (
{
position = 708;
width = 195;
}
);
};
};
},
{
glyphname = thorn;
lastChange = "2016-06-28 18:16:27 +0000";
layers = (
{
layerId = "85E06A60-3AC8-4D41-9F91-737269C30490";
paths = (
{
closed = 1;
nodes = (
"337 296 CURVE SMOOTH",
"337 338 OFFCURVE",
"316 357 OFFCURVE",
"274 357 CURVE SMOOTH",
"165 357 OFFCURVE",
"159 210 OFFCURVE",
"150 110 CURVE",
"177 102 OFFCURVE",
"208 94 OFFCURVE",
"242 94 CURVE SMOOTH",
"315 94 OFFCURVE",
"337 220 OFFCURVE"
);
},
{
closed = 1;
nodes = (
"179 762 CURVE SMOOTH",
"215 762 OFFCURVE",
"281 723 OFFCURVE",
"281 688 CURVE SMOOTH",
"281 679 OFFCURVE",
"238 679 OFFCURVE",
"237 672 CURVE SMOOTH",
"191 393 LINE",
"229 426 OFFCURVE",
"270 469 OFFCURVE",
"325 469 CURVE SMOOTH",
"405 469 OFFCURVE",
"447 397 OFFCURVE",
"447 317 CURVE SMOOTH",
"447 240 OFFCURVE",
"431 188 OFFCURVE",
"400 141 CURVE",
"454 172 OFFCURVE",
"503 199 OFFCURVE",
"547 242 CURVE",
"584 162 LINE",
"521 104 OFFCURVE",
"451 69 OFFCURVE",
"353 47 CURVE",
"332 26 OFFCURVE",
"297 12 OFFCURVE",
"267 0 CURVE",
"255 0 LINE SMOOTH",
"209 0 OFFCURVE",
"166 12 OFFCURVE",
"131 24 CURVE",
"70 -300 LINE",
"65 -324 OFFCURVE",
"54 -338 OFFCURVE",
"26 -338 CURVE SMOOTH",
"20 -338 OFFCURVE",
"15 -338 OFFCURVE",
"10 -338 CURVE SMOOTH",
"-19 -338 OFFCURVE",
"-32 -305 OFFCURVE",
"-32 -275 CURVE SMOOTH",
"-32 -81 OFFCURVE",
"22 94 OFFCURVE",
"54 273 CURVE SMOOTH",
"60 308 OFFCURVE",
"66 349 OFFCURVE",
"75 395 CURVE SMOOTH",
"88 473 OFFCURVE",
"108 559 OFFCURVE",
"125 641 CURVE SMOOTH",
"141 719 LINE SMOOTH",
"146 743 OFFCURVE",
"156 762 OFFCURVE"
);
}
);
width = 500;
}
);
unicode = 00FE;
userData = {
com.fontlab.hintData = {
hhints = (
{
position = 0;
width = 192;
},
{
position = 732;
width = 228;
}
);
vhints = (
{
position = 691;
width = 224;
}
);
};
};
},
{
glyphname = q;
lastChange = "2016-06-28 18:16:27 +0000";
layers = (
{
layerId = "85E06A60-3AC8-4D41-9F91-737269C30490";
paths = (
{
closed = 1;
nodes = (
"226 -266 CURVE SMOOTH",
"285 -266 OFFCURVE",
"293 -186 OFFCURVE",
"293 -125 CURVE SMOOTH",
"293 -77 OFFCURVE",
"288 -23 OFFCURVE",
"278 16 CURVE",
"276 12 OFFCURVE",
"273 3 OFFCURVE",
"270 -10 CURVE SMOOTH",
"256 -54 LINE SMOOTH",
"239 -109 OFFCURVE",
"208 -180 OFFCURVE",
"208 -243 CURVE SMOOTH",
"208 -255 OFFCURVE",
"214 -266 OFFCURVE"
);
},
{
closed = 1;
nodes = (
"247 375 CURVE SMOOTH",
"181 375 OFFCURVE",
"137 314 OFFCURVE",
"137 250 CURVE SMOOTH",
"137 191 OFFCURVE",
"160 145 OFFCURVE",
"215 141 CURVE",
"244 211 OFFCURVE",
"256 282 OFFCURVE",
"278 359 CURVE",
"271 366 OFFCURVE",
"260 375 OFFCURVE"
);
},
{
closed = 1;
nodes = (
"329 125 CURVE SMOOTH",
"329 109 OFFCURVE",
"335 94 OFFCURVE",
"356 94 CURVE SMOOTH",
"420 94 OFFCURVE",
"484 165 OFFCURVE",
"523 193 CURVE SMOOTH",
"537 204 OFFCURVE",
"547 207 OFFCURVE",
"554 207 CURVE SMOOTH",
"563 207 OFFCURVE",
"566 201 OFFCURVE",
"566 191 CURVE SMOOTH",
"566 162 OFFCURVE",
"535 101 OFFCURVE",
"528 94 CURVE SMOOTH",
"485 51 OFFCURVE",
"431 14 OFFCURVE",
"354 3 CURVE",
"363 -43 OFFCURVE",
"372 -104 OFFCURVE",
"372 -156 CURVE SMOOTH",
"372 -271 OFFCURVE",
"328 -359 OFFCURVE",
"215 -359 CURVE SMOOTH",
"158 -359 OFFCURVE",
"122 -309 OFFCURVE",
"122 -250 CURVE SMOOTH",
"122 -132 OFFCURVE",
"172 -22 OFFCURVE",
"200 78 CURVE",
"192 77 OFFCURVE",
"185 76 OFFCURVE",
"177 76 CURVE SMOOTH",
"84 76 OFFCURVE",
"28 157 OFFCURVE",
"28 250 CURVE SMOOTH",
"28 372 OFFCURVE",
"125 469 OFFCURVE",
"247 469 CURVE SMOOTH",
"332 469 OFFCURVE",
"386 424 OFFCURVE",
"386 341 CURVE SMOOTH",
"386 270 OFFCURVE",
"350 199 OFFCURVE",
"332 136 CURVE SMOOTH",
"330 129 OFFCURVE",
"329 125 OFFCURVE"
);
}
);
width = 398;
}
);
unicode = 0071;
userData = {
com.fontlab.hintData = {
hhints = (
{
position = -736;
width = 192;
},
{
position = 6;
width = 186;
},
{
position = 156;
width = 132;
},
{
position = 768;
width = 192;
}
);
vhints = (
{
position = 57;
width = 224;
},
{
position = 249;
width = 177;
},
{
position = 601;
width = 160;
}
);
};
};
},
{
glyphname = r;
lastChange = "2016-06-28 18:16:27 +0000";
layers = (
{
layerId = "85E06A60-3AC8-4D41-9F91-737269C30490";
paths = (
{
closed = 1;
nodes = (
"115 0 CURVE SMOOTH",
"62 0 OFFCURVE",
"53 49 OFFCURVE",
"53 102 CURVE SMOOTH",
"53 219 OFFCURVE",
"74 346 OFFCURVE",
"109 436 CURVE SMOOTH",
"118 459 OFFCURVE",
"125 469 OFFCURVE",
"157 469 CURVE SMOOTH",
"191 469 OFFCURVE",
"192 458 OFFCURVE",
"192 424 CURVE SMOOTH",
"192 381 LINE SMOOTH",
"192 364 OFFCURVE",
"193 347 OFFCURVE",
"193 330 CURVE",
"199 330 LINE",
"225 382 OFFCURVE",
"257 469 OFFCURVE",
"333 469 CURVE SMOOTH",
"361 469 OFFCURVE",
"381 451 OFFCURVE",
"381 423 CURVE SMOOTH",
"381 398 OFFCURVE",
"366 339 OFFCURVE",
"366 295 CURVE SMOOTH",
"366 255 OFFCURVE",
"384 242 OFFCURVE",
"408 242 CURVE SMOOTH",
"437 242 OFFCURVE",
"476 268 OFFCURVE",
"497 286 CURVE SMOOTH",
"503 291 OFFCURVE",
"510 292 OFFCURVE",
"515 292 CURVE SMOOTH",
"526 292 OFFCURVE",
"530 278 OFFCURVE",
"530 261 CURVE SMOOTH",
"530 232 OFFCURVE",
"512 195 OFFCURVE",
"512 195 CURVE",
"479 172 OFFCURVE",
"441 141 OFFCURVE",
"390 141 CURVE SMOOTH",
"293 141 OFFCURVE",
"276 225 OFFCURVE",
"265 310 CURVE",
"257 310 LINE",
"170 66 LINE SMOOTH",
"160 38 OFFCURVE",
"150 0 OFFCURVE"
);
}
);
width = 393;
}
);
unicode = 0072;
userData = {
com.fontlab.hintData = {
hhints = (
{
position = 288;
width = 207;
},
{
position = 940;
width = 20;
}
);
vhints = (
{
position = 223;
width = 171;
},
{
position = 543;
width = 206;
}
);
};
};
},
{
glyphname = s;
lastChange = "2016-06-28 18:16:27 +0000";
layers = (
{
layerId = "85E06A60-3AC8-4D41-9F91-737269C30490";
paths = (
{
closed = 1;
nodes = (
"118 121 LINE",
"143 121 OFFCURVE",
"157 74 OFFCURVE",
"191 74 CURVE SMOOTH",
"216 74 OFFCURVE",
"224 104 OFFCURVE",
"224 143 CURVE SMOOTH",
"224 180 OFFCURVE",
"208 225 OFFCURVE",
"197 250 CURVE"
);
},
{
closed = 1;
nodes = (
"203 -9 CURVE SMOOTH",
"127 -9 OFFCURVE",
"77 20 OFFCURVE",
"65 88 CURVE",
"57 86 OFFCURVE",
"48 85 OFFCURVE",
"39 85 CURVE SMOOTH",
"10 85 OFFCURVE",
"0 99 OFFCURVE",
"0 115 CURVE SMOOTH",
"0 136 OFFCURVE",
"19 158 OFFCURVE",
"30 173 CURVE SMOOTH",
"82 246 OFFCURVE",
"138 336 OFFCURVE",
"188 422 CURVE SMOOTH",
"202 446 OFFCURVE",
"224 469 OFFCURVE",
"262 469 CURVE SMOOTH",
"309 469 OFFCURVE",
"324 455 OFFCURVE",
"324 436 CURVE SMOOTH",
"324 414 OFFCURVE",
"305 386 OFFCURVE",
"293 365 CURVE SMOOTH",
"273 329 LINE",
"289 297 OFFCURVE",
"331 237 OFFCURVE",
"331 174 CURVE SMOOTH",
"331 151 OFFCURVE",
"325 128 OFFCURVE",
"310 105 CURVE",
"390 141 OFFCURVE",
"439 180 OFFCURVE",
"488 219 CURVE SMOOTH",
"492 222 OFFCURVE",
"496 223 OFFCURVE",
"500 223 CURVE SMOOTH",
"513 223 OFFCURVE",
"519 203 OFFCURVE",
"519 179 CURVE SMOOTH",
"519 151 OFFCURVE",
"515 139 OFFCURVE",
"503 129 CURVE SMOOTH",
"422 55 OFFCURVE",
"302 -9 OFFCURVE"
);
}
);
width = 373;
}
);
unicode = 0073;
userData = {
com.fontlab.hintData = {
hhints = (
{
position = -19;
width = 170;
},
{
position = 940;
width = 20;
}
);
vhints = (
{
position = 458;
width = 220;
}
);
};
};
},
{
glyphname = germandbls;
lastChange = "2016-06-28 18:16:27 +0000";
layers = (
{
layerId = "85E06A60-3AC8-4D41-9F91-737269C30490";
paths = (
{
closed = 1;
nodes = (
"161 78 CURVE SMOOTH",
"161 42 OFFCURVE",
"162 12 OFFCURVE",
"162 -19 CURVE SMOOTH",
"162 -57 OFFCURVE",
"131 -77 OFFCURVE",
"93 -77 CURVE SMOOTH",
"62 -77 OFFCURVE",
"31 -63 OFFCURVE",
"31 -33 CURVE SMOOTH",
"31 297 OFFCURVE",
"60 664 OFFCURVE",
"299 761 CURVE SMOOTH",
"331 774 OFFCURVE",
"367 780 OFFCURVE",
"407 780 CURVE SMOOTH",
"525 780 OFFCURVE",
"631 719 OFFCURVE",
"631 605 CURVE SMOOTH",
"631 479 OFFCURVE",
"530 416 OFFCURVE",
"402 413 CURVE",
"527 413 OFFCURVE",
"616 343 OFFCURVE",
"616 222 CURVE SMOOTH",
"616 79 OFFCURVE",
"482 1 OFFCURVE",
"334 1 CURVE SMOOTH",
"291 1 OFFCURVE",
"251 13 OFFCURVE",
"216 25 CURVE",
"229 114 LINE",
"252 107 OFFCURVE",
"280 103 OFFCURVE",
"309 103 CURVE SMOOTH",
"411 103 OFFCURVE",
"506 138 OFFCURVE",
"506 239 CURVE SMOOTH",
"506 354 OFFCURVE",
"405 329 OFFCURVE",
"326 364 CURVE SMOOTH",
"307 373 OFFCURVE",
"293 386 OFFCURVE",
"293 412 CURVE SMOOTH",
"293 455 OFFCURVE",
"301 469 OFFCURVE",
"343 469 CURVE SMOOTH",
"438 469 OFFCURVE",
"522 509 OFFCURVE",
"522 602 CURVE SMOOTH",
"522 662 OFFCURVE",
"469 686 OFFCURVE",
"408 686 CURVE SMOOTH",
"165 686 OFFCURVE",
"161 317 OFFCURVE"
);
}
);
width = 625;
}
);
unicode = 00DF;
userData = {
com.fontlab.hintData = {
hhints = (
{
position = 3;
width = 208;
},
{
position = 846;
width = 115;
},
{
position = 1404;
width = 194;
}
);
vhints = (
{
position = 64;
width = 266;
},
{
position = 600;
width = 224;
},
{
position = 1037;
width = 224;
},
{
position = 1069;
width = 224;
}
);
};
};
},
{
glyphname = t;
lastChange = "2016-06-28 18:16:27 +0000";
layers = (
{
layerId = "85E06A60-3AC8-4D41-9F91-737269C30490";
paths = (
{
closed = 1;
nodes = (
"229 527 CURVE",
"260 578 OFFCURVE",
"317 656 OFFCURVE",
"317 728 CURVE SMOOTH",
"317 748 OFFCURVE",
"313 766 OFFCURVE",
"292 766 CURVE SMOOTH",
"239 766 OFFCURVE",
"210 575 OFFCURVE",
"199 527 CURVE",
"209 528 OFFCURVE",
"219 527 OFFCURVE"
);
},
{
closed = 1;
nodes = (
"66 237 CURVE SMOOTH",
"66 306 OFFCURVE",
"76 389 OFFCURVE",
"92 450 CURVE",
"29 450 OFFCURVE",
"-9 472 OFFCURVE",
"-9 498 CURVE SMOOTH",
"-9 523 OFFCURVE",
"17 527 OFFCURVE",
"53 527 CURVE SMOOTH",
"106 527 LINE",
"129 646 OFFCURVE",
"169 776 OFFCURVE",
"240 846 CURVE SMOOTH",
"260 865 OFFCURVE",
"280 875 OFFCURVE",
"302 875 CURVE SMOOTH",
"368 875 OFFCURVE",
"396 799 OFFCURVE",
"396 732 CURVE SMOOTH",
"396 649 OFFCURVE",
"346 582 OFFCURVE",
"309 527 CURVE",
"314 527 OFFCURVE",
"322 527 OFFCURVE",
"331 527 CURVE SMOOTH",
"403 527 LINE SMOOTH",
"448 527 OFFCURVE",
"474 525 OFFCURVE",
"474 489 CURVE SMOOTH",
"474 469 OFFCURVE",
"460 450 OFFCURVE",
"442 450 CURVE SMOOTH",
"255 450 LINE",
"203 366 OFFCURVE",
"184 337 OFFCURVE",
"184 238 CURVE SMOOTH",
"184 132 OFFCURVE",
"228 100 OFFCURVE",
"272 100 CURVE SMOOTH",
"343 100 OFFCURVE",
"402 176 OFFCURVE",
"439 215 CURVE SMOOTH",
"443 219 OFFCURVE",
"448 222 OFFCURVE",
"454 222 CURVE SMOOTH",
"470 222 OFFCURVE",
"490 205 OFFCURVE",
"490 180 CURVE SMOOTH",
"490 170 OFFCURVE",
"487 159 OFFCURVE",
"479 147 CURVE SMOOTH",
"422 66 OFFCURVE",
"352 -4 OFFCURVE",
"263 -4 CURVE SMOOTH",
"126 -4 OFFCURVE",
"66 112 OFFCURVE"
);
}
);
width = 355;
}
);
unicode = 0074;
userData = {
com.fontlab.hintData = {
hhints = (
{
position = -9;
width = 213;
},
{
position = 922;
width = 158;
},
{
position = 1568;
width = 224;
}
);
vhints = (
{
position = 135;
width = 241;
},
{
position = 217;
width = 191;
},
{
position = 650;
width = 160;
}
);
};
};
},
{
glyphname = u;
lastChange = "2016-06-28 18:16:27 +0000";
layers = (
{
layerId = "85E06A60-3AC8-4D41-9F91-737269C30490";
paths = (
{
closed = 1;
nodes = (
"426 437 CURVE SMOOTH",
"426 371 OFFCURVE",
"380 187 OFFCURVE",
"380 136 CURVE SMOOTH",
"380 100 OFFCURVE",
"389 86 OFFCURVE",
"402 86 CURVE SMOOTH",
"434 86 OFFCURVE",
"489 164 OFFCURVE",
"503 178 CURVE SMOOTH",
"514 190 OFFCURVE",
"525 196 OFFCURVE",
"535 196 CURVE SMOOTH",
"559 196 OFFCURVE",
"577 168 OFFCURVE",
"577 129 CURVE",
"547 67 OFFCURVE",
"463 0 OFFCURVE",
"385 0 CURVE SMOOTH",
"345 0 OFFCURVE",
"287 28 OFFCURVE",
"283 102 CURVE",
"283 102 OFFCURVE",
"239 0 OFFCURVE",
"146 0 CURVE SMOOTH",
"64 0 OFFCURVE",
"38 63 OFFCURVE",
"38 156 CURVE SMOOTH",
"38 244 OFFCURVE",
"69 468 OFFCURVE",
"162 468 CURVE SMOOTH",
"181 468 OFFCURVE",
"206 458 OFFCURVE",
"206 426 CURVE SMOOTH",
"206 423 OFFCURVE",
"207 421 OFFCURVE",
"206 418 CURVE SMOOTH",
"171 321 OFFCURVE",
"153 243 OFFCURVE",
"153 160 CURVE SMOOTH",
"153 136 OFFCURVE",
"163 110 OFFCURVE",
"191 110 CURVE SMOOTH",
"234 110 OFFCURVE",
"257 156 OFFCURVE",
"264 192 CURVE SMOOTH",
"313 440 LINE SMOOTH",
"316 458 OFFCURVE",
"348 468 OFFCURVE",
"372 468 CURVE SMOOTH",
"397 468 OFFCURVE",
"426 459 OFFCURVE"
);
}
);
width = 453;
}
);
unicode = 0075;
userData = {
com.fontlab.hintData = {
hhints = (
{
position = 0;
width = 225;
},
{
position = 0;
width = 177;
},
{
position = 939;
width = 20;
}
);
vhints = (
{
position = 77;
width = 237;
},
{
position = 640;
width = 232;
}
);
};
};
},
{
glyphname = v;
lastChange = "2016-06-28 18:16:27 +0000";
layers = (
{
layerId = "85E06A60-3AC8-4D41-9F91-737269C30490";
paths = (
{
closed = 1;
nodes = (
"413 103 CURVE SMOOTH",
"359 103 OFFCURVE",
"319 119 OFFCURVE",
"293 167 CURVE",
"267 111 OFFCURVE",
"226 48 OFFCURVE",
"181 11 CURVE SMOOTH",
"168 0 OFFCURVE",
"155 -5 OFFCURVE",
"144 -5 CURVE SMOOTH",
"64 -5 OFFCURVE",
"52 124 OFFCURVE",
"52 242 CURVE SMOOTH",
"52 294 OFFCURVE",
"55 344 OFFCURVE",
"55 380 CURVE SMOOTH",
"55 428 OFFCURVE",
"74 470 OFFCURVE",
"121 470 CURVE SMOOTH",
"157 470 OFFCURVE",
"183 444 OFFCURVE",
"183 409 CURVE SMOOTH",
"183 403 LINE",
"164 127 LINE",
"170 128 LINE",
"299 434 LINE",
"303 456 OFFCURVE",
"329 469 OFFCURVE",
"355 469 CURVE SMOOTH",
"383 469 OFFCURVE",
"420 457 OFFCURVE",
"420 436 CURVE SMOOTH",
"420 434 OFFCURVE",
"419 431 OFFCURVE",
"418 428 CURVE SMOOTH",
"399 383 OFFCURVE",
"366 316 OFFCURVE",
"366 258 CURVE SMOOTH",
"366 208 OFFCURVE",
"384 178 OFFCURVE",
"431 178 CURVE SMOOTH",
"467 178 OFFCURVE",
"509 200 OFFCURVE",
"534 216 CURVE SMOOTH",
"539 219 OFFCURVE",
"543 220 OFFCURVE",
"547 220 CURVE SMOOTH",
"561 220 OFFCURVE",
"567 205 OFFCURVE",
"567 189 CURVE SMOOTH",
"567 172 OFFCURVE",
"560 154 OFFCURVE",
"544 145 CURVE SMOOTH",
"515 127 OFFCURVE",
"456 103 OFFCURVE"
);
}
);
width = 443;
}
);
unicode = 0076;
userData = {
com.fontlab.hintData = {
hhints = (
{
position = 211;
width = 154;
},
{
position = 942;
width = 20;
}
);
vhints = (
{
position = 107;
width = 267;
},
{
position = 107;
width = 228;
}
);
};
};
},
{
glyphname = w;
lastChange = "2016-06-28 18:16:27 +0000";
layers = (
{
layerId = "85E06A60-3AC8-4D41-9F91-737269C30490";
paths = (
{
closed = 1;
nodes = (
"32 154 CURVE SMOOTH",
"32 187 LINE SMOOTH",
"32 297 OFFCURVE",
"36 469 OFFCURVE",
"105 469 CURVE",
"117 468 LINE",
"117 468 LINE SMOOTH",
"140 468 OFFCURVE",
"160 460 OFFCURVE",
"160 442 CURVE SMOOTH",
"160 438 LINE",
"125 153 LINE",
"134 173 LINE",
"167 251 OFFCURVE",
"191 327 OFFCURVE",
"227 396 CURVE SMOOTH",
"248 437 OFFCURVE",
"271 468 OFFCURVE",
"329 468 CURVE SMOOTH",
"352 468 OFFCURVE",
"372 460 OFFCURVE",
"372 442 CURVE SMOOTH",
"372 441 OFFCURVE",
"372 440 OFFCURVE",
"371 438 CURVE SMOOTH",
"336 173 LINE",
"333 145 LINE",
"457 435 LINE SMOOTH",
"465 455 OFFCURVE",
"496 469 OFFCURVE",
"527 469 CURVE SMOOTH",
"545 469 OFFCURVE",
"569 455 OFFCURVE",
"569 432 CURVE SMOOTH",
"569 429 OFFCURVE",
"568 427 OFFCURVE",
"567 424 CURVE SMOOTH",
"549 362 OFFCURVE",
"522 306 OFFCURVE",
"522 217 CURVE SMOOTH",
"522 184 OFFCURVE",
"535 158 OFFCURVE",
"572 158 CURVE SMOOTH",
"607 158 OFFCURVE",
"663 202 OFFCURVE",
"694 225 CURVE SMOOTH",
"704 232 OFFCURVE",
"712 234 OFFCURVE",
"718 234 CURVE SMOOTH",
"727 234 OFFCURVE",
"738 219 OFFCURVE",
"738 202 CURVE SMOOTH",
"738 196 OFFCURVE",
"737 190 OFFCURVE",
"735 185 CURVE",
"689 133 OFFCURVE",
"635 71 OFFCURVE",
"552 71 CURVE SMOOTH",
"487 71 OFFCURVE",
"450 125 OFFCURVE",
"449 213 CURVE",
"425 151 OFFCURVE",
"372 1 OFFCURVE",
"325 1 CURVE SMOOTH",
"271 1 OFFCURVE",
"268 89 OFFCURVE",
"268 170 CURVE SMOOTH",
"268 216 OFFCURVE",
"268 294 OFFCURVE",
"268 294 CURVE",
"252 244 LINE",
"229 156 OFFCURVE",
"192 65 OFFCURVE",
"133 19 CURVE SMOOTH",
"120 8 OFFCURVE",
"109 1 OFFCURVE",
"98 1 CURVE SMOOTH",
"43 1 OFFCURVE",
"32 70 OFFCURVE"
);
}
);
width = 610;
}
);
unicode = 0077;
userData = {
com.fontlab.hintData = {
hhints = (
{
position = 145;
width = 179;
},
{
position = 941;
width = 18;
}
);
vhints = (
{
position = 919;
width = 151;
}
);
};
};
},
{
glyphname = x;
lastChange = "2016-06-28 18:16:27 +0000";
layers = (
{
layerId = "85E06A60-3AC8-4D41-9F91-737269C30490";
paths = (
{
closed = 1;
nodes = (
"243 115 CURVE",
"213 81 OFFCURVE",
"164 0 OFFCURVE",
"109 0 CURVE SMOOTH",
"37 0 OFFCURVE",
"14 64 OFFCURVE",
"11 133 CURVE",
"81 175 LINE",
"85 157 OFFCURVE",
"93 118 OFFCURVE",
"114 118 CURVE SMOOTH",
"144 118 OFFCURVE",
"179 186 OFFCURVE",
"196 210 CURVE",
"173 262 OFFCURVE",
"155 316 OFFCURVE",
"137 376 CURVE SMOOTH",
"137 378 OFFCURVE",
"136 380 OFFCURVE",
"136 381 CURVE SMOOTH",
"136 410 OFFCURVE",
"183 438 OFFCURVE",
"213 438 CURVE SMOOTH",
"253 438 OFFCURVE",
"270 354 OFFCURVE",
"284 319 CURVE",
"320 356 OFFCURVE",
"360 392 OFFCURVE",
"406 422 CURVE SMOOTH",
"419 430 OFFCURVE",
"432 437 OFFCURVE",
"449 437 CURVE SMOOTH",
"479 437 OFFCURVE",
"495 411 OFFCURVE",
"495 381 CURVE SMOOTH",
"495 357 OFFCURVE",
"484 338 OFFCURVE",
"469 328 CURVE SMOOTH",
"418 296 OFFCURVE",
"373 255 OFFCURVE",
"332 213 CURVE",
"346 185 OFFCURVE",
"377 109 OFFCURVE",
"413 109 CURVE SMOOTH",
"473 109 OFFCURVE",
"538 174 OFFCURVE",
"568 207 CURVE SMOOTH",
"581 221 OFFCURVE",
"590 226 OFFCURVE",
"597 226 CURVE SMOOTH",
"608 226 OFFCURVE",
"612 210 OFFCURVE",
"612 190 CURVE SMOOTH",
"612 161 OFFCURVE",
"603 123 OFFCURVE",
"594 114 CURVE SMOOTH",
"542 64 OFFCURVE",
"459 0 OFFCURVE",
"359 0 CURVE SMOOTH",
"310 0 OFFCURVE",
"271 67 OFFCURVE"
);
}
);
width = 500;
}
);
unicode = 0078;
userData = {
com.fontlab.hintData = {
hhints = (
{
position = 0;
width = 242;
},
{
position = 0;
width = 223;
},
{
position = 876;
width = 20;
}
);
};
};
},
{
glyphname = y;
lastChange = "2016-06-28 18:16:27 +0000";
layers = (
{
layerId = "85E06A60-3AC8-4D41-9F91-737269C30490";
paths = (
{
closed = 1;
nodes = (
"84 -359 CURVE SMOOTH",
"180 -359 OFFCURVE",
"219 -204 OFFCURVE",
"234 -125 CURVE",
"170 -168 OFFCURVE",
"104 -239 OFFCURVE",
"72 -313 CURVE SMOOTH",
"67 -324 OFFCURVE",
"64 -334 OFFCURVE",
"64 -341 CURVE SMOOTH",
"64 -354 OFFCURVE",
"71 -359 OFFCURVE"
);
},
{
closed = 1;
nodes = (
"156 158 CURVE SMOOTH",
"156 127 OFFCURVE",
"163 94 OFFCURVE",
"194 94 CURVE SMOOTH",
"247 94 OFFCURVE",
"268 186 OFFCURVE",
"278 231 CURVE SMOOTH",
"313 375 LINE SMOOTH",
"321 413 OFFCURVE",
"358 444 OFFCURVE",
"403 444 CURVE SMOOTH",
"423 444 OFFCURVE",
"439 436 OFFCURVE",
"439 417 CURVE SMOOTH",
"439 351 OFFCURVE",
"411 270 OFFCURVE",
"400 201 CURVE SMOOTH",
"392 153 OFFCURVE",
"383 111 OFFCURVE",
"375 56 CURVE",
"422 95 OFFCURVE",
"491 153 OFFCURVE",
"540 199 CURVE SMOOTH",
"543 202 OFFCURVE",
"548 202 OFFCURVE",
"552 202 CURVE SMOOTH",
"575 202 OFFCURVE",
"598 169 OFFCURVE",
"598 139 CURVE SMOOTH",
"598 119 OFFCURVE",
"585 106 OFFCURVE",
"563 90 CURVE SMOOTH",
"501 43 OFFCURVE",
"407 -19 OFFCURVE",
"359 -53 CURVE",
"329 -225 OFFCURVE",
"276 -453 OFFCURVE",
"78 -453 CURVE SMOOTH",
"12 -453 OFFCURVE",
"-31 -425 OFFCURVE",
"-31 -356 CURVE SMOOTH",
"-31 -287 OFFCURVE",
"22 -228 OFFCURVE",
"57 -185 CURVE SMOOTH",
"113 -116 OFFCURVE",
"182 -65 OFFCURVE",
"251 -9 CURVE",
"264 51 LINE",
"237 27 OFFCURVE",
"199 -1 OFFCURVE",
"154 -1 CURVE SMOOTH",
"79 -1 OFFCURVE",
"31 60 OFFCURVE",
"31 137 CURVE SMOOTH",
"31 250 OFFCURVE",
"57 331 OFFCURVE",
"94 406 CURVE SMOOTH",
"106 430 OFFCURVE",
"134 451 OFFCURVE",
"167 451 CURVE SMOOTH",
"190 451 OFFCURVE",
"208 439 OFFCURVE",
"208 416 CURVE SMOOTH",
"208 387 OFFCURVE",
"194 367 OFFCURVE",
"186 338 CURVE SMOOTH",
"171 285 OFFCURVE",
"156 222 OFFCURVE"
);
}
);
width = 453;
}
);
unicode = 0079;
userData = {
com.fontlab.hintData = {
hhints = (
{
position = -928;
width = 192;
},
{
position = -2;
width = 194;
},
{
position = 889;
width = 35;
}
);
vhints = (
{
position = -64;
width = 196;
},
{
position = 64;
width = 256;
},
{
position = 192;
width = 235;
},
{
position = 640;
width = 259;
}
);
};
};
},
{
glyphname = z;
lastChange = "2016-06-28 18:16:27 +0000";
layers = (
{
layerId = "85E06A60-3AC8-4D41-9F91-737269C30490";
paths = (
{
closed = 1;
nodes = (
"81 -1 CURVE SMOOTH",
"44 -1 OFFCURVE",
"24 25 OFFCURVE",
"24 62 CURVE SMOOTH",
"24 94 OFFCURVE",
"56 103 OFFCURVE",
"70 123 CURVE SMOOTH",
"236 356 LINE",
"215 360 OFFCURVE",
"196 362 OFFCURVE",
"180 362 CURVE SMOOTH",
"138 362 OFFCURVE",
"113 344 OFFCURVE",
"75 344 CURVE SMOOTH",
"63 344 OFFCURVE",
"61 357 OFFCURVE",
"61 370 CURVE SMOOTH",
"61 430 OFFCURVE",
"73 480 OFFCURVE",
"129 480 CURVE SMOOTH",
"190 480 OFFCURVE",
"227 445 OFFCURVE",
"289 445 CURVE SMOOTH",
"315 445 OFFCURVE",
"341 451 OFFCURVE",
"365 451 CURVE SMOOTH",
"395 451 OFFCURVE",
"405 436 OFFCURVE",
"405 406 CURVE SMOOTH",
"405 372 OFFCURVE",
"394 364 OFFCURVE",
"363 356 CURVE",
"314 274 OFFCURVE",
"236 196 OFFCURVE",
"176 125 CURVE",
"173 115 LINE",
"206 115 OFFCURVE",
"247 93 OFFCURVE",
"286 93 CURVE SMOOTH",
"349 93 OFFCURVE",
"385 127 OFFCURVE",
"425 150 CURVE SMOOTH",
"437 157 OFFCURVE",
"449 161 OFFCURVE",
"461 161 CURVE SMOOTH",
"479 161 OFFCURVE",
"492 146 OFFCURVE",
"492 127 CURVE SMOOTH",
"492 47 OFFCURVE",
"334 -1 OFFCURVE",
"256 -1 CURVE SMOOTH",
"212 -1 OFFCURVE",
"169 19 OFFCURVE",
"133 34 CURVE",
"120 22 OFFCURVE",
"101 -1 OFFCURVE"
);
}
);
width = 363;
}
);
unicode = 007A;
userData = {
com.fontlab.hintData = {
hhints = (
{
position = -2;
width = 192;
},
{
position = 729;
width = 195;
},
{
position = 742;
width = 242;
}
);
};
};
},
{
glyphname = s.fin2;
lastChange = "2016-06-28 18:16:27 +0000";
layers = (
{
layerId = "85E06A60-3AC8-4D41-9F91-737269C30490";
paths = (
{
closed = 1;
nodes = (
"207 81 CURVE SMOOTH",
"206 75 OFFCURVE",
"218 74 OFFCURVE",
"222 74 CURVE SMOOTH",
"251 74 OFFCURVE",
"294 110 OFFCURVE",
"294 138 CURVE SMOOTH",
"294 149 OFFCURVE",
"291 161 OFFCURVE",
"286 173 CURVE",
"250 156 OFFCURVE",
"221 127 OFFCURVE"
);
},
{
closed = 1;
nodes = (
"330 273 CURVE",
"371 292 OFFCURVE",
"414 303 OFFCURVE",
"452 303 CURVE SMOOTH",
"489 303 OFFCURVE",
"516 266 OFFCURVE",
"554 231 CURVE",
"559 229 OFFCURVE",
"561 224 OFFCURVE",
"561 218 CURVE SMOOTH",
"561 203 OFFCURVE",
"548 182 OFFCURVE",
"541 182 CURVE SMOOTH",
"500 182 OFFCURVE",
"476 201 OFFCURVE",
"441 201 CURVE SMOOTH",
"421 201 OFFCURVE",
"398 201 OFFCURVE",
"375 198 CURVE",
"383 178 OFFCURVE",
"388 157 OFFCURVE",
"388 136 CURVE SMOOTH",
"388 56 OFFCURVE",
"335 -4 OFFCURVE",
"218 -4 CURVE SMOOTH",
"185 -4 OFFCURVE",
"143 14 OFFCURVE",
"143 59 CURVE SMOOTH",
"143 119 OFFCURVE",
"189 181 OFFCURVE",
"251 227 CURVE",
"239 241 OFFCURVE",
"226 254 OFFCURVE",
"214 265 CURVE",
"125 132 LINE",
"125 132 OFFCURVE",
"105 97 OFFCURVE",
"57 97 CURVE SMOOTH",
"32 97 OFFCURVE",
"23 110 OFFCURVE",
"23 127 CURVE SMOOTH",
"23 144 OFFCURVE",
"43 162 OFFCURVE",
"53 175 CURVE SMOOTH",
"95 236 OFFCURVE",
"152 337 OFFCURVE",
"199 422 CURVE SMOOTH",
"212 446 OFFCURVE",
"235 469 OFFCURVE",
"273 469 CURVE SMOOTH",
"320 469 OFFCURVE",
"336 452 OFFCURVE",
"336 429 CURVE SMOOTH",
"336 401 OFFCURVE",
"313 366 OFFCURVE",
"296 345 CURVE SMOOTH",
"290 337 OFFCURVE",
"286 332 OFFCURVE",
"286 328 CURVE",
"291 320 OFFCURVE",
"310 300 OFFCURVE"
);
}
);
width = 433;
}
);
userData = {
com.fontlab.hintData = {
hhints = (
{
position = -9;
width = 160;
},
{
position = 412;
width = 209;
},
{
position = 940;
width = 20;
}
);
vhints = (
{
position = 602;
width = 192;
}
);
};
};
},
{
glyphname = a.fina;
lastChange = "2016-06-28 18:16:27 +0000";
layers = (
{
layerId = "85E06A60-3AC8-4D41-9F91-737269C30490";
paths = (
{
closed = 1;
nodes = (
"156 158 CURVE SMOOTH",
"156 127 OFFCURVE",
"163 94 OFFCURVE",
"194 94 CURVE SMOOTH",
"247 94 OFFCURVE",
"269 186 OFFCURVE",
"278 231 CURVE SMOOTH",
"308 375 LINE",
"217 375 OFFCURVE",
"156 248 OFFCURVE"
);
},
{
closed = 1;
nodes = (
"421 93 CURVE SMOOTH",
"478 93 OFFCURVE",
"546 134 OFFCURVE",
"581 149 CURVE SMOOTH",
"582 149 OFFCURVE",
"582 149 OFFCURVE",
"583 149 CURVE SMOOTH",
"597 149 OFFCURVE",
"615 104 OFFCURVE",
"615 89 CURVE SMOOTH",
"615 82 OFFCURVE",
"614 75 OFFCURVE",
"612 71 CURVE",
"540 26 OFFCURVE",
"494 0 OFFCURVE",
"397 0 CURVE SMOOTH",
"345 0 OFFCURVE",
"323 36 OFFCURVE",
"306 79 CURVE",
"275 42 OFFCURVE",
"220 0 OFFCURVE",
"154 0 CURVE SMOOTH",
"78 0 OFFCURVE",
"31 60 OFFCURVE",
"31 137 CURVE SMOOTH",
"31 285 OFFCURVE",
"125 407 OFFCURVE",
"229 453 CURVE SMOOTH",
"250 463 OFFCURVE",
"272 468 OFFCURVE",
"294 468 CURVE SMOOTH",
"330 468 OFFCURVE",
"324 431 OFFCURVE",
"365 431 CURVE SMOOTH",
"372 431 OFFCURVE",
"379 431 OFFCURVE",
"387 431 CURVE SMOOTH",
"415 431 OFFCURVE",
"422 415 OFFCURVE",
"422 386 CURVE SMOOTH",
"422 306 OFFCURVE",
"391 239 OFFCURVE",
"391 158 CURVE SMOOTH",
"391 112 OFFCURVE",
"403 93 OFFCURVE"
);
}
);
width = 465;
}
);
userData = {
com.fontlab.hintData = {
hhints = (
{
position = 0;
width = 192;
},
{
position = 768;
width = 190;
}
);
vhints = (
{
position = 64;
width = 256;
}
);
};
};
},
{
glyphname = b.fina;
lastChange = "2016-06-28 18:16:27 +0000";
layers = (
{
layerId = "85E06A60-3AC8-4D41-9F91-737269C30490";
paths = (
{
closed = 1;
nodes = (
"159 422 CURVE",
"220 538 OFFCURVE",
"325 644 OFFCURVE",
"325 805 CURVE SMOOTH",
"325 822 OFFCURVE",
"318 844 OFFCURVE",
"300 844 CURVE SMOOTH",
"251 844 OFFCURVE",
"171 485 OFFCURVE"
);
},
{
closed = 1;
nodes = (
"341 262 CURVE SMOOTH",
"341 316 OFFCURVE",
"318 355 OFFCURVE",
"280 355 CURVE SMOOTH",
"176 355 OFFCURVE",
"160 197 OFFCURVE",
"153 110 CURVE",
"173 102 OFFCURVE",
"196 94 OFFCURVE",
"221 94 CURVE SMOOTH",
"313 94 OFFCURVE",
"341 198 OFFCURVE"
);
},
{
closed = 1;
nodes = (
"305 938 CURVE SMOOTH",
"395 938 OFFCURVE",
"431 869 OFFCURVE",
"431 796 CURVE SMOOTH",
"431 625 OFFCURVE",
"305 495 OFFCURVE",
"226 398 CURVE",
"233 393 LINE",
"253 421 OFFCURVE",
"300 446 OFFCURVE",
"346 446 CURVE SMOOTH",
"403 446 OFFCURVE",
"458 408 OFFCURVE",
"458 292 CURVE SMOOTH",
"458 164 OFFCURVE",
"364 1 OFFCURVE",
"236 1 CURVE SMOOTH",
"155 1 OFFCURVE",
"86 34 OFFCURVE",
"37 67 CURVE SMOOTH",
"31 71 OFFCURVE",
"29 73 OFFCURVE",
"28 74 CURVE",
"37 312 OFFCURVE",
"81 548 OFFCURVE",
"146 738 CURVE SMOOTH",
"172 812 OFFCURVE",
"216 938 OFFCURVE"
);
}
);
width = 656;
}
);
userData = {
com.fontlab.hintData = {
hhints = (
{
position = 2;
width = 190;
},
{
position = 727;
width = 187;
},
{
position = 1728;
width = 192;
}
);
vhints = (
{
position = 666;
width = 216;
},
{
position = 698;
width = 239;
}
);
};
};
},
{
glyphname = c.fina;
lastChange = "2016-06-28 18:16:27 +0000";
layers = (
{
layerId = "85E06A60-3AC8-4D41-9F91-737269C30490";
paths = (
{
closed = 1;
nodes = (
"236 -1 CURVE SMOOTH",
"105 -1 OFFCURVE",
"31 79 OFFCURVE",
"31 202 CURVE SMOOTH",
"31 333 OFFCURVE",
"102 469 OFFCURVE",
"231 469 CURVE SMOOTH",
"303 469 OFFCURVE",
"359 427 OFFCURVE",
"359 356 CURVE SMOOTH",
"359 312 OFFCURVE",
"337 266 OFFCURVE",
"294 266 CURVE SMOOTH",
"264 266 OFFCURVE",
"257 282 OFFCURVE",
"257 312 CURVE SMOOTH",
"257 322 OFFCURVE",
"258 337 OFFCURVE",
"258 348 CURVE SMOOTH",
"258 361 OFFCURVE",
"257 375 OFFCURVE",
"245 375 CURVE SMOOTH",
"171 375 OFFCURVE",
"156 276 OFFCURVE",
"156 202 CURVE SMOOTH",
"156 136 OFFCURVE",
"184 92 OFFCURVE",
"257 92 CURVE SMOOTH",
"352 92 OFFCURVE",
"439 170 OFFCURVE",
"491 218 CURVE SMOOTH",
"500 228 OFFCURVE",
"507 233 OFFCURVE",
"513 233 CURVE SMOOTH",
"539 233 OFFCURVE",
"563 207 OFFCURVE",
"563 188 CURVE SMOOTH",
"563 176 OFFCURVE",
"561 163 OFFCURVE",
"554 155 CURVE SMOOTH",
"504 102 OFFCURVE",
"394 -1 OFFCURVE"
);
}
);
width = 369;
}
);
userData = {
com.fontlab.hintData = {
hhints = (
{
position = -2;
width = 190;
},
{
position = 768;
width = 192;
}
);
vhints = (
{
position = 64;
width = 256;
},
{
position = 529;
width = 207;
}
);
};
};
},
{
glyphname = d.fina;
lastChange = "2016-06-28 18:16:27 +0000";
layers = (
{
layerId = "85E06A60-3AC8-4D41-9F91-737269C30490";
paths = (
{
closed = 1;
nodes = (
"456 543 CURVE SMOOTH",
"456 227 OFFCURVE",
"348 -10 OFFCURVE",
"187 -10 CURVE SMOOTH",
"85 -10 OFFCURVE",
"19 44 OFFCURVE",
"19 134 CURVE SMOOTH",
"19 324 OFFCURVE",
"175 441 OFFCURVE",
"324 444 CURVE",
"332 493 OFFCURVE",
"336 543 OFFCURVE",
"336 589 CURVE SMOOTH",
"336 702 OFFCURVE",
"291 794 OFFCURVE",
"172 794 CURVE SMOOTH",
"121 794 OFFCURVE",
"65 775 OFFCURVE",
"15 735 CURVE",
"9 732 OFFCURVE",
"-1 731 OFFCURVE",
"-10 731 CURVE SMOOTH",
"-28 731 OFFCURVE",
"-44 740 OFFCURVE",
"-44 765 CURVE SMOOTH",
"-44 774 OFFCURVE",
"-38 790 OFFCURVE",
"-15 810 CURVE SMOOTH",
"45 863 OFFCURVE",
"117 888 OFFCURVE",
"187 888 CURVE SMOOTH",
"367 888 OFFCURVE",
"456 764 OFFCURVE"
);
},
{
closed = 1;
nodes = (
"140 150 CURVE SMOOTH",
"140 117 OFFCURVE",
"150 93 OFFCURVE",
"179 93 CURVE SMOOTH",
"286 93 OFFCURVE",
"311 369 OFFCURVE",
"311 369 CURVE",
"222 335 OFFCURVE",
"140 249 OFFCURVE"
);
}
);
width = 506;
}
);
userData = {
com.fontlab.hintData = {
hhints = (
{
position = -21;
width = 212;
},
{
position = 1627;
width = 191;
}
);
vhints = (
{
position = 39;
width = 247;
},
{
position = 689;
width = 244;
}
);
};
};
},
{
glyphname = e.fina;
lastChange = "2016-06-28 18:16:27 +0000";
layers = (
{
layerId = "85E06A60-3AC8-4D41-9F91-737269C30490";
paths = (
{
closed = 1;
nodes = (
"285 331 CURVE SMOOTH",
"285 357 OFFCURVE",
"272 376 OFFCURVE",
"249 376 CURVE SMOOTH",
"172 376 OFFCURVE",
"144 280 OFFCURVE",
"144 213 CURVE",
"189 229 OFFCURVE",
"285 272 OFFCURVE"
);
},
{
closed = 1;
nodes = (
"233 -3 CURVE SMOOTH",
"99 -3 OFFCURVE",
"24 66 OFFCURVE",
"24 204 CURVE SMOOTH",
"24 335 OFFCURVE",
"100 468 OFFCURVE",
"243 468 CURVE SMOOTH",
"318 468 OFFCURVE",
"372 421 OFFCURVE",
"372 346 CURVE SMOOTH",
"372 237 OFFCURVE",
"251 166 OFFCURVE",
"155 142 CURVE",
"165 109 OFFCURVE",
"196 88 OFFCURVE",
"241 88 CURVE SMOOTH",
"325 88 OFFCURVE",
"417 164 OFFCURVE",
"468 200 CURVE SMOOTH",
"474 204 OFFCURVE",
"479 206 OFFCURVE",
"485 206 CURVE SMOOTH",
"506 206 OFFCURVE",
"530 180 OFFCURVE",
"530 157 CURVE SMOOTH",
"530 148 OFFCURVE",
"527 139 OFFCURVE",
"518 132 CURVE",
"450 78 OFFCURVE",
"371 -3 OFFCURVE"
);
}
);
width = 410;
}
);
userData = {
com.fontlab.hintData = {
hhints = (
{
position = -6;
width = 187;
},
{
position = 771;
width = 188;
}
);
vhints = (
{
position = 50;
width = 244;
},
{
position = 583;
width = 178;
}
);
};
};
},
{
glyphname = f.fina;
lastChange = "2016-06-28 18:16:27 +0000";
layers = (
{
layerId = "85E06A60-3AC8-4D41-9F91-737269C30490";
paths = (
{
closed = 1;
nodes = (
"240 321 CURVE",
"343 321 OFFCURVE",
"408 333 OFFCURVE",
"500 333 CURVE SMOOTH",
"511 333 OFFCURVE",
"518 318 OFFCURVE",
"518 299 CURVE SMOOTH",
"518 272 OFFCURVE",
"479 258 OFFCURVE",
"427 251 CURVE",
"373 245 OFFCURVE",
"307 244 OFFCURVE",
"251 243 CURVE",
"278 174 OFFCURVE",
"309 89 OFFCURVE",
"309 -14 CURVE SMOOTH",
"309 -130 OFFCURVE",
"259 -295 OFFCURVE",
"132 -295 CURVE SMOOTH",
"30 -295 OFFCURVE",
"17 -135 OFFCURVE",
"17 -19 CURVE SMOOTH",
"17 254 OFFCURVE",
"110 906 OFFCURVE",
"382 906 CURVE SMOOTH",
"443 906 OFFCURVE",
"479 860 OFFCURVE",
"479 793 CURVE SMOOTH",
"479 621 OFFCURVE",
"337 437 OFFCURVE"
);
},
{
closed = 1;
nodes = (
"147 -185 CURVE SMOOTH",
"206 -185 OFFCURVE",
"206 -84 OFFCURVE",
"206 -30 CURVE SMOOTH",
"206 -28 LINE SMOOTH",
"206 91 OFFCURVE",
"175 188 OFFCURVE",
"140 255 CURVE",
"135 161 OFFCURVE",
"126 70 OFFCURVE",
"126 -23 CURVE SMOOTH",
"126 -91 OFFCURVE",
"128 -185 OFFCURVE"
);
},
{
closed = 1;
nodes = (
"388 747 CURVE SMOOTH",
"388 773 OFFCURVE",
"384 796 OFFCURVE",
"364 796 CURVE SMOOTH",
"252 796 OFFCURVE",
"174 378 OFFCURVE",
"161 335 CURVE",
"237 429 OFFCURVE",
"388 618 OFFCURVE"
);
}
);
width = 433;
}
);
userData = {
com.fontlab.hintData = {
hhints = (
{
position = -604;
width = 225;
},
{
position = 497;
width = 160;
},
{
position = 1631;
width = 225;
}
);
vhints = (
{
position = 34;
width = 225;
},
{
position = 422;
width = 211;
},
{
position = 795;
width = 187;
}
);
};
};
},
{
glyphname = g.fina;
lastChange = "2016-06-28 18:16:27 +0000";
layers = (
{
layerId = "85E06A60-3AC8-4D41-9F91-737269C30490";
paths = (
{
closed = 1;
nodes = (
"62 -315 CURVE SMOOTH",
"151 -315 OFFCURVE",
"188 -186 OFFCURVE",
"202 -120 CURVE",
"148 -150 OFFCURVE",
"42 -224 OFFCURVE",
"42 -297 CURVE SMOOTH",
"42 -310 OFFCURVE",
"48 -315 OFFCURVE"
);
},
{
closed = 1;
nodes = (
"134 158 CURVE SMOOTH",
"134 127 OFFCURVE",
"141 94 OFFCURVE",
"172 94 CURVE SMOOTH",
"225 94 OFFCURVE",
"247 186 OFFCURVE",
"256 231 CURVE SMOOTH",
"286 375 LINE",
"194 375 OFFCURVE",
"134 248 OFFCURVE"
);
},
{
closed = 1;
nodes = (
"327 7 CURVE",
"368 13 OFFCURVE",
"408 25 OFFCURVE",
"476 25 CURVE SMOOTH",
"500 25 OFFCURVE",
"539 -19 OFFCURVE",
"539 -51 CURVE SMOOTH",
"539 -69 OFFCURVE",
"526 -84 OFFCURVE",
"492 -85 CURVE SMOOTH",
"421 -88 OFFCURVE",
"367 -93 OFFCURVE",
"311 -102 CURVE",
"283 -243 OFFCURVE",
"230 -409 OFFCURVE",
"56 -409 CURVE SMOOTH",
"-11 -409 OFFCURVE",
"-54 -381 OFFCURVE",
"-54 -312 CURVE SMOOTH",
"-54 -162 OFFCURVE",
"115 -76 OFFCURVE",
"219 -19 CURVE",
"242 51 LINE",
"214 27 OFFCURVE",
"176 -1 OFFCURVE",
"131 -1 CURVE SMOOTH",
"56 -1 OFFCURVE",
"9 60 OFFCURVE",
"9 137 CURVE SMOOTH",
"9 285 OFFCURVE",
"103 407 OFFCURVE",
"206 453 CURVE SMOOTH",
"228 463 OFFCURVE",
"250 468 OFFCURVE",
"272 468 CURVE SMOOTH",
"308 468 OFFCURVE",
"301 431 OFFCURVE",
"342 431 CURVE SMOOTH",
"350 431 OFFCURVE",
"357 431 OFFCURVE",
"364 431 CURVE SMOOTH",
"392 431 OFFCURVE",
"399 415 OFFCURVE",
"399 386 CURVE SMOOTH",
"399 251 OFFCURVE",
"357 133 OFFCURVE"
);
}
);
width = 430;
}
);
userData = {
com.fontlab.hintData = {
hhints = (
{
position = -838;
width = 192;
},
{
position = -175;
width = 226;
},
{
position = -2;
width = 194;
},
{
position = 768;
width = 190;
}
);
vhints = (
{
position = -110;
width = 196;
},
{
position = 18;
width = 256;
}
);
};
};
},
{
glyphname = h.fina;
lastChange = "2016-06-28 18:16:27 +0000";
layers = (
{
layerId = "85E06A60-3AC8-4D41-9F91-737269C30490";
paths = (
{
closed = 1;
nodes = (
"153 347 CURVE",
"189 430 OFFCURVE",
"231 522 OFFCURVE",
"264 605 CURVE SMOOTH",
"291 675 OFFCURVE",
"318 739 OFFCURVE",
"318 807 CURVE SMOOTH",
"318 832 OFFCURVE",
"315 844 OFFCURVE",
"309 844 CURVE SMOOTH",
"300 844 OFFCURVE",
"288 831 OFFCURVE",
"271 803 CURVE SMOOTH",
"254 775 OFFCURVE",
"231 736 OFFCURVE",
"212 682 CURVE SMOOTH",
"178 584 OFFCURVE",
"163 465 OFFCURVE"
);
},
{
closed = 1;
nodes = (
"325 938 CURVE SMOOTH",
"392 938 OFFCURVE",
"413 896 OFFCURVE",
"413 830 CURVE SMOOTH",
"413 690 OFFCURVE",
"342 568 OFFCURVE",
"293 468 CURVE SMOOTH",
"267 415 OFFCURVE",
"236 358 OFFCURVE",
"210 311 CURVE",
"220 304 LINE",
"265 358 OFFCURVE",
"319 422 OFFCURVE",
"380 460 CURVE SMOOTH",
"398 471 OFFCURVE",
"415 478 OFFCURVE",
"430 478 CURVE SMOOTH",
"459 478 OFFCURVE",
"473 455 OFFCURVE",
"473 424 CURVE SMOOTH",
"473 325 OFFCURVE",
"394 239 OFFCURVE",
"394 137 CURVE SMOOTH",
"394 117 OFFCURVE",
"398 96 OFFCURVE",
"420 96 CURVE SMOOTH",
"477 96 OFFCURVE",
"572 146 OFFCURVE",
"622 177 CURVE SMOOTH",
"646 192 OFFCURVE",
"663 202 OFFCURVE",
"678 202 CURVE SMOOTH",
"698 202 OFFCURVE",
"709 189 OFFCURVE",
"709 171 CURVE SMOOTH",
"709 154 OFFCURVE",
"704 133 OFFCURVE",
"675 113 CURVE SMOOTH",
"606 64 OFFCURVE",
"500 0 OFFCURVE",
"376 0 CURVE SMOOTH",
"322 0 OFFCURVE",
"281 44 OFFCURVE",
"281 101 CURVE SMOOTH",
"281 104 OFFCURVE",
"281 107 OFFCURVE",
"282 110 CURVE SMOOTH",
"292 222 OFFCURVE",
"339 303 OFFCURVE",
"339 316 CURVE SMOOTH",
"339 317 OFFCURVE",
"339 318 OFFCURVE",
"338 318 CURVE SMOOTH",
"338 318 OFFCURVE",
"336 317 OFFCURVE",
"335 316 CURVE SMOOTH",
"221 252 OFFCURVE",
"152 59 OFFCURVE",
"128 21 CURVE SMOOTH",
"121 9 OFFCURVE",
"112 0 OFFCURVE",
"94 0 CURVE SMOOTH",
"47 0 OFFCURVE",
"46 62 OFFCURVE",
"46 109 CURVE SMOOTH",
"46 377 OFFCURVE",
"64 663 OFFCURVE",
"167 833 CURVE SMOOTH",
"199 887 OFFCURVE",
"247 938 OFFCURVE"
);
}
);
width = 567;
}
);
userData = {
com.fontlab.hintData = {
hhints = (
{
position = 0;
width = 196;
},
{
position = 958;
width = 20;
},
{
position = 1729;
width = 191;
}
);
vhints = (
{
position = 95;
width = 168;
},
{
position = 576;
width = 231;
},
{
position = 652;
width = 193;
}
);
};
};
},
{
glyphname = l.fina;
lastChange = "2016-06-28 18:16:27 +0000";
layers = (
{
layerId = "85E06A60-3AC8-4D41-9F91-737269C30490";
paths = (
{
closed = 1;
nodes = (
"333 778 CURVE SMOOTH",
"333 791 OFFCURVE",
"329 801 OFFCURVE",
"318 801 CURVE SMOOTH",
"208 801 OFFCURVE",
"167 476 OFFCURVE",
"167 361 CURVE",
"227 466 OFFCURVE",
"287 585 OFFCURVE",
"321 713 CURVE SMOOTH",
"328 736 OFFCURVE",
"333 758 OFFCURVE"
);
},
{
closed = 1;
nodes = (
"172 225 CURVE SMOOTH",
"172 172 OFFCURVE",
"182 102 OFFCURVE",
"247 102 CURVE SMOOTH",
"311 102 OFFCURVE",
"390 170 OFFCURVE",
"438 204 CURVE SMOOTH",
"446 210 OFFCURVE",
"455 212 OFFCURVE",
"462 212 CURVE SMOOTH",
"474 212 OFFCURVE",
"483 187 OFFCURVE",
"483 163 CURVE SMOOTH",
"483 159 OFFCURVE",
"482 155 OFFCURVE",
"482 151 CURVE",
"449 77 OFFCURVE",
"347 -5 OFFCURVE",
"225 -5 CURVE SMOOTH",
"87 -5 OFFCURVE",
"46 128 OFFCURVE",
"46 253 CURVE SMOOTH",
"46 487 OFFCURVE",
"102 721 OFFCURVE",
"207 854 CURVE SMOOTH",
"241 897 OFFCURVE",
"287 938 OFFCURVE",
"355 938 CURVE SMOOTH",
"411 938 OFFCURVE",
"425 884 OFFCURVE",
"425 827 CURVE SMOOTH",
"425 593 OFFCURVE",
"288 411 OFFCURVE",
"181 276 CURVE SMOOTH",
"173 267 OFFCURVE",
"172 243 OFFCURVE"
);
}
);
width = 412;
}
);
userData = {
com.fontlab.hintData = {
hhints = (
{
position = -11;
width = 219;
},
{
position = 1641;
width = 279;
}
);
vhints = (
{
position = 94;
width = 258;
},
{
position = 683;
width = 188;
}
);
};
};
},
{
glyphname = m.fina;
lastChange = "2016-06-28 18:16:27 +0000";
layers = (
{
layerId = "85E06A60-3AC8-4D41-9F91-737269C30490";
paths = (
{
closed = 1;
nodes = (
"623 94 CURVE SMOOTH",
"667 94 OFFCURVE",
"707 132 OFFCURVE",
"750 152 CURVE SMOOTH",
"751 152 OFFCURVE",
"752 152 OFFCURVE",
"753 152 CURVE SMOOTH",
"765 152 OFFCURVE",
"777 120 OFFCURVE",
"777 97 CURVE SMOOTH",
"777 41 OFFCURVE",
"641 -4 OFFCURVE",
"590 -4 CURVE SMOOTH",
"505 -4 OFFCURVE",
"479 68 OFFCURVE",
"479 140 CURVE SMOOTH",
"479 191 OFFCURVE",
"483 240 OFFCURVE",
"493 287 CURVE",
"486 287 LINE",
"387 35 LINE SMOOTH",
"376 9 OFFCURVE",
"356 0 OFFCURVE",
"322 0 CURVE SMOOTH",
"280 0 OFFCURVE",
"274 49 OFFCURVE",
"274 91 CURVE SMOOTH",
"274 160 OFFCURVE",
"290 221 OFFCURVE",
"301 286 CURVE",
"293 286 LINE",
"239 218 OFFCURVE",
"213 123 OFFCURVE",
"169 34 CURVE SMOOTH",
"158 13 OFFCURVE",
"145 0 OFFCURVE",
"118 0 CURVE SMOOTH",
"64 0 OFFCURVE",
"56 49 OFFCURVE",
"56 102 CURVE SMOOTH",
"56 214 OFFCURVE",
"78 331 OFFCURVE",
"106 421 CURVE SMOOTH",
"115 447 OFFCURVE",
"138 471 OFFCURVE",
"169 471 CURVE SMOOTH",
"195 471 OFFCURVE",
"216 452 OFFCURVE",
"216 424 CURVE SMOOTH",
"216 365 OFFCURVE",
"185 290 OFFCURVE",
"177 253 CURVE",
"183 247 LINE",
"216 321 OFFCURVE",
"263 407 OFFCURVE",
"322 456 CURVE SMOOTH",
"333 464 OFFCURVE",
"345 469 OFFCURVE",
"360 469 CURVE SMOOTH",
"388 469 OFFCURVE",
"410 451 OFFCURVE",
"410 423 CURVE SMOOTH",
"410 396 OFFCURVE",
"383 253 OFFCURVE",
"383 253 CURVE",
"388 247 LINE",
"422 326 OFFCURVE",
"465 403 OFFCURVE",
"516 455 CURVE SMOOTH",
"525 464 OFFCURVE",
"537 469 OFFCURVE",
"551 469 CURVE SMOOTH",
"581 469 OFFCURVE",
"605 453 OFFCURVE",
"605 423 CURVE SMOOTH",
"605 380 OFFCURVE",
"583 206 OFFCURVE",
"583 152 CURVE SMOOTH",
"583 121 OFFCURVE",
"587 94 OFFCURVE"
);
}
);
width = 652;
}
);
userData = {
com.fontlab.hintData = {
hhints = (
{
position = -9;
width = 201;
},
{
position = 944;
width = 20;
}
);
vhints = (
{
position = 981;
width = 213;
}
);
};
};
},
{
glyphname = n.fina;
lastChange = "2016-06-28 18:16:27 +0000";
layers = (
{
layerId = "85E06A60-3AC8-4D41-9F91-737269C30490";
paths = (
{
closed = 1;
nodes = (
"594 115 CURVE SMOOTH",
"594 36 OFFCURVE",
"448 -10 OFFCURVE",
"385 -10 CURVE SMOOTH",
"301 -10 OFFCURVE",
"281 65 OFFCURVE",
"281 148 CURVE SMOOTH",
"281 194 OFFCURVE",
"287 244 OFFCURVE",
"294 289 CURVE",
"286 289 LINE",
"158 35 LINE SMOOTH",
"147 13 OFFCURVE",
"135 0 OFFCURVE",
"108 0 CURVE SMOOTH",
"55 0 OFFCURVE",
"39 49 OFFCURVE",
"46 102 CURVE SMOOTH",
"87 416 LINE SMOOTH",
"91 445 OFFCURVE",
"114 469 OFFCURVE",
"149 469 CURVE SMOOTH",
"185 469 OFFCURVE",
"196 445 OFFCURVE",
"196 410 CURVE SMOOTH",
"196 361 OFFCURVE",
"177 313 OFFCURVE",
"177 266 CURVE",
"187 266 LINE",
"214 316 OFFCURVE",
"243 374 OFFCURVE",
"271 423 CURVE SMOOTH",
"289 452 OFFCURVE",
"311 469 OFFCURVE",
"352 469 CURVE SMOOTH",
"389 469 OFFCURVE",
"405 433 OFFCURVE",
"405 392 CURVE SMOOTH",
"405 311 OFFCURVE",
"382 230 OFFCURVE",
"382 136 CURVE SMOOTH",
"382 99 OFFCURVE",
"398 84 OFFCURVE",
"422 84 CURVE SMOOTH",
"477 84 OFFCURVE",
"528 128 OFFCURVE",
"558 150 CURVE SMOOTH",
"562 153 OFFCURVE",
"565 154 OFFCURVE",
"569 154 CURVE SMOOTH",
"583 154 OFFCURVE",
"594 131 OFFCURVE"
);
}
);
width = 511;
}
);
userData = {
com.fontlab.hintData = {
hhints = (
{
position = -21;
width = 194;
},
{
position = 940;
width = 20;
}
);
vhints = (
{
position = 178;
width = 224;
},
{
position = 575;
width = 208;
}
);
};
};
},
{
glyphname = o.fina;
lastChange = "2016-06-28 18:16:27 +0000";
layers = (
{
layerId = "85E06A60-3AC8-4D41-9F91-737269C30490";
paths = (
{
closed = 1;
nodes = (
"142 193 CURVE SMOOTH",
"142 140 OFFCURVE",
"160 94 OFFCURVE",
"213 94 CURVE SMOOTH",
"271 94 OFFCURVE",
"298 208 OFFCURVE",
"298 269 CURVE SMOOTH",
"298 317 OFFCURVE",
"288 375 OFFCURVE",
"241 375 CURVE SMOOTH",
"175 375 OFFCURVE",
"142 263 OFFCURVE"
);
},
{
closed = 1;
nodes = (
"33 213 CURVE SMOOTH",
"33 361 OFFCURVE",
"122 469 OFFCURVE",
"276 469 CURVE SMOOTH",
"374 469 OFFCURVE",
"473 398 OFFCURVE",
"522 301 CURVE SMOOTH",
"523 300 OFFCURVE",
"524 299 OFFCURVE",
"527 299 CURVE SMOOTH",
"541 299 OFFCURVE",
"595 330 OFFCURVE",
"615 340 CURVE SMOOTH",
"616 341 OFFCURVE",
"617 341 OFFCURVE",
"618 341 CURVE SMOOTH",
"625 341 OFFCURVE",
"634 328 OFFCURVE",
"634 308 CURVE SMOOTH",
"634 242 OFFCURVE",
"560 214 OFFCURVE",
"517 214 CURVE SMOOTH",
"458 214 OFFCURVE",
"409 259 OFFCURVE",
"373 337 CURVE",
"386 315 OFFCURVE",
"392 269 OFFCURVE",
"392 246 CURVE SMOOTH",
"392 120 OFFCURVE",
"318 0 OFFCURVE",
"194 0 CURVE SMOOTH",
"81 0 OFFCURVE",
"33 101 OFFCURVE"
);
}
);
width = 456;
}
);
userData = {
com.fontlab.hintData = {
hhints = (
{
position = 0;
width = 192;
},
{
position = 439;
width = 173;
},
{
position = 768;
width = 192;
}
);
vhints = (
{
position = 67;
width = 224;
},
{
position = 611;
width = 192;
}
);
};
};
},
{
glyphname = p.fina;
lastChange = "2016-06-28 18:16:27 +0000";
layers = (
{
layerId = "85E06A60-3AC8-4D41-9F91-737269C30490";
paths = (
{
closed = 1;
nodes = (
"-12 -215 CURVE SMOOTH",
"-12 -236 OFFCURVE",
"0 -268 OFFCURVE",
"21 -268 CURVE SMOOTH",
"54 -268 OFFCURVE",
"56 -153 OFFCURVE",
"56 -84 CURVE SMOOTH",
"56 -44 LINE",
"13 -103 OFFCURVE",
"-12 -157 OFFCURVE"
);
},
{
closed = 1;
nodes = (
"158 136 CURVE",
"277 142 OFFCURVE",
"329 225 OFFCURVE",
"329 311 CURVE SMOOTH",
"329 347 OFFCURVE",
"308 378 OFFCURVE",
"258 378 CURVE SMOOTH",
"163 378 OFFCURVE",
"158 223 OFFCURVE"
);
},
{
closed = 1;
nodes = (
"425 303 CURVE SMOOTH",
"425 156 OFFCURVE",
"357 56 OFFCURVE",
"169 56 CURVE SMOOTH",
"167 56 LINE",
"170 12 LINE",
"170 -140 OFFCURVE",
"138 -284 OFFCURVE",
"58 -352 CURVE SMOOTH",
"37 -371 OFFCURVE",
"14 -380 OFFCURVE",
"-9 -380 CURVE SMOOTH",
"-79 -380 OFFCURVE",
"-107 -314 OFFCURVE",
"-107 -243 CURVE SMOOTH",
"-107 -115 OFFCURVE",
"-29 -35 OFFCURVE",
"53 27 CURVE",
"51 68 OFFCURVE",
"51 107 OFFCURVE",
"51 145 CURVE SMOOTH",
"51 335 OFFCURVE",
"106 469 OFFCURVE",
"252 469 CURVE SMOOTH",
"366 469 OFFCURVE",
"425 409 OFFCURVE"
);
}
);
width = 413;
}
);
userData = {
com.fontlab.hintData = {
hhints = (
{
position = -778;
width = 229;
},
{
position = 114;
width = 164;
},
{
position = 774;
width = 186;
}
);
vhints = (
{
position = -219;
width = 195;
},
{
position = 104;
width = 220;
},
{
position = 114;
width = 234;
},
{
position = 673;
width = 197;
}
);
};
};
},
{
glyphname = s.fina;
lastChange = "2016-06-28 18:16:27 +0000";
layers = (
{
layerId = "85E06A60-3AC8-4D41-9F91-737269C30490";
paths = (
{
closed = 1;
nodes = (
"207 81 CURVE SMOOTH",
"207 75 OFFCURVE",
"218 74 OFFCURVE",
"222 74 CURVE SMOOTH",
"251 74 OFFCURVE",
"294 110 OFFCURVE",
"294 138 CURVE SMOOTH",
"294 182 OFFCURVE",
"249 234 OFFCURVE",
"214 265 CURVE",
"105 138 LINE",
"105 138 OFFCURVE",
"85 104 OFFCURVE",
"38 104 CURVE SMOOTH",
"20 104 OFFCURVE",
"14 125 OFFCURVE",
"14 153 CURVE SMOOTH",
"14 170 OFFCURVE",
"33 188 OFFCURVE",
"43 201 CURVE",
"87 256 OFFCURVE",
"150 346 OFFCURVE",
"199 422 CURVE SMOOTH",
"213 446 OFFCURVE",
"235 469 OFFCURVE",
"273 469 CURVE SMOOTH",
"320 469 OFFCURVE",
"336 452 OFFCURVE",
"336 429 CURVE SMOOTH",
"336 401 OFFCURVE",
"313 366 OFFCURVE",
"296 345 CURVE SMOOTH",
"290 337 OFFCURVE",
"286 332 OFFCURVE",
"286 328 CURVE",
"297 309 OFFCURVE",
"388 223 OFFCURVE",
"388 136 CURVE SMOOTH",
"388 56 OFFCURVE",
"335 -4 OFFCURVE",
"218 -4 CURVE SMOOTH",
"185 -4 OFFCURVE",
"143 14 OFFCURVE",
"143 59 CURVE SMOOTH",
"143 82 OFFCURVE",
"151 115 OFFCURVE",
"184 151 CURVE SMOOTH",
"243 235 OFFCURVE",
"322 310 OFFCURVE",
"432 338 CURVE SMOOTH",
"447 341 OFFCURVE",
"462 342 OFFCURVE",
"476 342 CURVE SMOOTH",
"526 342 OFFCURVE",
"562 295 OFFCURVE",
"612 251 CURVE SMOOTH",
"617 248 OFFCURVE",
"619 243 OFFCURVE",
"619 237 CURVE SMOOTH",
"619 222 OFFCURVE",
"606 201 OFFCURVE",
"599 201 CURVE SMOOTH",
"545 201 OFFCURVE",
"512 240 OFFCURVE",
"465 240 CURVE SMOOTH",
"452 240 OFFCURVE",
"438 239 OFFCURVE",
"423 236 CURVE SMOOTH",
"354 219 OFFCURVE",
"207 105 OFFCURVE"
);
}
);
width = 580;
}
);
userData = {
com.fontlab.hintData = {
hhints = (
{
position = -9;
width = 160;
},
{
position = 492;
width = 209;
},
{
position = 940;
width = 20;
}
);
vhints = (
{
position = 292;
width = 132;
},
{
position = 602;
width = 192;
}
);
};
};
},
{
glyphname = t.fina;
lastChange = "2016-06-28 18:16:27 +0000";
layers = (
{
layerId = "85E06A60-3AC8-4D41-9F91-737269C30490";
paths = (
{
closed = 1;
nodes = (
"199 527 CURVE",
"199 528 OFFCURVE",
"200 527 OFFCURVE",
"200 527 CURVE SMOOTH",
"239 575 OFFCURVE",
"282 632 OFFCURVE",
"309 688 CURVE",
"314 704 OFFCURVE",
"317 717 OFFCURVE",
"317 728 CURVE SMOOTH",
"317 748 OFFCURVE",
"313 766 OFFCURVE",
"292 766 CURVE SMOOTH",
"239 766 OFFCURVE",
"210 575 OFFCURVE"
);
},
{
closed = 1;
nodes = (
"290 -5 CURVE SMOOTH",
"103 -5 OFFCURVE",
"73 153 OFFCURVE",
"73 315 CURVE SMOOTH",
"73 360 OFFCURVE",
"81 409 OFFCURVE",
"92 450 CURVE",
"29 450 OFFCURVE",
"-9 472 OFFCURVE",
"-9 498 CURVE SMOOTH",
"-9 523 OFFCURVE",
"17 527 OFFCURVE",
"53 527 CURVE SMOOTH",
"106 527 LINE",
"129 646 OFFCURVE",
"169 776 OFFCURVE",
"240 846 CURVE SMOOTH",
"260 865 OFFCURVE",
"280 875 OFFCURVE",
"302 875 CURVE SMOOTH",
"368 875 OFFCURVE",
"396 799 OFFCURVE",
"396 732 CURVE SMOOTH",
"396 649 OFFCURVE",
"329 582 OFFCURVE",
"280 527 CURVE",
"285 527 OFFCURVE",
"292 527 OFFCURVE",
"302 527 CURVE SMOOTH",
"403 527 LINE SMOOTH",
"448 527 OFFCURVE",
"474 525 OFFCURVE",
"474 489 CURVE SMOOTH",
"474 469 OFFCURVE",
"460 450 OFFCURVE",
"442 450 CURVE SMOOTH",
"226 450 LINE",
"201 360 OFFCURVE",
"186 322 OFFCURVE",
"186 241 CURVE SMOOTH",
"186 142 OFFCURVE",
"225 98 OFFCURVE",
"296 98 CURVE SMOOTH",
"364 98 OFFCURVE",
"434 159 OFFCURVE",
"474 186 CURVE",
"478 190 OFFCURVE",
"482 192 OFFCURVE",
"488 192 CURVE SMOOTH",
"504 192 OFFCURVE",
"524 176 OFFCURVE",
"524 151 CURVE SMOOTH",
"524 141 OFFCURVE",
"522 128 OFFCURVE",
"513 118 CURVE SMOOTH",
"455 56 OFFCURVE",
"380 -5 OFFCURVE"
);
}
);
width = 375;
}
);
userData = {
com.fontlab.hintData = {
hhints = (
{
position = -11;
width = 212;
},
{
position = 922;
width = 158;
},
{
position = 1568;
width = 224;
}
);
vhints = (
{
position = 150;
width = 231;
},
{
position = 650;
width = 160;
}
);
};
};
},
{
glyphname = w.fina;
lastChange = "2016-06-28 18:16:27 +0000";
layers = (
{
layerId = "85E06A60-3AC8-4D41-9F91-737269C30490";
paths = (
{
closed = 1;
nodes = (
"729 179 CURVE SMOOTH",
"729 114 OFFCURVE",
"645 71 OFFCURVE",
"594 71 CURVE SMOOTH",
"518 71 OFFCURVE",
"481 110 OFFCURVE",
"465 148 CURVE",
"440 96 OFFCURVE",
"409 42 OFFCURVE",
"360 13 CURVE SMOOTH",
"346 5 OFFCURVE",
"334 0 OFFCURVE",
"321 0 CURVE SMOOTH",
"292 0 OFFCURVE",
"289 117 OFFCURVE",
"289 190 CURVE SMOOTH",
"289 211 OFFCURVE",
"289 228 OFFCURVE",
"289 239 CURVE",
"275 241 LINE",
"251 154 OFFCURVE",
"215 63 OFFCURVE",
"155 18 CURVE SMOOTH",
"139 6 OFFCURVE",
"124 0 OFFCURVE",
"109 0 CURVE SMOOTH",
"40 0 OFFCURVE",
"35 128 OFFCURVE",
"35 222 CURVE SMOOTH",
"35 250 LINE SMOOTH",
"35 334 OFFCURVE",
"42 469 OFFCURVE",
"126 469 CURVE",
"138 468 LINE",
"161 468 OFFCURVE",
"182 460 OFFCURVE",
"182 440 CURVE SMOOTH",
"182 437 LINE",
"148 173 LINE",
"154 173 LINE",
"188 250 OFFCURVE",
"211 326 OFFCURVE",
"247 396 CURVE SMOOTH",
"268 436 OFFCURVE",
"292 468 OFFCURVE",
"351 468 CURVE SMOOTH",
"374 468 OFFCURVE",
"396 460 OFFCURVE",
"396 441 CURVE SMOOTH",
"396 439 OFFCURVE",
"395 438 OFFCURVE",
"395 437 CURVE SMOOTH",
"355 173 LINE",
"362 173 LINE",
"479 434 LINE SMOOTH",
"487 455 OFFCURVE",
"519 469 OFFCURVE",
"550 469 CURVE SMOOTH",
"579 469 OFFCURVE",
"608 456 OFFCURVE",
"608 428 CURVE SMOOTH",
"608 373 OFFCURVE",
"574 323 OFFCURVE",
"556 284 CURVE SMOOTH",
"551 272 OFFCURVE",
"534 236 OFFCURVE",
"534 205 CURVE SMOOTH",
"534 178 OFFCURVE",
"546 155 OFFCURVE",
"590 155 CURVE SMOOTH",
"632 155 OFFCURVE",
"668 188 OFFCURVE",
"701 212 CURVE SMOOTH",
"703 214 OFFCURVE",
"705 214 OFFCURVE",
"707 214 CURVE SMOOTH",
"717 214 OFFCURVE",
"729 196 OFFCURVE"
);
}
);
width = 856;
}
);
userData = {
com.fontlab.hintData = {
hhints = (
{
position = 145;
width = 173;
},
{
position = 941;
width = 18;
}
);
vhints = (
{
position = 72;
width = 231;
},
{
position = 591;
width = 136;
}
);
};
};
},
{
glyphname = y.fina;
lastChange = "2016-06-28 18:16:27 +0000";
layers = (
{
layerId = "85E06A60-3AC8-4D41-9F91-737269C30490";
paths = (
{
closed = 1;
nodes = (
"84 -359 CURVE SMOOTH",
"180 -359 OFFCURVE",
"219 -204 OFFCURVE",
"234 -125 CURVE",
"170 -168 OFFCURVE",
"104 -239 OFFCURVE",
"72 -313 CURVE SMOOTH",
"67 -324 OFFCURVE",
"64 -334 OFFCURVE",
"64 -341 CURVE SMOOTH",
"64 -354 OFFCURVE",
"71 -359 OFFCURVE"
);
},
{
closed = 1;
nodes = (
"156 158 CURVE SMOOTH",
"156 127 OFFCURVE",
"163 94 OFFCURVE",
"194 94 CURVE SMOOTH",
"247 94 OFFCURVE",
"268 186 OFFCURVE",
"278 231 CURVE SMOOTH",
"313 375 LINE SMOOTH",
"321 413 OFFCURVE",
"358 444 OFFCURVE",
"403 444 CURVE SMOOTH",
"423 444 OFFCURVE",
"439 436 OFFCURVE",
"439 417 CURVE SMOOTH",
"439 351 OFFCURVE",
"411 270 OFFCURVE",
"400 201 CURVE SMOOTH",
"391 146 OFFCURVE",
"382 88 OFFCURVE",
"373 26 CURVE",
"445 52 OFFCURVE",
"536 68 OFFCURVE",
"602 82 CURVE SMOOTH",
"603 82 OFFCURVE",
"605 82 OFFCURVE",
"606 82 CURVE SMOOTH",
"655 82 OFFCURVE",
"692 49 OFFCURVE",
"692 21 CURVE SMOOTH",
"692 1 OFFCURVE",
"683 -16 OFFCURVE",
"661 -21 CURVE",
"595 -29 OFFCURVE",
"448 -52 OFFCURVE",
"359 -72 CURVE",
"332 -226 OFFCURVE",
"285 -386 OFFCURVE",
"155 -438 CURVE SMOOTH",
"132 -448 OFFCURVE",
"106 -453 OFFCURVE",
"78 -453 CURVE SMOOTH",
"12 -453 OFFCURVE",
"-31 -425 OFFCURVE",
"-31 -356 CURVE SMOOTH",
"-31 -213 OFFCURVE",
"138 -69 OFFCURVE",
"246 -9 CURVE",
"264 51 LINE",
"237 27 OFFCURVE",
"199 -1 OFFCURVE",
"154 -1 CURVE SMOOTH",
"79 -1 OFFCURVE",
"31 60 OFFCURVE",
"31 137 CURVE SMOOTH",
"31 250 OFFCURVE",
"57 331 OFFCURVE",
"94 406 CURVE SMOOTH",
"106 430 OFFCURVE",
"134 451 OFFCURVE",
"167 451 CURVE SMOOTH",
"190 451 OFFCURVE",
"208 439 OFFCURVE",
"208 416 CURVE SMOOTH",
"208 387 OFFCURVE",
"194 367 OFFCURVE",
"186 338 CURVE SMOOTH",
"171 285 OFFCURVE",
"156 222 OFFCURVE"
);
}
);
width = 574;
}
);
userData = {
com.fontlab.hintData = {
hhints = (
{
position = -928;
width = 192;
},
{
position = -2;
width = 194;
},
{
position = 889;
width = 35;
}
);
vhints = (
{
position = -64;
width = 196;
},
{
position = 64;
width = 256;
},
{
position = 192;
width = 235;
},
{
position = 640;
width = 259;
}
);
};
};
},
{
glyphname = f.init;
lastChange = "2016-06-28 18:16:27 +0000";
layers = (
{
layerId = "85E06A60-3AC8-4D41-9F91-737269C30490";
paths = (
{
closed = 1;
nodes = (
"571 318 CURVE SMOOTH",
"571 221 OFFCURVE",
"438 212 OFFCURVE",
"339 208 CURVE",
"366 149 OFFCURVE",
"397 75 OFFCURVE",
"397 -14 CURVE SMOOTH",
"397 -130 OFFCURVE",
"347 -295 OFFCURVE",
"220 -295 CURVE SMOOTH",
"118 -295 OFFCURVE",
"104 -135 OFFCURVE",
"104 -19 CURVE SMOOTH",
"104 27 OFFCURVE",
"107 84 OFFCURVE",
"113 147 CURVE",
"67 110 OFFCURVE",
"18 75 OFFCURVE",
"-37 42 CURVE SMOOTH",
"-41 40 OFFCURVE",
"-44 38 OFFCURVE",
"-48 38 CURVE SMOOTH",
"-70 38 OFFCURVE",
"-101 71 OFFCURVE",
"-101 93 CURVE SMOOTH",
"-101 99 OFFCURVE",
"-99 104 OFFCURVE",
"-94 107 CURVE SMOOTH",
"10 178 OFFCURVE",
"65 216 OFFCURVE",
"128 278 CURVE",
"171 569 OFFCURVE",
"274 906 OFFCURVE",
"470 906 CURVE SMOOTH",
"531 906 OFFCURVE",
"567 860 OFFCURVE",
"567 793 CURVE SMOOTH",
"567 607 OFFCURVE",
"401 407 OFFCURVE",
"305 294 CURVE",
"319 290 OFFCURVE",
"342 287 OFFCURVE",
"361 287 CURVE SMOOTH",
"442 287 OFFCURVE",
"478 312 OFFCURVE",
"545 349 CURVE SMOOTH",
"548 351 OFFCURVE",
"551 352 OFFCURVE",
"554 352 CURVE SMOOTH",
"565 352 OFFCURVE",
"571 337 OFFCURVE"
);
},
{
closed = 1;
nodes = (
"235 -185 CURVE SMOOTH",
"293 -185 OFFCURVE",
"294 -84 OFFCURVE",
"294 -30 CURVE SMOOTH",
"294 -28 LINE SMOOTH",
"294 91 OFFCURVE",
"263 188 OFFCURVE",
"228 255 CURVE",
"223 161 OFFCURVE",
"214 70 OFFCURVE",
"214 -23 CURVE SMOOTH",
"214 -91 OFFCURVE",
"216 -185 OFFCURVE"
);
},
{
closed = 1;
nodes = (
"476 747 CURVE SMOOTH",
"476 773 OFFCURVE",
"472 796 OFFCURVE",
"452 796 CURVE SMOOTH",
"340 796 OFFCURVE",
"262 378 OFFCURVE",
"249 335 CURVE",
"325 429 OFFCURVE",
"476 618 OFFCURVE"
);
}
);
width = 423;
}
);
userData = {
com.fontlab.hintData = {
hhints = (
{
position = -604;
width = 225;
},
{
position = 427;
width = 160;
},
{
position = 1631;
width = 225;
}
);
vhints = (
{
position = 214;
width = 225;
},
{
position = 602;
width = 211;
},
{
position = 975;
width = 187;
}
);
};
};
},
{
glyphname = p.init;
lastChange = "2016-06-28 18:16:27 +0000";
layers = (
{
layerId = "85E06A60-3AC8-4D41-9F91-737269C30490";
paths = (
{
closed = 1;
nodes = (
"34 -21 CURVE SMOOTH",
"34 20 LINE",
"15 0 OFFCURVE",
"-53 -104 OFFCURVE",
"-53 -154 CURVE SMOOTH",
"-53 -188 OFFCURVE",
"-42 -207 OFFCURVE",
"-26 -207 CURVE SMOOTH",
"-1 -207 OFFCURVE",
"34 -152 OFFCURVE"
);
},
{
closed = 1;
nodes = (
"313 -5 CURVE SMOOTH",
"244 -5 OFFCURVE",
"174 12 OFFCURVE",
"139 75 CURVE",
"139 -69 OFFCURVE",
"105 -204 OFFCURVE",
"24 -269 CURVE SMOOTH",
"2 -287 OFFCURVE",
"-20 -297 OFFCURVE",
"-43 -297 CURVE SMOOTH",
"-113 -297 OFFCURVE",
"-141 -231 OFFCURVE",
"-141 -160 CURVE SMOOTH",
"-141 -29 OFFCURVE",
"-56 52 OFFCURVE",
"33 115 CURVE",
"53 265 OFFCURVE",
"67 469 OFFCURVE",
"297 469 CURVE SMOOTH",
"393 469 OFFCURVE",
"441 422 OFFCURVE",
"441 338 CURVE SMOOTH",
"441 223 OFFCURVE",
"354 146 OFFCURVE",
"232 104 CURVE",
"242 78 OFFCURVE",
"262 74 OFFCURVE",
"290 74 CURVE SMOOTH",
"391 74 OFFCURVE",
"456 173 OFFCURVE",
"491 233 CURVE SMOOTH",
"495 238 OFFCURVE",
"499 241 OFFCURVE",
"503 241 CURVE SMOOTH",
"521 241 OFFCURVE",
"544 196 OFFCURVE",
"544 170 CURVE SMOOTH",
"544 158 OFFCURVE",
"539 150 OFFCURVE",
"534 141 CURVE SMOOTH",
"472 37 OFFCURVE",
"391 -5 OFFCURVE"
);
},
{
closed = 1;
nodes = (
"150 161 CURVE",
"238 188 OFFCURVE",
"346 247 OFFCURVE",
"346 331 CURVE SMOOTH",
"346 356 OFFCURVE",
"328 378 OFFCURVE",
"285 378 CURVE SMOOTH",
"176 378 OFFCURVE",
"158 239 OFFCURVE"
);
}
);
width = 438;
}
);
userData = {
com.fontlab.hintData = {
hhints = (
{
position = -608;
width = 184;
},
{
position = -10;
width = 161;
},
{
position = 774;
width = 186;
}
);
vhints = (
{
position = -289;
width = 180;
},
{
position = 69;
width = 215;
},
{
position = 708;
width = 195;
}
);
};
};
},
{
glyphname = s.init;
lastChange = "2016-06-28 18:16:27 +0000";
layers = (
{
layerId = "85E06A60-3AC8-4D41-9F91-737269C30490";
paths = (
{
closed = 1;
nodes = (
"329 -8 CURVE SMOOTH",
"300 -8 OFFCURVE",
"243 0 OFFCURVE",
"243 34 CURVE SMOOTH",
"243 58 OFFCURVE",
"272 87 OFFCURVE",
"291 87 CURVE SMOOTH",
"299 87 OFFCURVE",
"307 82 OFFCURVE",
"313 82 CURVE SMOOTH",
"350 82 OFFCURVE",
"376 104 OFFCURVE",
"376 150 CURVE SMOOTH",
"376 181 OFFCURVE",
"342 217 OFFCURVE",
"316 238 CURVE",
"267 192 OFFCURVE",
"176 146 OFFCURVE",
"117 146 CURVE SMOOTH",
"112 146 OFFCURVE",
"108 146 OFFCURVE",
"104 146 CURVE SMOOTH",
"75 146 OFFCURVE",
"65 160 OFFCURVE",
"65 176 CURVE SMOOTH",
"65 193 OFFCURVE",
"75 211 OFFCURVE",
"80 224 CURVE",
"199 244 OFFCURVE",
"291 321 OFFCURVE",
"348 407 CURVE",
"377 443 OFFCURVE",
"410 467 OFFCURVE",
"444 467 CURVE SMOOTH",
"478 467 OFFCURVE",
"486 437 OFFCURVE",
"486 413 CURVE SMOOTH",
"486 381 OFFCURVE",
"480 351 OFFCURVE",
"458 335 CURVE SMOOTH",
"411 304 LINE",
"431 279 OFFCURVE",
"484 231 OFFCURVE",
"484 182 CURVE SMOOTH",
"484 158 OFFCURVE",
"479 134 OFFCURVE",
"469 111 CURVE",
"533 145 OFFCURVE",
"573 183 OFFCURVE",
"612 219 CURVE SMOOTH",
"616 222 OFFCURVE",
"620 223 OFFCURVE",
"624 223 CURVE SMOOTH",
"637 223 OFFCURVE",
"643 203 OFFCURVE",
"643 179 CURVE SMOOTH",
"643 151 OFFCURVE",
"638 140 OFFCURVE",
"627 129 CURVE SMOOTH",
"579 74 OFFCURVE",
"438 -8 OFFCURVE"
);
}
);
width = 509;
}
);
userData = {
com.fontlab.hintData = {
hhints = (
{
position = -17;
width = 184;
},
{
position = 300;
width = 159;
},
{
position = 937;
width = 20;
}
);
vhints = (
{
position = 771;
width = 220;
}
);
};
};
},
{
glyphname = t.init;
lastChange = "2016-06-28 18:16:27 +0000";
layers = (
{
layerId = "85E06A60-3AC8-4D41-9F91-737269C30490";
paths = (
{
closed = 1;
nodes = (
"333 450 LINE",
"306 429 OFFCURVE",
"285 413 OFFCURVE",
"269 398 CURVE",
"266 350 OFFCURVE",
"264 305 OFFCURVE",
"264 241 CURVE SMOOTH",
"264 154 OFFCURVE",
"300 100 OFFCURVE",
"350 100 CURVE SMOOTH",
"421 100 OFFCURVE",
"480 176 OFFCURVE",
"518 215 CURVE SMOOTH",
"521 219 OFFCURVE",
"526 222 OFFCURVE",
"532 222 CURVE SMOOTH",
"548 222 OFFCURVE",
"568 205 OFFCURVE",
"568 180 CURVE SMOOTH",
"568 170 OFFCURVE",
"565 159 OFFCURVE",
"557 147 CURVE SMOOTH",
"500 66 OFFCURVE",
"430 -4 OFFCURVE",
"341 -4 CURVE SMOOTH",
"192 -4 OFFCURVE",
"158 134 OFFCURVE",
"152 272 CURVE",
"103 230 OFFCURVE",
"50 191 OFFCURVE",
"-12 155 CURVE",
"-37 134 OFFCURVE",
"-97 201 OFFCURVE",
"-69 220 CURVE SMOOTH",
"38 293 OFFCURVE",
"93 331 OFFCURVE",
"159 396 CURVE",
"162 415 OFFCURVE",
"166 433 OFFCURVE",
"170 450 CURVE",
"107 450 OFFCURVE",
"69 472 OFFCURVE",
"69 498 CURVE SMOOTH",
"69 523 OFFCURVE",
"95 527 OFFCURVE",
"131 527 CURVE SMOOTH",
"184 527 LINE",
"208 646 OFFCURVE",
"248 776 OFFCURVE",
"318 846 CURVE SMOOTH",
"338 865 OFFCURVE",
"358 875 OFFCURVE",
"380 875 CURVE SMOOTH",
"446 875 OFFCURVE",
"474 799 OFFCURVE",
"474 732 CURVE SMOOTH",
"474 649 OFFCURVE",
"424 582 OFFCURVE",
"387 527 CURVE",
"393 527 OFFCURVE",
"400 527 OFFCURVE",
"409 527 CURVE SMOOTH",
"481 527 LINE SMOOTH",
"526 527 OFFCURVE",
"552 525 OFFCURVE",
"552 489 CURVE SMOOTH",
"552 469 OFFCURVE",
"539 450 OFFCURVE",
"521 450 CURVE SMOOTH"
);
},
{
closed = 1;
nodes = (
"277 527 CURVE",
"288 528 OFFCURVE",
"297 527 OFFCURVE",
"307 527 CURVE",
"336 575 OFFCURVE",
"368 632 OFFCURVE",
"387 688 CURVE SMOOTH",
"393 704 OFFCURVE",
"396 717 OFFCURVE",
"396 728 CURVE SMOOTH",
"396 748 OFFCURVE",
"391 766 OFFCURVE",
"370 766 CURVE SMOOTH",
"317 766 OFFCURVE",
"288 575 OFFCURVE"
);
}
);
width = 434;
}
);
userData = {
com.fontlab.hintData = {
hhints = (
{
position = -9;
width = 213;
},
{
position = 922;
width = 158;
},
{
position = 1568;
width = 224;
}
);
vhints = (
{
position = 312;
width = 229;
},
{
position = 377;
width = 191;
},
{
position = 810;
width = 160;
}
);
};
};
},
{
glyphname = i_t;
lastChange = "2016-06-28 18:16:27 +0000";
layers = (
{
layerId = "85E06A60-3AC8-4D41-9F91-737269C30490";
paths = (
{
closed = 1;
nodes = (
"207 546 CURVE SMOOTH",
"148 546 OFFCURVE",
"113 571 OFFCURVE",
"113 621 CURVE SMOOTH",
"113 671 OFFCURVE",
"159 702 OFFCURVE",
"218 702 CURVE SMOOTH",
"258 702 OFFCURVE",
"287 682 OFFCURVE",
"287 634 CURVE SMOOTH",
"287 579 OFFCURVE",
"254 546 OFFCURVE"
);
},
{
closed = 1;
nodes = (
"637 524 CURVE SMOOTH",
"703 524 OFFCURVE",
"729 528 OFFCURVE",
"729 476 CURVE SMOOTH",
"729 464 OFFCURVE",
"716 453 OFFCURVE",
"698 453 CURVE SMOOTH",
"510 453 LINE",
"493 424 OFFCURVE",
"473 392 OFFCURVE",
"455 365 CURVE",
"452 313 OFFCURVE",
"449 260 OFFCURVE",
"449 205 CURVE SMOOTH",
"449 148 OFFCURVE",
"466 109 OFFCURVE",
"521 109 CURVE SMOOTH",
"603 109 OFFCURVE",
"688 188 OFFCURVE",
"729 234 CURVE",
"729 109 LINE",
"688 59 OFFCURVE",
"583 0 OFFCURVE",
"489 0 CURVE SMOOTH",
"417 0 OFFCURVE",
"375 46 OFFCURVE",
"351 109 CURVE",
"301 61 OFFCURVE",
"221 0 OFFCURVE",
"134 0 CURVE SMOOTH",
"70 0 OFFCURVE",
"43 35 OFFCURVE",
"43 98 CURVE SMOOTH",
"43 214 OFFCURVE",
"85 323 OFFCURVE",
"109 421 CURVE SMOOTH",
"117 453 OFFCURVE",
"160 469 OFFCURVE",
"198 469 CURVE SMOOTH",
"222 469 OFFCURVE",
"233 459 OFFCURVE",
"233 431 CURVE SMOOTH",
"233 394 OFFCURVE",
"168 248 OFFCURVE",
"168 142 CURVE SMOOTH",
"168 117 OFFCURVE",
"170 94 OFFCURVE",
"193 94 CURVE SMOOTH",
"246 94 OFFCURVE",
"297 134 OFFCURVE",
"332 170 CURVE",
"331 184 OFFCURVE",
"331 199 OFFCURVE",
"331 214 CURVE SMOOTH",
"331 289 OFFCURVE",
"338 378 OFFCURVE",
"348 453 CURVE",
"303 453 LINE",
"281 457 OFFCURVE",
"272 470 OFFCURVE",
"272 501 CURVE SMOOTH",
"272 522 OFFCURVE",
"289 527 OFFCURVE",
"309 527 CURVE SMOOTH",
"322 527 OFFCURVE",
"337 525 OFFCURVE",
"349 525 CURVE SMOOTH",
"354 525 OFFCURVE",
"358 525 OFFCURVE",
"361 526 CURVE",
"385 646 OFFCURVE",
"425 776 OFFCURVE",
"495 846 CURVE SMOOTH",
"515 865 OFFCURVE",
"536 875 OFFCURVE",
"558 875 CURVE SMOOTH",
"623 875 OFFCURVE",
"651 799 OFFCURVE",
"651 732 CURVE SMOOTH",
"651 647 OFFCURVE",
"601 581 OFFCURVE",
"564 525 CURVE",
"570 524 OFFCURVE",
"577 524 OFFCURVE",
"586 524 CURVE SMOOTH",
"601 524 OFFCURVE",
"619 524 OFFCURVE"
);
},
{
closed = 1;
nodes = (
"484 524 CURVE",
"515 576 OFFCURVE",
"573 655 OFFCURVE",
"573 728 CURVE SMOOTH",
"573 748 OFFCURVE",
"568 766 OFFCURVE",
"547 766 CURVE SMOOTH",
"495 766 OFFCURVE",
"465 575 OFFCURVE",
"455 527 CURVE",
"465 526 OFFCURVE",
"474 525 OFFCURVE"
);
}
);
width = 594;
}
);
userData = {
com.fontlab.hintData = {
hhints = (
{
position = 0;
width = 224;
},
{
position = 0;
width = 192;
},
{
position = 928;
width = 147;
},
{
position = 940;
width = 20;
},
{
position = 1119;
width = 319;
},
{
position = 1568;
width = 224;
}
);
vhints = (
{
position = 88;
width = 256;
},
{
position = 231;
width = 356;
},
{
position = 677;
width = 242;
},
{
position = 1173;
width = 160;
}
);
};
};
},
{
glyphname = i_t_t;
lastChange = "2016-06-28 18:16:27 +0000";
layers = (
{
layerId = "85E06A60-3AC8-4D41-9F91-737269C30490";
paths = (
{
closed = 1;
nodes = (
"203 551 CURVE SMOOTH",
"150 551 OFFCURVE",
"119 576 OFFCURVE",
"119 625 CURVE SMOOTH",
"119 676 OFFCURVE",
"161 707 OFFCURVE",
"214 707 CURVE SMOOTH",
"262 707 OFFCURVE",
"297 687 OFFCURVE",
"297 639 CURVE SMOOTH",
"297 583 OFFCURVE",
"259 551 OFFCURVE"
);
},
{
closed = 1;
nodes = (
"833 205 CURVE SMOOTH",
"833 148 OFFCURVE",
"850 109 OFFCURVE",
"904 109 CURVE SMOOTH",
"986 109 OFFCURVE",
"1071 188 OFFCURVE",
"1113 234 CURVE",
"1113 109 LINE",
"1056 66 OFFCURVE",
"992 26 OFFCURVE",
"917 7 CURVE SMOOTH",
"900 2 OFFCURVE",
"885 0 OFFCURVE",
"873 0 CURVE SMOOTH",
"770 0 OFFCURVE",
"740 118 OFFCURVE",
"728 215 CURVE",
"687 133 OFFCURVE",
"630 52 OFFCURVE",
"553 13 CURVE SMOOTH",
"536 4 OFFCURVE",
"522 0 OFFCURVE",
"512 0 CURVE SMOOTH",
"447 0 OFFCURVE",
"411 48 OFFCURVE",
"390 113 CURVE",
"333 63 OFFCURVE",
"239 0 OFFCURVE",
"138 0 CURVE SMOOTH",
"74 0 OFFCURVE",
"47 35 OFFCURVE",
"47 98 CURVE SMOOTH",
"47 214 OFFCURVE",
"87 323 OFFCURVE",
"110 421 CURVE SMOOTH",
"118 453 OFFCURVE",
"161 469 OFFCURVE",
"199 469 CURVE SMOOTH",
"223 469 OFFCURVE",
"234 461 OFFCURVE",
"234 441 CURVE SMOOTH",
"234 339 OFFCURVE",
"172 251 OFFCURVE",
"172 142 CURVE SMOOTH",
"172 117 OFFCURVE",
"174 94 OFFCURVE",
"197 94 CURVE SMOOTH",
"264 94 OFFCURVE",
"331 155 OFFCURVE",
"373 199 CURVE",
"367 241 OFFCURVE",
"366 285 OFFCURVE",
"366 325 CURVE SMOOTH",
"366 364 OFFCURVE",
"370 407 OFFCURVE",
"375 443 CURVE",
"369 445 OFFCURVE",
"361 445 OFFCURVE",
"354 445 CURVE SMOOTH",
"344 445 LINE SMOOTH",
"317 445 OFFCURVE",
"290 448 OFFCURVE",
"290 501 CURVE SMOOTH",
"290 527 OFFCURVE",
"309 529 OFFCURVE",
"337 529 CURVE SMOOTH",
"354 529 OFFCURVE",
"370 526 OFFCURVE",
"389 526 CURVE",
"412 646 OFFCURVE",
"452 776 OFFCURVE",
"522 846 CURVE",
"541 865 OFFCURVE",
"560 875 OFFCURVE",
"580 875 CURVE SMOOTH",
"652 875 OFFCURVE",
"683 807 OFFCURVE",
"683 747 CURVE SMOOTH",
"683 652 OFFCURVE",
"628 577 OFFCURVE",
"587 515 CURVE",
"633 510 OFFCURVE",
"693 512 OFFCURVE",
"741 511 CURVE",
"767 640 OFFCURVE",
"810 798 OFFCURVE",
"901 861 CURVE SMOOTH",
"915 871 OFFCURVE",
"928 875 OFFCURVE",
"941 875 CURVE SMOOTH",
"1007 875 OFFCURVE",
"1035 799 OFFCURVE",
"1035 732 CURVE SMOOTH",
"1035 644 OFFCURVE",
"985 573 OFFCURVE",
"948 515 CURVE",
"975 513 OFFCURVE",
"1055 519 OFFCURVE",
"1064 499 CURVE SMOOTH",
"1067 493 OFFCURVE",
"1069 485 OFFCURVE",
"1069 476 CURVE SMOOTH",
"1069 457 OFFCURVE",
"1056 438 OFFCURVE",
"1038 438 CURVE SMOOTH",
"894 438 LINE",
"877 414 OFFCURVE",
"856 387 OFFCURVE",
"839 365 CURVE",
"835 313 OFFCURVE",
"833 260 OFFCURVE"
);
},
{
closed = 1;
nodes = (
"472 229 CURVE SMOOTH",
"472 174 OFFCURVE",
"480 109 OFFCURVE",
"535 109 CURVE SMOOTH",
"539 109 LINE SMOOTH",
"571 109 OFFCURVE",
"603 152 OFFCURVE",
"623 176 CURVE SMOOTH",
"659 219 OFFCURVE",
"694 274 OFFCURVE",
"722 328 CURVE",
"722 366 OFFCURVE",
"725 402 OFFCURVE",
"729 438 CURVE",
"542 438 LINE",
"500 379 OFFCURVE",
"472 335 OFFCURVE"
);
},
{
closed = 1;
nodes = (
"957 728 CURVE SMOOTH",
"957 748 OFFCURVE",
"952 766 OFFCURVE",
"931 766 CURVE SMOOTH",
"874 766 OFFCURVE",
"844 561 OFFCURVE",
"833 513 CURVE",
"863 514 LINE",
"894 565 OFFCURVE",
"927 626 OFFCURVE",
"948 686 CURVE SMOOTH",
"954 703 OFFCURVE",
"957 717 OFFCURVE"
);
},
{
closed = 1;
nodes = (
"486 524 CURVE SMOOTH",
"506 524 LINE SMOOTH",
"508 524 OFFCURVE",
"510 524 OFFCURVE",
"512 524 CURVE",
"539 573 OFFCURVE",
"569 630 OFFCURVE",
"587 688 CURVE SMOOTH",
"592 704 OFFCURVE",
"595 717 OFFCURVE",
"595 728 CURVE SMOOTH",
"595 748 OFFCURVE",
"590 766 OFFCURVE",
"569 766 CURVE SMOOTH",
"518 766 OFFCURVE",
"491 570 OFFCURVE",
"482 525 CURVE",
"483 524 OFFCURVE",
"485 524 OFFCURVE"
);
}
);
width = 1028;
}
);
userData = {
com.fontlab.hintData = {
hhints = (
{
position = 0;
width = 224;
},
{
position = 0;
width = 192;
},
{
position = 896;
width = 150;
},
{
position = 911;
width = 172;
},
{
position = 940;
width = 20;
},
{
position = 1129;
width = 319;
},
{
position = 1568;
width = 224;
}
);
vhints = (
{
position = 96;
width = 256;
},
{
position = 243;
width = 366;
},
{
position = 749;
width = 217;
},
{
position = 1219;
width = 180;
},
{
position = 1479;
width = 226;
},
{
position = 1518;
width = 189;
},
{
position = 1959;
width = 160;
}
);
};
};
},
{
glyphname = i_x;
lastChange = "2016-06-28 18:16:27 +0000";
layers = (
{
layerId = "85E06A60-3AC8-4D41-9F91-737269C30490";
paths = (
{
closed = 1;
nodes = (
"259 140 CURVE SMOOTH",
"282 140 OFFCURVE",
"294 115 OFFCURVE",
"310 115 CURVE SMOOTH",
"332 115 OFFCURVE",
"380 182 OFFCURVE",
"396 210 CURVE",
"366 270 OFFCURVE",
"341 332 OFFCURVE",
"318 401 CURVE SMOOTH",
"317 403 OFFCURVE",
"317 404 OFFCURVE",
"317 406 CURVE SMOOTH",
"317 427 OFFCURVE",
"357 447 OFFCURVE",
"384 447 CURVE SMOOTH",
"438 447 OFFCURVE",
"460 335 OFFCURVE",
"479 290 CURVE",
"517 338 OFFCURVE",
"558 384 OFFCURVE",
"606 422 CURVE SMOOTH",
"618 431 OFFCURVE",
"632 437 OFFCURVE",
"649 437 CURVE SMOOTH",
"679 437 OFFCURVE",
"695 411 OFFCURVE",
"695 381 CURVE SMOOTH",
"695 357 OFFCURVE",
"685 338 OFFCURVE",
"669 328 CURVE SMOOTH",
"614 292 OFFCURVE",
"566 246 OFFCURVE",
"522 198 CURVE",
"539 174 OFFCURVE",
"573 109 OFFCURVE",
"613 109 CURVE SMOOTH",
"656 109 OFFCURVE",
"702 141 OFFCURVE",
"733 168 CURVE SMOOTH",
"742 176 OFFCURVE",
"750 179 OFFCURVE",
"756 179 CURVE SMOOTH",
"771 179 OFFCURVE",
"775 160 OFFCURVE",
"775 140 CURVE SMOOTH",
"775 120 OFFCURVE",
"770 98 OFFCURVE",
"765 95 CURVE",
"720 52 OFFCURVE",
"646 0 OFFCURVE",
"560 0 CURVE SMOOTH",
"510 0 OFFCURVE",
"471 67 OFFCURVE",
"443 115 CURVE",
"415 80 OFFCURVE",
"368 0 OFFCURVE",
"314 0 CURVE SMOOTH",
"283 0 OFFCURVE",
"262 14 OFFCURVE",
"249 36 CURVE",
"216 17 OFFCURVE",
"176 0 OFFCURVE",
"134 0 CURVE SMOOTH",
"70 0 OFFCURVE",
"43 35 OFFCURVE",
"43 98 CURVE SMOOTH",
"43 214 OFFCURVE",
"93 322 OFFCURVE",
"119 421 CURVE SMOOTH",
"127 453 OFFCURVE",
"160 469 OFFCURVE",
"191 469 CURVE SMOOTH",
"214 469 OFFCURVE",
"226 461 OFFCURVE",
"226 441 CURVE SMOOTH",
"226 339 OFFCURVE",
"160 251 OFFCURVE",
"160 142 CURVE SMOOTH",
"160 39 OFFCURVE",
"227 140 OFFCURVE"
);
},
{
closed = 1;
nodes = (
"219 532 CURVE SMOOTH",
"167 532 OFFCURVE",
"135 557 OFFCURVE",
"135 606 CURVE SMOOTH",
"135 657 OFFCURVE",
"177 688 OFFCURVE",
"230 688 CURVE SMOOTH",
"275 688 OFFCURVE",
"309 667 OFFCURVE",
"309 619 CURVE SMOOTH",
"309 564 OFFCURVE",
"272 532 OFFCURVE"
);
}
);
width = 701;
}
);
userData = {
com.fontlab.hintData = {
hhints = (
{
position = 0;
width = 236;
},
{
position = 896;
width = 64;
},
{
position = 1089;
width = 319;
}
);
vhints = (
{
position = 88;
width = 239;
},
{
position = 276;
width = 356;
}
);
};
};
},
{
glyphname = l_i;
lastChange = "2016-06-28 18:16:27 +0000";
layers = (
{
layerId = "85E06A60-3AC8-4D41-9F91-737269C30490";
paths = (
{
closed = 1;
nodes = (
"588 532 CURVE SMOOTH",
"536 532 OFFCURVE",
"504 557 OFFCURVE",
"504 606 CURVE SMOOTH",
"504 657 OFFCURVE",
"546 688 OFFCURVE",
"600 688 CURVE SMOOTH",
"647 688 OFFCURVE",
"683 667 OFFCURVE",
"683 619 CURVE SMOOTH",
"683 564 OFFCURVE",
"645 532 OFFCURVE"
);
},
{
closed = 1;
nodes = (
"157 225 CURVE SMOOTH",
"157 141 OFFCURVE",
"178 107 OFFCURVE",
"211 107 CURVE SMOOTH",
"262 107 OFFCURVE",
"344 187 OFFCURVE",
"427 282 CURVE",
"440 331 OFFCURVE",
"454 377 OFFCURVE",
"465 421 CURVE SMOOTH",
"473 453 OFFCURVE",
"516 469 OFFCURVE",
"554 469 CURVE SMOOTH",
"578 469 OFFCURVE",
"589 461 OFFCURVE",
"589 441 CURVE SMOOTH",
"589 339 OFFCURVE",
"524 251 OFFCURVE",
"524 142 CURVE SMOOTH",
"524 117 OFFCURVE",
"526 94 OFFCURVE",
"549 94 CURVE SMOOTH",
"609 94 OFFCURVE",
"666 161 OFFCURVE",
"702 189 CURVE SMOOTH",
"709 195 OFFCURVE",
"715 198 OFFCURVE",
"720 198 CURVE SMOOTH",
"734 198 OFFCURVE",
"737 173 OFFCURVE",
"737 153 CURVE SMOOTH",
"737 140 OFFCURVE",
"736 128 OFFCURVE",
"736 128 CURVE",
"682 73 OFFCURVE",
"589 0 OFFCURVE",
"490 0 CURVE SMOOTH",
"426 0 OFFCURVE",
"399 35 OFFCURVE",
"399 98 CURVE SMOOTH",
"399 113 OFFCURVE",
"400 127 OFFCURVE",
"401 142 CURVE",
"327 63 OFFCURVE",
"251 0 OFFCURVE",
"157 0 CURVE SMOOTH",
"64 0 OFFCURVE",
"31 156 OFFCURVE",
"31 253 CURVE SMOOTH",
"31 487 OFFCURVE",
"94 720 OFFCURVE",
"207 854 CURVE SMOOTH",
"243 896 OFFCURVE",
"287 938 OFFCURVE",
"355 938 CURVE SMOOTH",
"411 938 OFFCURVE",
"425 884 OFFCURVE",
"425 827 CURVE SMOOTH",
"425 583 OFFCURVE",
"285 408 OFFCURVE",
"166 276 CURVE SMOOTH",
"158 267 OFFCURVE",
"157 243 OFFCURVE"
);
},
{
closed = 1;
nodes = (
"333 778 CURVE SMOOTH",
"333 791 OFFCURVE",
"329 801 OFFCURVE",
"318 801 CURVE SMOOTH",
"208 801 OFFCURVE",
"167 476 OFFCURVE",
"167 361 CURVE",
"227 466 OFFCURVE",
"287 585 OFFCURVE",
"321 713 CURVE SMOOTH",
"328 736 OFFCURVE",
"333 758 OFFCURVE"
);
}
);
width = 653;
}
);
userData = {
com.fontlab.hintData = {
hhints = (
{
position = 0;
width = 220;
},
{
position = 0;
width = 192;
},
{
position = 940;
width = 20;
},
{
position = 1089;
width = 319;
},
{
position = 1641;
width = 279;
}
);
vhints = (
{
position = 64;
width = 258;
},
{
position = 683;
width = 188;
},
{
position = 817;
width = 256;
},
{
position = 953;
width = 254;
},
{
position = 1032;
width = 366;
}
);
};
};
},
{
glyphname = l_k;
lastChange = "2016-06-28 18:16:27 +0000";
layers = (
{
layerId = "85E06A60-3AC8-4D41-9F91-737269C30490";
paths = (
{
closed = 1;
nodes = (
"659 821 CURVE SMOOTH",
"604 821 OFFCURVE",
"582 726 OFFCURVE",
"568 682 CURVE SMOOTH",
"536 579 OFFCURVE",
"523 457 OFFCURVE",
"514 334 CURVE",
"560 472 OFFCURVE",
"611 611 OFFCURVE",
"655 744 CURVE SMOOTH",
"662 763 OFFCURVE",
"669 785 OFFCURVE",
"669 806 CURVE SMOOTH",
"669 816 OFFCURVE",
"666 821 OFFCURVE"
);
},
{
closed = 1;
nodes = (
"161 225 CURVE SMOOTH",
"161 194 OFFCURVE",
"166 119 OFFCURVE",
"193 119 CURVE SMOOTH",
"266 119 OFFCURVE",
"352 188 OFFCURVE",
"404 237 CURVE",
"413 463 OFFCURVE",
"449 685 OFFCURVE",
"535 829 CURVE SMOOTH",
"564 878 OFFCURVE",
"609 931 OFFCURVE",
"684 931 CURVE SMOOTH",
"749 931 OFFCURVE",
"768 887 OFFCURVE",
"768 823 CURVE SMOOTH",
"768 645 OFFCURVE",
"677 486 OFFCURVE",
"610 367 CURVE",
"555 279 LINE",
"563 273 LINE",
"615 335 OFFCURVE",
"654 413 OFFCURVE",
"720 454 CURVE SMOOTH",
"737 464 OFFCURVE",
"756 470 OFFCURVE",
"777 470 CURVE SMOOTH",
"831 470 OFFCURVE",
"861 434 OFFCURVE",
"861 379 CURVE SMOOTH",
"861 288 OFFCURVE",
"769 218 OFFCURVE",
"734 156 CURVE SMOOTH",
"728 145 OFFCURVE",
"724 135 OFFCURVE",
"724 127 CURVE SMOOTH",
"724 103 OFFCURVE",
"735 94 OFFCURVE",
"759 94 CURVE SMOOTH",
"832 94 OFFCURVE",
"896 192 OFFCURVE",
"932 223 CURVE",
"927 113 LINE",
"875 59 OFFCURVE",
"825 0 OFFCURVE",
"719 0 CURVE SMOOTH",
"660 0 OFFCURVE",
"612 42 OFFCURVE",
"612 100 CURVE SMOOTH",
"612 190 OFFCURVE",
"681 249 OFFCURVE",
"717 312 CURVE SMOOTH",
"720 317 OFFCURVE",
"722 323 OFFCURVE",
"722 328 CURVE SMOOTH",
"722 336 OFFCURVE",
"716 339 OFFCURVE",
"705 339 CURVE SMOOTH",
"686 339 OFFCURVE",
"672 306 OFFCURVE",
"658 287 CURVE SMOOTH",
"620 237 LINE SMOOTH",
"576 179 OFFCURVE",
"534 -4 OFFCURVE",
"446 -4 CURVE SMOOTH",
"411 -4 OFFCURVE",
"403 53 OFFCURVE",
"402 102 CURVE",
"331 43 OFFCURVE",
"256 0 OFFCURVE",
"161 0 CURVE SMOOTH",
"68 0 OFFCURVE",
"35 156 OFFCURVE",
"35 253 CURVE SMOOTH",
"35 487 OFFCURVE",
"91 721 OFFCURVE",
"196 854 CURVE SMOOTH",
"230 897 OFFCURVE",
"276 938 OFFCURVE",
"344 938 CURVE SMOOTH",
"400 938 OFFCURVE",
"415 884 OFFCURVE",
"415 827 CURVE SMOOTH",
"415 655 OFFCURVE",
"333 511 OFFCURVE",
"261 401 CURVE SMOOTH",
"231 356 OFFCURVE",
"201 314 OFFCURVE",
"170 276 CURVE SMOOTH",
"163 267 OFFCURVE",
"161 243 OFFCURVE"
);
},
{
closed = 1;
nodes = (
"323 778 CURVE SMOOTH",
"323 791 OFFCURVE",
"318 801 OFFCURVE",
"308 801 CURVE SMOOTH",
"197 801 OFFCURVE",
"156 476 OFFCURVE",
"156 361 CURVE",
"216 466 OFFCURVE",
"276 585 OFFCURVE",
"311 713 CURVE SMOOTH",
"317 736 OFFCURVE",
"323 758 OFFCURVE"
);
}
);
width = 872;
}
);
userData = {
com.fontlab.hintData = {
hhints = (
{
position = -1;
width = 194;
},
{
position = 0;
width = 244;
},
{
position = 694;
width = 268;
},
{
position = 1641;
width = 279;
},
{
position = 1682;
width = 225;
}
);
vhints = (
{
position = 72;
width = 258;
},
{
position = 661;
width = 188;
},
{
position = 1254;
width = 229;
},
{
position = 1371;
width = 201;
},
{
position = 1479;
width = 284;
}
);
};
};
},
{
glyphname = l_l;
lastChange = "2016-06-28 18:16:27 +0000";
layers = (
{
layerId = "85E06A60-3AC8-4D41-9F91-737269C30490";
paths = (
{
closed = 1;
nodes = (
"674 729 CURVE SMOOTH",
"674 742 OFFCURVE",
"669 752 OFFCURVE",
"659 752 CURVE SMOOTH",
"561 752 OFFCURVE",
"524 453 OFFCURVE",
"524 347 CURVE",
"577 441 OFFCURVE",
"631 548 OFFCURVE",
"662 664 CURVE SMOOTH",
"668 688 OFFCURVE",
"674 709 OFFCURVE"
);
},
{
closed = 1;
nodes = (
"191 -1 CURVE SMOOTH",
"88 -1 OFFCURVE",
"54 156 OFFCURVE",
"54 253 CURVE SMOOTH",
"54 505 OFFCURVE",
"164 938 OFFCURVE",
"373 938 CURVE SMOOTH",
"429 938 OFFCURVE",
"443 884 OFFCURVE",
"443 827 CURVE SMOOTH",
"443 589 OFFCURVE",
"304 407 OFFCURVE",
"188 276 CURVE SMOOTH",
"181 267 OFFCURVE",
"180 243 OFFCURVE",
"180 225 CURVE SMOOTH",
"180 187 OFFCURVE",
"185 102 OFFCURVE",
"225 102 CURVE SMOOTH",
"236 102 OFFCURVE",
"323 167 OFFCURVE",
"396 253 CURVE",
"396 495 OFFCURVE",
"477 889 OFFCURVE",
"696 889 CURVE SMOOTH",
"752 889 OFFCURVE",
"766 835 OFFCURVE",
"766 778 CURVE SMOOTH",
"766 553 OFFCURVE",
"631 381 OFFCURVE",
"523 251 CURVE",
"522 225 LINE",
"522 185 OFFCURVE",
"526 109 OFFCURVE",
"568 109 CURVE SMOOTH",
"619 109 OFFCURVE",
"688 170 OFFCURVE",
"721 204 CURVE SMOOTH",
"733 215 OFFCURVE",
"742 220 OFFCURVE",
"750 220 CURVE SMOOTH",
"767 220 OFFCURVE",
"772 198 OFFCURVE",
"772 175 CURVE SMOOTH",
"772 146 OFFCURVE",
"766 114 OFFCURVE",
"761 111 CURVE SMOOTH",
"698 66 OFFCURVE",
"620 0 OFFCURVE",
"522 0 CURVE SMOOTH",
"463 0 OFFCURVE",
"430 77 OFFCURVE",
"414 160 CURVE",
"353 78 OFFCURVE",
"261 -1 OFFCURVE"
);
},
{
closed = 1;
nodes = (
"356 773 CURVE SMOOTH",
"356 786 OFFCURVE",
"351 796 OFFCURVE",
"341 796 CURVE SMOOTH",
"227 796 OFFCURVE",
"185 475 OFFCURVE",
"185 361 CURVE",
"246 465 OFFCURVE",
"308 582 OFFCURVE",
"344 708 CURVE SMOOTH",
"350 731 OFFCURVE",
"356 753 OFFCURVE"
);
}
);
width = 604;
}
);
userData = {
com.fontlab.hintData = {
hhints = (
{
position = -2;
width = 211;
},
{
position = 1541;
width = 279;
},
{
position = 1631;
width = 289;
}
);
vhints = (
{
position = 110;
width = 258;
},
{
position = 729;
width = 178;
},
{
position = 812;
width = 261;
},
{
position = 1381;
width = 188;
}
);
};
};
},
{
glyphname = l_t;
lastChange = "2016-06-28 18:16:27 +0000";
layers = (
{
layerId = "85E06A60-3AC8-4D41-9F91-737269C30490";
paths = (
{
closed = 1;
nodes = (
"161 225 CURVE SMOOTH",
"161 191 OFFCURVE",
"166 109 OFFCURVE",
"193 109 CURVE SMOOTH",
"270 109 OFFCURVE",
"341 246 OFFCURVE",
"393 333 CURVE",
"398 363 OFFCURVE",
"409 429 OFFCURVE",
"412 450 CURVE",
"367 450 OFFCURVE",
"339 472 OFFCURVE",
"339 498 CURVE SMOOTH",
"339 523 OFFCURVE",
"366 527 OFFCURVE",
"401 527 CURVE SMOOTH",
"425 527 LINE",
"449 646 OFFCURVE",
"489 776 OFFCURVE",
"559 846 CURVE SMOOTH",
"579 865 OFFCURVE",
"600 875 OFFCURVE",
"622 875 CURVE SMOOTH",
"687 875 OFFCURVE",
"715 799 OFFCURVE",
"715 732 CURVE SMOOTH",
"715 649 OFFCURVE",
"665 582 OFFCURVE",
"628 527 CURVE",
"634 527 OFFCURVE",
"641 527 OFFCURVE",
"650 527 CURVE SMOOTH",
"664 527 LINE SMOOTH",
"708 527 OFFCURVE",
"734 525 OFFCURVE",
"734 489 CURVE SMOOTH",
"734 469 OFFCURVE",
"721 450 OFFCURVE",
"703 450 CURVE SMOOTH",
"574 450 LINE",
"535 368 OFFCURVE",
"506 324 OFFCURVE",
"506 259 CURVE SMOOTH",
"506 152 OFFCURVE",
"538 100 OFFCURVE",
"591 100 CURVE SMOOTH",
"663 100 OFFCURVE",
"721 186 OFFCURVE",
"759 229 CURVE SMOOTH",
"763 234 OFFCURVE",
"768 236 OFFCURVE",
"773 236 CURVE SMOOTH",
"790 236 OFFCURVE",
"809 220 OFFCURVE",
"809 195 CURVE SMOOTH",
"809 185 OFFCURVE",
"806 173 OFFCURVE",
"798 162 CURVE SMOOTH",
"741 73 OFFCURVE",
"671 -4 OFFCURVE",
"582 -4 CURVE SMOOTH",
"462 -4 OFFCURVE",
"417 86 OFFCURVE",
"400 193 CURVE",
"335 96 OFFCURVE",
"252 0 OFFCURVE",
"161 0 CURVE SMOOTH",
"68 0 OFFCURVE",
"35 156 OFFCURVE",
"35 253 CURVE SMOOTH",
"35 487 OFFCURVE",
"91 721 OFFCURVE",
"196 854 CURVE SMOOTH",
"230 897 OFFCURVE",
"276 938 OFFCURVE",
"344 938 CURVE SMOOTH",
"400 938 OFFCURVE",
"415 884 OFFCURVE",
"415 827 CURVE SMOOTH",
"415 655 OFFCURVE",
"333 511 OFFCURVE",
"261 401 CURVE SMOOTH",
"231 356 OFFCURVE",
"201 314 OFFCURVE",
"170 276 CURVE SMOOTH",
"163 267 OFFCURVE",
"161 243 OFFCURVE"
);
},
{
closed = 1;
nodes = (
"323 778 CURVE SMOOTH",
"323 791 OFFCURVE",
"318 801 OFFCURVE",
"308 801 CURVE SMOOTH",
"197 801 OFFCURVE",
"156 476 OFFCURVE",
"156 361 CURVE",
"216 466 OFFCURVE",
"276 585 OFFCURVE",
"311 713 CURVE SMOOTH",
"317 736 OFFCURVE",
"323 758 OFFCURVE"
);
},
{
closed = 1;
nodes = (
"519 527 CURVE",
"529 528 OFFCURVE",
"538 527 OFFCURVE",
"548 527 CURVE",
"577 575 OFFCURVE",
"609 632 OFFCURVE",
"628 688 CURVE SMOOTH",
"634 704 OFFCURVE",
"637 717 OFFCURVE",
"637 728 CURVE SMOOTH",
"637 748 OFFCURVE",
"632 766 OFFCURVE",
"611 766 CURVE SMOOTH",
"559 766 OFFCURVE",
"529 575 OFFCURVE"
);
}
);
width = 674;
}
);
userData = {
com.fontlab.hintData = {
hhints = (
{
position = -9;
width = 213;
},
{
position = 0;
width = 224;
},
{
position = 922;
width = 158;
},
{
position = 1568;
width = 224;
},
{
position = 1641;
width = 279;
}
);
vhints = (
{
position = 72;
width = 258;
},
{
position = 661;
width = 188;
},
{
position = 871;
width = 191;
},
{
position = 1304;
width = 160;
}
);
};
};
},
{
glyphname = o_o;
lastChange = "2016-06-28 18:16:27 +0000";
layers = (
{
layerId = "85E06A60-3AC8-4D41-9F91-737269C30490";
paths = (
{
closed = 1;
nodes = (
"565 193 CURVE SMOOTH",
"565 140 OFFCURVE",
"583 94 OFFCURVE",
"636 94 CURVE SMOOTH",
"693 94 OFFCURVE",
"721 208 OFFCURVE",
"721 269 CURVE SMOOTH",
"721 317 OFFCURVE",
"711 375 OFFCURVE",
"664 375 CURVE SMOOTH",
"598 375 OFFCURVE",
"565 263 OFFCURVE"
);
},
{
closed = 1;
nodes = (
"966 173 CURVE SMOOTH",
"966 153 OFFCURVE",
"954 146 OFFCURVE",
"935 146 CURVE SMOOTH",
"918 146 OFFCURVE",
"901 154 OFFCURVE",
"896 173 CURVE SMOOTH",
"864 281 OFFCURVE",
"813 341 OFFCURVE",
"787 366 CURVE",
"803 333 OFFCURVE",
"815 291 OFFCURVE",
"815 246 CURVE SMOOTH",
"815 120 OFFCURVE",
"741 0 OFFCURVE",
"617 0 CURVE SMOOTH",
"508 0 OFFCURVE",
"461 106 OFFCURVE",
"460 226 CURVE",
"440 208 OFFCURVE",
"418 198 OFFCURVE",
"395 198 CURVE SMOOTH",
"389 198 OFFCURVE",
"386 199 OFFCURVE",
"383 200 CURVE",
"364 115 OFFCURVE",
"324 0 OFFCURVE",
"199 0 CURVE SMOOTH",
"86 0 OFFCURVE",
"38 101 OFFCURVE",
"38 213 CURVE SMOOTH",
"38 361 OFFCURVE",
"124 469 OFFCURVE",
"271 469 CURVE SMOOTH",
"360 469 OFFCURVE",
"408 395 OFFCURVE",
"408 302 CURVE SMOOTH",
"408 296 OFFCURVE",
"411 294 OFFCURVE",
"416 294 CURVE SMOOTH",
"442 294 OFFCURVE",
"461 311 OFFCURVE",
"479 335 CURVE",
"513 417 OFFCURVE",
"586 469 OFFCURVE",
"689 469 CURVE SMOOTH",
"812 469 OFFCURVE",
"893 382 OFFCURVE",
"939 267 CURVE",
"945 250 OFFCURVE",
"966 203 OFFCURVE"
);
},
{
closed = 1;
nodes = (
"132 218 CURVE SMOOTH",
"132 153 OFFCURVE",
"153 94 OFFCURVE",
"218 94 CURVE SMOOTH",
"270 94 OFFCURVE",
"302 166 OFFCURVE",
"302 215 CURVE",
"270 235 OFFCURVE",
"224 263 OFFCURVE",
"224 313 CURVE SMOOTH",
"224 335 OFFCURVE",
"238 353 OFFCURVE",
"249 364 CURVE SMOOTH",
"252 368 OFFCURVE",
"253 370 OFFCURVE",
"253 372 CURVE SMOOTH",
"253 374 OFFCURVE",
"251 375 OFFCURVE",
"246 375 CURVE SMOOTH",
"178 375 OFFCURVE",
"132 287 OFFCURVE"
);
}
);
width = 825;
}
);
userData = {
com.fontlab.hintData = {
hhints = (
{
position = 0;
width = 192;
},
{
position = 405;
width = 197;
},
{
position = 768;
width = 192;
}
);
vhints = (
{
position = 77;
width = 194;
},
{
position = 943;
width = 214;
},
{
position = 1477;
width = 192;
},
{
position = 1834;
width = 144;
}
);
};
};
},
{
glyphname = o_o_s;
lastChange = "2016-06-28 18:16:27 +0000";
layers = (
{
layerId = "85E06A60-3AC8-4D41-9F91-737269C30490";
paths = (
{
closed = 1;
nodes = (
"142 193 CURVE SMOOTH",
"142 140 OFFCURVE",
"160 94 OFFCURVE",
"213 94 CURVE SMOOTH",
"271 94 OFFCURVE",
"298 208 OFFCURVE",
"298 269 CURVE SMOOTH",
"298 317 OFFCURVE",
"288 375 OFFCURVE",
"241 375 CURVE SMOOTH",
"175 375 OFFCURVE",
"142 263 OFFCURVE"
);
},
{
closed = 1;
nodes = (
"527 299 CURVE SMOOTH",
"539 299 OFFCURVE",
"585 331 OFFCURVE",
"603 331 CURVE SMOOTH",
"610 331 OFFCURVE",
"619 318 OFFCURVE",
"619 298 CURVE SMOOTH",
"619 239 OFFCURVE",
"554 214 OFFCURVE",
"517 214 CURVE SMOOTH",
"458 214 OFFCURVE",
"435 296 OFFCURVE",
"373 337 CURVE",
"386 315 OFFCURVE",
"392 269 OFFCURVE",
"392 246 CURVE SMOOTH",
"392 120 OFFCURVE",
"318 0 OFFCURVE",
"194 0 CURVE SMOOTH",
"81 0 OFFCURVE",
"33 101 OFFCURVE",
"33 213 CURVE SMOOTH",
"33 361 OFFCURVE",
"122 469 OFFCURVE",
"276 469 CURVE SMOOTH",
"374 469 OFFCURVE",
"473 398 OFFCURVE",
"522 301 CURVE SMOOTH",
"523 300 OFFCURVE",
"524 299 OFFCURVE"
);
},
{
closed = 1;
nodes = (
"831 357 CURVE",
"943 367 OFFCURVE",
"962 471 OFFCURVE",
"1041 471 CURVE SMOOTH",
"1086 471 OFFCURVE",
"1102 448 OFFCURVE",
"1102 429 CURVE SMOOTH",
"1102 405 OFFCURVE",
"1044 374 OFFCURVE",
"999 354 CURVE",
"993 347 OFFCURVE",
"989 341 OFFCURVE",
"988 338 CURVE",
"995 328 OFFCURVE",
"1020 305 OFFCURVE",
"1047 273 CURVE",
"1088 292 OFFCURVE",
"1131 303 OFFCURVE",
"1169 303 CURVE SMOOTH",
"1207 303 OFFCURVE",
"1233 266 OFFCURVE",
"1271 231 CURVE",
"1276 229 OFFCURVE",
"1278 224 OFFCURVE",
"1278 218 CURVE SMOOTH",
"1278 203 OFFCURVE",
"1265 182 OFFCURVE",
"1258 182 CURVE SMOOTH",
"1218 182 OFFCURVE",
"1193 201 OFFCURVE",
"1158 201 CURVE SMOOTH",
"1138 201 OFFCURVE",
"1116 201 OFFCURVE",
"1092 198 CURVE",
"1100 178 OFFCURVE",
"1105 157 OFFCURVE",
"1105 136 CURVE SMOOTH",
"1105 56 OFFCURVE",
"1053 -4 OFFCURVE",
"935 -4 CURVE SMOOTH",
"900 -4 OFFCURVE",
"855 18 OFFCURVE",
"855 73 CURVE SMOOTH",
"855 128 OFFCURVE",
"903 185 OFFCURVE",
"968 227 CURVE",
"950 256 OFFCURVE",
"930 282 OFFCURVE",
"912 304 CURVE",
"884 287 OFFCURVE",
"870 277 OFFCURVE",
"829 274 CURVE",
"817 105 OFFCURVE",
"748 0 OFFCURVE",
"637 0 CURVE SMOOTH",
"525 0 OFFCURVE",
"475 87 OFFCURVE",
"475 187 CURVE SMOOTH",
"475 318 OFFCURVE",
"558 469 OFFCURVE",
"698 469 CURVE SMOOTH",
"774 469 OFFCURVE",
"816 417 OFFCURVE"
);
},
{
closed = 1;
nodes = (
"672 375 CURVE SMOOTH",
"611 375 OFFCURVE",
"570 287 OFFCURVE",
"570 218 CURVE SMOOTH",
"570 153 OFFCURVE",
"591 94 OFFCURVE",
"656 94 CURVE SMOOTH",
"700 94 OFFCURVE",
"735 180 OFFCURVE",
"735 262 CURVE SMOOTH",
"735 297 OFFCURVE",
"736 375 OFFCURVE"
);
},
{
closed = 1;
nodes = (
"924 80 CURVE SMOOTH",
"924 75 OFFCURVE",
"936 74 OFFCURVE",
"939 74 CURVE SMOOTH",
"968 74 OFFCURVE",
"1011 110 OFFCURVE",
"1011 138 CURVE SMOOTH",
"1011 149 OFFCURVE",
"1008 161 OFFCURVE",
"1003 173 CURVE",
"977 160 OFFCURVE",
"924 123 OFFCURVE"
);
}
);
width = 1159;
}
);
userData = {
com.fontlab.hintData = {
hhints = (
{
position = -9;
width = 160;
},
{
position = 0;
width = 192;
},
{
position = 412;
width = 209;
},
{
position = 439;
width = 173;
},
{
position = 726;
width = 238;
},
{
position = 768;
width = 192;
}
);
vhints = (
{
position = 67;
width = 224;
},
{
position = 611;
width = 192;
},
{
position = 973;
width = 195;
},
{
position = 1506;
width = 191;
},
{
position = 1751;
width = 142;
},
{
position = 2071;
width = 192;
}
);
};
};
},
{
glyphname = o_s;
lastChange = "2016-06-28 18:16:27 +0000";
layers = (
{
layerId = "85E06A60-3AC8-4D41-9F91-737269C30490";
paths = (
{
closed = 1;
nodes = (
"127 218 CURVE SMOOTH",
"127 153 OFFCURVE",
"148 94 OFFCURVE",
"213 94 CURVE SMOOTH",
"266 94 OFFCURVE",
"298 172 OFFCURVE",
"298 225 CURVE",
"266 243 OFFCURVE",
"219 268 OFFCURVE",
"219 313 CURVE SMOOTH",
"219 335 OFFCURVE",
"233 353 OFFCURVE",
"244 364 CURVE SMOOTH",
"247 368 OFFCURVE",
"249 370 OFFCURVE",
"249 372 CURVE SMOOTH",
"249 374 OFFCURVE",
"246 375 OFFCURVE",
"241 375 CURVE SMOOTH",
"173 375 OFFCURVE",
"127 287 OFFCURVE"
);
},
{
closed = 1;
nodes = (
"551 295 CURVE",
"528 255 OFFCURVE",
"469 199 OFFCURVE",
"385 199 CURVE SMOOTH",
"379 199 OFFCURVE",
"376 200 OFFCURVE",
"374 201 CURVE",
"354 116 OFFCURVE",
"315 0 OFFCURVE",
"194 0 CURVE SMOOTH",
"81 0 OFFCURVE",
"33 101 OFFCURVE",
"33 213 CURVE SMOOTH",
"33 361 OFFCURVE",
"119 469 OFFCURVE",
"266 469 CURVE SMOOTH",
"355 469 OFFCURVE",
"403 395 OFFCURVE",
"403 302 CURVE SMOOTH",
"403 296 OFFCURVE",
"406 294 OFFCURVE",
"411 294 CURVE SMOOTH",
"481 294 OFFCURVE",
"522 372 OFFCURVE",
"558 422 CURVE SMOOTH",
"574 444 OFFCURVE",
"594 469 OFFCURVE",
"632 469 CURVE SMOOTH",
"679 469 OFFCURVE",
"695 452 OFFCURVE",
"695 429 CURVE SMOOTH",
"695 401 OFFCURVE",
"672 366 OFFCURVE",
"655 345 CURVE SMOOTH",
"649 337 OFFCURVE",
"645 332 OFFCURVE",
"645 328 CURVE",
"649 264 OFFCURVE",
"692 218 OFFCURVE",
"692 154 CURVE SMOOTH",
"692 141 OFFCURVE",
"690 126 OFFCURVE",
"685 110 CURVE",
"731 123 OFFCURVE",
"774 151 OFFCURVE",
"814 183 CURVE SMOOTH",
"833 197 OFFCURVE",
"844 203 OFFCURVE",
"851 203 CURVE SMOOTH",
"868 203 OFFCURVE",
"863 167 OFFCURVE",
"869 109 CURVE",
"797 49 OFFCURVE",
"680 -4 OFFCURVE",
"552 -4 CURVE SMOOTH",
"474 -4 OFFCURVE",
"423 26 OFFCURVE",
"411 93 CURVE",
"425 119 OFFCURVE",
"439 125 OFFCURVE",
"454 125 CURVE SMOOTH",
"479 125 OFFCURVE",
"494 78 OFFCURVE",
"527 78 CURVE SMOOTH",
"575 78 OFFCURVE",
"589 107 OFFCURVE",
"589 143 CURVE SMOOTH",
"589 195 OFFCURVE",
"567 259 OFFCURVE"
);
}
);
width = 762;
}
);
userData = {
com.fontlab.hintData = {
hhints = (
{
position = -9;
width = 169;
},
{
position = 0;
width = 192;
},
{
position = 407;
width = 195;
},
{
position = 768;
width = 192;
}
);
vhints = (
{
position = 67;
width = 194;
},
{
position = 1207;
width = 210;
}
);
};
};
},
{
glyphname = o_x;
lastChange = "2016-06-28 18:16:27 +0000";
layers = (
{
layerId = "85E06A60-3AC8-4D41-9F91-737269C30490";
paths = (
{
closed = 1;
nodes = (
"127 218 CURVE SMOOTH",
"127 153 OFFCURVE",
"148 94 OFFCURVE",
"213 94 CURVE SMOOTH",
"266 94 OFFCURVE",
"298 172 OFFCURVE",
"298 225 CURVE",
"266 243 OFFCURVE",
"219 268 OFFCURVE",
"219 313 CURVE SMOOTH",
"219 335 OFFCURVE",
"233 353 OFFCURVE",
"244 364 CURVE SMOOTH",
"247 368 OFFCURVE",
"249 370 OFFCURVE",
"249 372 CURVE SMOOTH",
"249 374 OFFCURVE",
"246 375 OFFCURVE",
"241 375 CURVE SMOOTH",
"173 375 OFFCURVE",
"127 287 OFFCURVE"
);
},
{
closed = 1;
nodes = (
"266 469 CURVE SMOOTH",
"355 469 OFFCURVE",
"403 395 OFFCURVE",
"403 302 CURVE SMOOTH",
"403 296 OFFCURVE",
"406 294 OFFCURVE",
"411 294 CURVE SMOOTH",
"469 294 OFFCURVE",
"507 404 OFFCURVE",
"539 432 CURVE SMOOTH",
"543 436 OFFCURVE",
"549 438 OFFCURVE",
"555 438 CURVE SMOOTH",
"587 438 OFFCURVE",
"592 404 OFFCURVE",
"606 374 CURVE SMOOTH",
"617 351 OFFCURVE",
"630 324 OFFCURVE",
"646 294 CURVE",
"681 340 OFFCURVE",
"721 385 OFFCURVE",
"768 422 CURVE SMOOTH",
"779 431 OFFCURVE",
"793 437 OFFCURVE",
"810 437 CURVE SMOOTH",
"840 437 OFFCURVE",
"856 411 OFFCURVE",
"856 381 CURVE SMOOTH",
"856 357 OFFCURVE",
"845 339 OFFCURVE",
"830 328 CURVE SMOOTH",
"778 290 OFFCURVE",
"734 240 OFFCURVE",
"693 188 CURVE",
"708 165 OFFCURVE",
"741 94 OFFCURVE",
"774 94 CURVE SMOOTH",
"844 94 OFFCURVE",
"922 180 OFFCURVE",
"954 222 CURVE",
"954 206 OFFCURVE",
"955 194 OFFCURVE",
"955 180 CURVE SMOOTH",
"955 166 OFFCURVE",
"955 153 OFFCURVE",
"955 139 CURVE",
"908 81 OFFCURVE",
"847 20 OFFCURVE",
"768 -7 CURVE SMOOTH",
"752 -12 OFFCURVE",
"736 -15 OFFCURVE",
"721 -15 CURVE SMOOTH",
"676 -15 OFFCURVE",
"644 71 OFFCURVE",
"624 105 CURVE",
"597 77 OFFCURVE",
"567 43 OFFCURVE",
"539 18 CURVE SMOOTH",
"530 10 OFFCURVE",
"523 4 OFFCURVE",
"517 1 CURVE",
"513 -8 OFFCURVE",
"505 -13 OFFCURVE",
"493 -13 CURVE SMOOTH",
"461 -13 OFFCURVE",
"428 15 OFFCURVE",
"428 46 CURVE SMOOTH",
"428 82 OFFCURVE",
"476 111 OFFCURVE",
"498 134 CURVE SMOOTH",
"519 155 OFFCURVE",
"545 184 OFFCURVE",
"557 210 CURVE",
"543 234 OFFCURVE",
"530 259 OFFCURVE",
"518 285 CURVE",
"496 250 OFFCURVE",
"438 199 OFFCURVE",
"385 199 CURVE SMOOTH",
"379 199 OFFCURVE",
"376 200 OFFCURVE",
"374 201 CURVE",
"354 116 OFFCURVE",
"315 0 OFFCURVE",
"194 0 CURVE SMOOTH",
"81 0 OFFCURVE",
"33 101 OFFCURVE",
"33 213 CURVE SMOOTH",
"33 361 OFFCURVE",
"119 469 OFFCURVE"
);
}
);
width = 862;
}
);
userData = {
com.fontlab.hintData = {
hhints = (
{
position = -30;
width = 223;
},
{
position = 0;
width = 192;
},
{
position = 407;
width = 195;
},
{
position = 768;
width = 192;
},
{
position = 876;
width = 20;
}
);
vhints = (
{
position = 67;
width = 194;
}
);
};
};
},
{
glyphname = p_t;
lastChange = "2016-06-28 18:16:27 +0000";
layers = (
{
layerId = "85E06A60-3AC8-4D41-9F91-737269C30490";
paths = (
{
closed = 1;
nodes = (
"571 370 CURVE",
"571 278 LINE",
"571 175 OFFCURVE",
"596 100 OFFCURVE",
"664 100 CURVE SMOOTH",
"744 100 OFFCURVE",
"809 189 OFFCURVE",
"851 234 CURVE SMOOTH",
"855 239 OFFCURVE",
"860 241 OFFCURVE",
"866 241 CURVE SMOOTH",
"882 241 OFFCURVE",
"901 225 OFFCURVE",
"901 200 CURVE SMOOTH",
"901 190 OFFCURVE",
"898 178 OFFCURVE",
"890 167 CURVE SMOOTH",
"828 76 OFFCURVE",
"752 -4 OFFCURVE",
"655 -4 CURVE SMOOTH",
"518 -4 OFFCURVE",
"476 108 OFFCURVE",
"464 231 CURVE",
"388 121 OFFCURVE",
"272 66 OFFCURVE",
"165 47 CURVE",
"165 12 LINE SMOOTH",
"165 -140 OFFCURVE",
"134 -284 OFFCURVE",
"58 -352 CURVE SMOOTH",
"37 -371 OFFCURVE",
"14 -380 OFFCURVE",
"-9 -380 CURVE SMOOTH",
"-90 -380 OFFCURVE",
"-105 -310 OFFCURVE",
"-105 -244 CURVE",
"-105 -97 OFFCURVE",
"-16 2 OFFCURVE",
"51 95 CURVE",
"51 225 OFFCURVE",
"81 469 OFFCURVE",
"243 469 CURVE SMOOTH",
"356 469 OFFCURVE",
"410 401 OFFCURVE",
"410 334 CURVE SMOOTH",
"410 290 OFFCURVE",
"390 247 OFFCURVE",
"358 206 CURVE",
"416 255 OFFCURVE",
"432 310 OFFCURVE",
"459 364 CURVE",
"461 394 OFFCURVE",
"465 424 OFFCURVE",
"470 450 CURVE",
"418 450 OFFCURVE",
"386 472 OFFCURVE",
"386 498 CURVE SMOOTH",
"386 523 OFFCURVE",
"413 527 OFFCURVE",
"448 527 CURVE SMOOTH",
"483 527 LINE",
"507 646 OFFCURVE",
"547 776 OFFCURVE",
"617 846 CURVE SMOOTH",
"637 865 OFFCURVE",
"658 875 OFFCURVE",
"680 875 CURVE SMOOTH",
"745 875 OFFCURVE",
"773 799 OFFCURVE",
"773 732 CURVE SMOOTH",
"773 649 OFFCURVE",
"723 582 OFFCURVE",
"687 527 CURVE",
"692 527 OFFCURVE",
"699 527 OFFCURVE",
"708 527 CURVE SMOOTH",
"781 527 LINE SMOOTH",
"825 527 OFFCURVE",
"851 525 OFFCURVE",
"851 489 CURVE SMOOTH",
"851 469 OFFCURVE",
"838 450 OFFCURVE",
"820 450 CURVE SMOOTH",
"632 450 LINE",
"616 429 OFFCURVE",
"594 400 OFFCURVE"
);
},
{
closed = 1;
nodes = (
"56 10 CURVE",
"22 -50 OFFCURVE",
"-12 -144 OFFCURVE",
"-12 -230 CURVE SMOOTH",
"-12 -244 OFFCURVE",
"-10 -269 OFFCURVE",
"14 -269 CURVE SMOOTH",
"55 -269 OFFCURVE",
"56 -167 OFFCURVE",
"56 -94 CURVE SMOOTH",
"56 -84 LINE SMOOTH",
"56 -54 OFFCURVE",
"56 -18 OFFCURVE"
);
},
{
closed = 1;
nodes = (
"164 136 CURVE",
"241 169 OFFCURVE",
"313 230 OFFCURVE",
"318 320 CURVE SMOOTH",
"318 322 OFFCURVE",
"319 324 OFFCURVE",
"319 325 CURVE SMOOTH",
"319 354 OFFCURVE",
"298 378 OFFCURVE",
"249 378 CURVE SMOOTH",
"167 378 OFFCURVE",
"164 224 OFFCURVE"
);
},
{
closed = 1;
nodes = (
"577 527 CURVE",
"587 528 OFFCURVE",
"596 527 OFFCURVE",
"606 527 CURVE",
"635 575 OFFCURVE",
"667 632 OFFCURVE",
"687 688 CURVE SMOOTH",
"692 704 OFFCURVE",
"695 717 OFFCURVE",
"695 728 CURVE SMOOTH",
"695 748 OFFCURVE",
"690 766 OFFCURVE",
"669 766 CURVE SMOOTH",
"617 766 OFFCURVE",
"587 575 OFFCURVE"
);
}
);
width = 735;
}
);
userData = {
com.fontlab.hintData = {
hhints = (
{
position = -778;
width = 228;
},
{
position = -9;
width = 213;
},
{
position = 774;
width = 186;
},
{
position = 922;
width = 158;
},
{
position = 1568;
width = 224;
}
);
vhints = (
{
position = -215;
width = 191;
},
{
position = 114;
width = 223;
},
{
position = 653;
width = 187;
},
{
position = 990;
width = 191;
},
{
position = 1423;
width = 160;
}
);
};
};
},
{
glyphname = r_s;
lastChange = "2016-06-28 18:16:27 +0000";
layers = (
{
layerId = "85E06A60-3AC8-4D41-9F91-737269C30490";
paths = (
{
closed = 1;
nodes = (
"53 102 CURVE SMOOTH",
"53 197 OFFCURVE",
"66 469 OFFCURVE",
"157 469 CURVE SMOOTH",
"191 469 OFFCURVE",
"192 458 OFFCURVE",
"192 424 CURVE SMOOTH",
"192 381 LINE SMOOTH",
"192 364 OFFCURVE",
"193 347 OFFCURVE",
"193 330 CURVE",
"199 330 LINE",
"225 382 OFFCURVE",
"257 469 OFFCURVE",
"333 469 CURVE SMOOTH",
"361 469 OFFCURVE",
"381 451 OFFCURVE",
"381 423 CURVE SMOOTH",
"381 398 OFFCURVE",
"366 339 OFFCURVE",
"366 295 CURVE SMOOTH",
"366 255 OFFCURVE",
"384 242 OFFCURVE",
"408 242 CURVE SMOOTH",
"502 242 OFFCURVE",
"541 364 OFFCURVE",
"573 422 CURVE SMOOTH",
"586 446 OFFCURVE",
"609 469 OFFCURVE",
"647 469 CURVE SMOOTH",
"694 469 OFFCURVE",
"710 452 OFFCURVE",
"710 429 CURVE SMOOTH",
"710 401 OFFCURVE",
"688 366 OFFCURVE",
"670 345 CURVE SMOOTH",
"664 337 OFFCURVE",
"660 332 OFFCURVE",
"660 328 CURVE",
"665 320 OFFCURVE",
"684 300 OFFCURVE",
"704 273 CURVE",
"745 292 OFFCURVE",
"788 303 OFFCURVE",
"826 303 CURVE SMOOTH",
"863 303 OFFCURVE",
"890 266 OFFCURVE",
"928 231 CURVE",
"933 229 OFFCURVE",
"935 224 OFFCURVE",
"935 218 CURVE SMOOTH",
"935 203 OFFCURVE",
"922 182 OFFCURVE",
"915 182 CURVE SMOOTH",
"875 182 OFFCURVE",
"850 201 OFFCURVE",
"815 201 CURVE SMOOTH",
"795 201 OFFCURVE",
"772 201 OFFCURVE",
"749 198 CURVE",
"757 178 OFFCURVE",
"762 157 OFFCURVE",
"762 136 CURVE SMOOTH",
"762 56 OFFCURVE",
"709 -4 OFFCURVE",
"592 -4 CURVE SMOOTH",
"559 -4 OFFCURVE",
"517 14 OFFCURVE",
"517 59 CURVE SMOOTH",
"517 119 OFFCURVE",
"563 181 OFFCURVE",
"625 227 CURVE",
"613 241 OFFCURVE",
"600 254 OFFCURVE",
"588 265 CURVE",
"564 229 LINE SMOOTH",
"532 180 OFFCURVE",
"450 141 OFFCURVE",
"390 141 CURVE SMOOTH",
"293 141 OFFCURVE",
"276 225 OFFCURVE",
"265 310 CURVE",
"257 310 LINE",
"170 66 LINE SMOOTH",
"160 38 OFFCURVE",
"150 0 OFFCURVE",
"115 0 CURVE SMOOTH",
"62 0 OFFCURVE",
"53 49 OFFCURVE"
);
},
{
closed = 1;
nodes = (
"581 80 CURVE SMOOTH",
"581 75 OFFCURVE",
"592 74 OFFCURVE",
"596 74 CURVE SMOOTH",
"625 74 OFFCURVE",
"668 110 OFFCURVE",
"668 138 CURVE SMOOTH",
"668 149 OFFCURVE",
"665 161 OFFCURVE",
"660 173 CURVE",
"634 160 OFFCURVE",
"581 123 OFFCURVE"
);
}
);
width = 801;
}
);
userData = {
com.fontlab.hintData = {
hhints = (
{
position = -9;
width = 160;
},
{
position = 288;
width = 207;
},
{
position = 412;
width = 209;
},
{
position = 940;
width = 20;
}
);
vhints = (
{
position = 108;
width = 240;
},
{
position = 543;
width = 206;
},
{
position = 1058;
width = 132;
},
{
position = 1368;
width = 192;
}
);
};
};
},
{
glyphname = t_t;
lastChange = "2016-06-28 18:16:27 +0000";
layers = (
{
layerId = "85E06A60-3AC8-4D41-9F91-737269C30490";
paths = (
{
closed = 1;
nodes = (
"209 458 CURVE",
"248 541 OFFCURVE",
"291 641 OFFCURVE",
"291 728 CURVE SMOOTH",
"291 748 OFFCURVE",
"286 766 OFFCURVE",
"265 766 CURVE SMOOTH",
"214 766 OFFCURVE",
"187 573 OFFCURVE",
"175 456 CURVE",
"186 457 OFFCURVE",
"197 457 OFFCURVE"
);
},
{
closed = 1;
nodes = (
"546 471 LINE",
"586 547 OFFCURVE",
"633 643 OFFCURVE",
"633 728 CURVE SMOOTH",
"633 748 OFFCURVE",
"628 766 OFFCURVE",
"607 766 CURVE SMOOTH",
"553 766 OFFCURVE",
"526 584 OFFCURVE",
"515 471 CURVE"
);
},
{
closed = 1;
nodes = (
"557 372 CURVE",
"540 349 OFFCURVE",
"523 328 OFFCURVE",
"511 312 CURVE",
"509 205 LINE",
"509 148 OFFCURVE",
"526 109 OFFCURVE",
"581 109 CURVE SMOOTH",
"663 109 OFFCURVE",
"748 188 OFFCURVE",
"789 234 CURVE",
"789 109 LINE",
"728 63 OFFCURVE",
"645 0 OFFCURVE",
"549 0 CURVE SMOOTH",
"453 0 OFFCURVE",
"425 94 OFFCURVE",
"414 171 CURVE",
"377 109 OFFCURVE",
"308 0 OFFCURVE",
"208 0 CURVE SMOOTH",
"77 0 OFFCURVE",
"57 186 OFFCURVE",
"57 325 CURVE SMOOTH",
"57 344 OFFCURVE",
"57 363 OFFCURVE",
"58 383 CURVE",
"12 392 OFFCURVE",
"-32 407 OFFCURVE",
"-32 432 CURVE SMOOTH",
"-32 447 OFFCURVE",
"-13 462 OFFCURVE",
"20 462 CURVE SMOOTH",
"36 462 OFFCURVE",
"51 461 OFFCURVE",
"67 459 CURVE",
"80 531 LINE",
"102 643 OFFCURVE",
"154 875 OFFCURVE",
"276 875 CURVE SMOOTH",
"341 875 OFFCURVE",
"369 799 OFFCURVE",
"369 732 CURVE SMOOTH",
"369 633 OFFCURVE",
"332 542 OFFCURVE",
"289 461 CURVE",
"329 464 OFFCURVE",
"369 466 OFFCURVE",
"409 468 CURVE",
"430 632 OFFCURVE",
"485 794 OFFCURVE",
"578 861 CURVE SMOOTH",
"591 871 OFFCURVE",
"604 875 OFFCURVE",
"618 875 CURVE SMOOTH",
"683 875 OFFCURVE",
"711 799 OFFCURVE",
"711 732 CURVE SMOOTH",
"711 642 OFFCURVE",
"669 548 OFFCURVE",
"622 469 CURVE",
"668 468 OFFCURVE",
"714 466 OFFCURVE",
"714 462 CURVE",
"767 451 OFFCURVE",
"716 352 OFFCURVE",
"702 367 CURVE",
"664 368 OFFCURVE",
"605 371 OFFCURVE"
);
},
{
closed = 1;
nodes = (
"400 373 CURVE",
"344 373 OFFCURVE",
"288 374 OFFCURVE",
"240 374 CURVE",
"201 307 OFFCURVE",
"167 251 OFFCURVE",
"167 210 CURVE SMOOTH",
"167 164 OFFCURVE",
"176 109 OFFCURVE",
"230 109 CURVE SMOOTH",
"314 109 OFFCURVE",
"371 247 OFFCURVE",
"398 308 CURVE",
"398 330 OFFCURVE",
"399 351 OFFCURVE"
);
}
);
width = 705;
}
);
userData = {
com.fontlab.hintData = {
hhints = (
{
position = 0;
width = 223;
},
{
position = 764;
width = 194;
},
{
position = 784;
width = 162;
},
{
position = 1568;
width = 224;
}
);
vhints = (
{
position = 116;
width = 227;
},
{
position = 596;
width = 160;
},
{
position = 816;
width = 230;
},
{
position = 837;
width = 217;
},
{
position = 1296;
width = 160;
}
);
};
};
},
{
glyphname = uniFB00;
lastChange = "2016-06-28 18:16:27 +0000";
layers = (
{
layerId = "85E06A60-3AC8-4D41-9F91-737269C30490";
paths = (
{
closed = 1;
nodes = (
"147 -185 CURVE SMOOTH",
"206 -185 OFFCURVE",
"206 -84 OFFCURVE",
"206 -30 CURVE SMOOTH",
"206 -28 LINE SMOOTH",
"206 91 OFFCURVE",
"175 188 OFFCURVE",
"140 255 CURVE",
"135 161 OFFCURVE",
"126 70 OFFCURVE",
"126 -23 CURVE SMOOTH",
"126 -91 OFFCURVE",
"128 -185 OFFCURVE"
);
},
{
closed = 1;
nodes = (
"388 747 CURVE SMOOTH",
"388 773 OFFCURVE",
"384 796 OFFCURVE",
"364 796 CURVE SMOOTH",
"252 796 OFFCURVE",
"174 378 OFFCURVE",
"161 335 CURVE",
"237 429 OFFCURVE",
"388 618 OFFCURVE"
);
},
{
closed = 1;
nodes = (
"496 -222 CURVE SMOOTH",
"396 -222 OFFCURVE",
"376 -92 OFFCURVE",
"376 25 CURVE SMOOTH",
"376 92 OFFCURVE",
"379 158 OFFCURVE",
"381 225 CURVE",
"343 212 OFFCURVE",
"293 209 OFFCURVE",
"251 208 CURVE",
"278 137 OFFCURVE",
"309 49 OFFCURVE",
"309 -58 CURVE SMOOTH",
"309 -156 OFFCURVE",
"259 -295 OFFCURVE",
"132 -295 CURVE SMOOTH",
"30 -295 OFFCURVE",
"17 -135 OFFCURVE",
"17 -19 CURVE SMOOTH",
"17 254 OFFCURVE",
"110 906 OFFCURVE",
"382 906 CURVE SMOOTH",
"443 906 OFFCURVE",
"479 860 OFFCURVE",
"479 793 CURVE SMOOTH",
"479 607 OFFCURVE",
"313 407 OFFCURVE",
"217 294 CURVE",
"231 290 OFFCURVE",
"254 287 OFFCURVE",
"273 287 CURVE SMOOTH",
"324 287 OFFCURVE",
"352 294 OFFCURVE",
"388 306 CURVE",
"429 550 OFFCURVE",
"527 833 OFFCURVE",
"712 833 CURVE SMOOTH",
"773 833 OFFCURVE",
"810 787 OFFCURVE",
"810 720 CURVE SMOOTH",
"810 561 OFFCURVE",
"638 390 OFFCURVE",
"538 294 CURVE",
"552 290 OFFCURVE",
"575 287 OFFCURVE",
"594 287 CURVE SMOOTH",
"688 287 OFFCURVE",
"728 326 OFFCURVE",
"806 383 CURVE SMOOTH",
"809 386 OFFCURVE",
"812 386 OFFCURVE",
"814 386 CURVE SMOOTH",
"826 386 OFFCURVE",
"832 372 OFFCURVE",
"832 353 CURVE SMOOTH",
"832 225 OFFCURVE",
"682 213 OFFCURVE",
"572 208 CURVE",
"601 143 OFFCURVE",
"635 61 OFFCURVE",
"635 -39 CURVE SMOOTH",
"635 -111 OFFCURVE",
"613 -222 OFFCURVE"
);
},
{
closed = 1;
nodes = (
"498 -112 CURVE SMOOTH",
"530 -112 OFFCURVE",
"541 -78 OFFCURVE",
"541 -31 CURVE SMOOTH",
"541 72 OFFCURVE",
"474 231 OFFCURVE",
"465 245 CURVE",
"466 214 OFFCURVE",
"465 181 OFFCURVE",
"465 132 CURVE SMOOTH",
"465 25 OFFCURVE",
"469 -112 OFFCURVE"
);
},
{
closed = 1;
nodes = (
"720 690 CURVE SMOOTH",
"720 710 OFFCURVE",
"710 724 OFFCURVE",
"689 724 CURVE SMOOTH",
"576 724 OFFCURVE",
"495 371 OFFCURVE",
"482 335 CURVE",
"554 388 OFFCURVE",
"720 599 OFFCURVE"
);
}
);
width = 680;
}
);
userData = {
com.fontlab.hintData = {
hhints = (
{
position = -604;
width = 225;
},
{
position = -455;
width = 226;
},
{
position = 427;
width = 160;
},
{
position = 1482;
width = 224;
},
{
position = 1631;
width = 225;
}
);
vhints = (
{
position = 34;
width = 225;
},
{
position = 422;
width = 211;
},
{
position = 770;
width = 182;
},
{
position = 795;
width = 187;
},
{
position = 1107;
width = 193;
},
{
position = 1474;
width = 185;
}
);
};
};
},
